<?xml version="1.0" encoding="UTF-8"?>
<svg id="Layer_1" data-name="Layer 1" xmlns="http://www.w3.org/2000/svg" viewBox="0 0 400 146">
  <defs>
    <style>
      .cls-1 {
        fill: #f8f7ec;
      }

      .cls-2 {
        fill: #131510;
      }
    </style>
  </defs>
  <rect class="cls-1" width="400" height="146"/>
  <g>
    <path class="cls-2" d="M323.83,41.74l-4.53,21.05h-9.42l4.37-20.29c-7.55,1.04-15.42,2.42-23.29,4.28l-3.27,15.37c.31-9.63-4.55-22.01-25.59-22.01-18.24,0-27.94,11.56-32.01,24.09,3.58-1.44,13.46-5.77,16.98-7.27,4.15-1.77-18.13,11.42-18.27,12.1-.16.73-.29,1.46-.41,2.19-.45,2.71-.66,5.38-.66,7.89,0,14.39,6.84,25.14,25.32,25.14,14.93,0,24.47-6.34,29.21-16.54l-3.18,14.94h22.39l2.66-12.61,2.32-11.01h9.42l-4.97,23.63h22.47l10.08-47.37c.93-3.75,2.89-13.57,19.59-15.49-26.75-.13-39.17,1.91-39.17,1.91ZM261.82,82.96c-1.24,3.55-2.58,6.4-6.57,6.4-3.02,0-4.35-2.84-4.35-7.2,0-9.95,3.64-27.27,10.57-27.27,4.09,0,4.44,3.02,4,7.64h22.14l-4.35,20.43h-21.43Z"/>
    <polygon class="cls-2" points="62.1 69.07 55.92 66.34 56.47 63.76 62.65 66.49 63.95 60.34 48.02 53.25 46.71 59.4 52.21 61.87 51.67 64.44 46.17 61.98 44.86 68.11 60.8 75.2 62.1 69.07"/>
    <polygon class="cls-2" points="67.9 41.74 63.6 41.74 61.8 50.22 59.71 49.3 61.32 41.74 56.99 41.74 55.77 47.52 53.74 46.63 54.78 41.74 50.46 41.74 48.56 50.72 64.49 57.81 67.9 41.74"/>
    <path class="cls-2" d="M46.32,81.64l6.85,3.05c2.35-1.4,4.13-2.94,5.36-4.3l-10.92-4.86.83-3.92-3.95-1.75-2.97,13.99,3.95,1.75.84-3.97Z"/>
    <path class="cls-2" d="M111.88,70.52c5.15-1.87,10.3-5.95,10.3-13.95,0-9.59-8.17-14.84-20.79-14.84h-27.63l-7.54,35.44s0,0,0,0c-1.56,7.1-10.32,15.53-27.92,16.33,6.42,1.1,12.9,1.91,19.42,2.48,1.49.1,2.96.27,4.43.34,17.45,1.2,35.18.61,52.92-1.41,2.85-3.2,4.45-7.25,4.45-11.88,0-7.2-4.8-11.1-7.64-12.53ZM88.69,90.06h-3.82l2.75-12.88h3.46c3.55,0,5.42,1.87,5.42,5.33,0,5.69-4,7.55-7.82,7.55ZM93.58,65.28h-3.38l2.31-10.93h2.84c3.02,0,4.89,1.33,4.89,4.44,0,4.09-2.04,6.48-6.66,6.48Z"/>
    <path class="cls-2" d="M142.95,90.59l2.31-10.92h23.36l3.29-15.1h-23.36l1.6-7.73h24.34l3.2-15.1h-45.66l-11.17,52.47c7.38-.97,14.75-2.18,22.1-3.61Z"/>
    <path class="cls-2" d="M192.05,84.1c-3.7,1.48-28.21,10.93-73.3,20.17h67.9l4.42-11.73h12.26l-.44,10.13h22.21l-1.01-32.49c-8.45,4.23-19.43,8.78-32.04,13.91Z"/>
    <path class="cls-2" d="M197.16,76.29h-.13c2.49-7.2,4.97-14.21,7.28-21.94h.89c-.46,6.02-.85,14.37-1.12,19.61,6.71-2.32,13.36-4.77,19.91-7.32l-.76-24.9h-31.18l-18.74,41.75c8.02-2.19,15.97-4.6,23.85-7.19Z"/>
  </g>
</svg>