<?xml version="1.0" encoding="UTF-8"?>
<svg id="Layer_1" data-name="Layer 1" xmlns="http://www.w3.org/2000/svg" viewBox="0 0 400 146">
  <defs>
    <style>
      .cls-1 {
        fill: #f8f7ec;
      }

      .cls-2 {
        fill: #131510;
      }
    </style>
  </defs>
  <rect class="cls-2" width="400" height="146"/>
  <g>
    <path class="cls-1" d="M253.36,104.68c-11.3,0-24.77-4.27-24.77-24.59,0-2.56.22-5.19.65-7.8.11-.68.24-1.36.38-2.04.71-.63,5.46-3.59,9.3-5.98,9.69-6.03,9.67-6.07,9.51-6.66l-.11-.4h-.44c-.13-.01-.29.02-.69.19-1.14.49-2.95,1.27-5,2.16-3.69,1.6-8.17,3.54-10.87,4.66,3.17-8.93,11.27-22.58,31.11-22.58,8.92,0,15.6,2.24,19.87,6.64,4.69,4.84,5.27,11.19,5.18,14.65h-21.08c.24-2.86.1-5.04-1.11-6.37-.78-.85-1.92-1.27-3.49-1.27-7.4,0-11.12,17.83-11.12,27.82,0,6.74,3.07,7.74,4.9,7.74,4.21,0,5.74-2.98,6.96-6.4h21.49l4.58-21.52,3.14-14.75c6.97-1.63,14.41-3,22.14-4.08l-4.34,20.19h10.53l4.54-21.12c2.05-.3,12.77-1.7,32.9-1.85-11.47,3.2-13.35,10.94-14.22,14.5l-.07.3-9.99,46.95h-21.36l4.97-23.63h-10.53l-4.97,23.63h-21.27l3.04-14.28-1.03-.34c-4.93,10.61-14.86,16.22-28.71,16.22Z"/>
    <polygon class="cls-1" points="45.82 68.74 46.89 63.7 52.4 66.17 53.17 62.5 47.67 60.03 48.75 54.97 63.66 61.61 62.59 66.67 56.41 63.94 55.63 67.6 61.81 70.34 60.74 75.38 45.82 68.74"/>
    <polygon class="cls-1" points="49.51 51.35 51.24 43.23 54.44 43.23 53.45 47.9 56.5 49.23 57.77 43.23 60.98 43.23 59.42 50.56 62.53 51.94 64.38 43.23 67.56 43.23 64.43 57.99 49.51 51.35"/>
    <path class="cls-1" d="M42.48,84.48l2.74-12.9,2.93,1.3-.83,3.92,10.62,4.73c-.97.99-2.44,2.26-4.47,3.5l-7.21-3.21-.84,3.97-2.93-1.3Z"/>
    <path class="cls-1" d="M80.77,97.36c-6.15,0-12.29-.21-18.24-.62-.88-.04-1.77-.12-2.63-.2-.6-.05-1.2-.1-1.8-.15-5.06-.44-10.08-1.03-14.99-1.77,14.46-1.86,22.44-9.3,23.99-16.38l7.45-35.02h27.19c12.67,0,20.24,5.34,20.24,14.29,0,8.13-5.41,11.79-9.95,13.43l-1.2.43,1.14.57c1.23.61,7.34,4.07,7.34,12.04,0,4.3-1.44,8.22-4.17,11.36-11.71,1.33-23.27,2.01-34.37,2.01h0ZM84.53,91.56h4.49c5.24,0,8.36-3.03,8.36-8.1,0-3.79-2.12-5.88-5.96-5.88h-3.91l-2.99,13.97ZM89.87,66.77h4.05c4.72,0,7.21-2.43,7.21-7.03,0-3.22-1.93-4.99-5.43-4.99h-3.28l-2.54,12.02Z"/>
    <path class="cls-1" d="M132.8,43.23h44.55l-2.97,14.01h-24.34l-1.82,8.82h23.36l-3.05,14.01h-23.37l-2.32,11c-7.05,1.36-14.09,2.52-20.94,3.44l10.91-51.28Z"/>
    <path class="cls-1" d="M124.37,104.68c41.41-8.81,63.98-17.43,68.22-19.12,11.6-4.72,22.72-9.3,31.32-13.55l.97,31.07h-21.08l.44-10.13h-13.21l-4.42,11.73h-62.25Z"/>
    <path class="cls-1" d="M192.74,43.23h30.3l.73,23.98c-6.29,2.45-12.6,4.77-18.77,6.91l.1-2.03c.26-5.23.59-11.74.97-16.76l.04-.59h-1.88l-.12.39c-2.02,6.75-4.21,13.09-6.34,19.22l-.86,2.5c-7.48,2.46-14.98,4.72-22.3,6.74l18.12-40.37Z"/>
  </g>
</svg>