<?xml version="1.0" encoding="UTF-8"?>
<svg id="Layer_1" data-name="Layer 1" xmlns="http://www.w3.org/2000/svg" viewBox="0 0 316 563">
  <defs>
    <style>
      .cls-1 {
        fill: #d8ff77;
      }
    </style>
  </defs>
  <path class="cls-1" d="M24.83,0h-1.78c-2.94,3.88-5.66,7.6-8.1,10.97-5.15,7.22-10.11,14.56-14.95,21.98v2.44C7.85,23.29,16.02,11.4,24.83,0Z"/>
  <path class="cls-1" d="M124.43,27.1c10.76,11.11,22.55,21.42,35.92,29.32,46.01,28.11,106.37-15.54,147.49-56.41h-13.61c-33.68,35.42-81.4,72.86-123.43,59.19-1.09-.4-2.2-.78-3.28-1.21l-3.21-1.4s-3.12-1.61-3.12-1.61c-13.33-7.69-24.85-18.06-35.56-29.05-7.91-8.05-15.33-16.61-23.73-24.17-.67-.59-1.35-1.18-2.05-1.76h-2.72c1.71,1.35,3.36,2.79,4.93,4.23,7.84,7.22,14.88,15.27,22.37,22.87Z"/>
  <path class="cls-1" d="M37.1,0h-2.22C22.03,14.5,10.71,30.23,0,46.36v2.94C11.33,32.09,23.32,15.3,37.1,0Z"/>
  <path class="cls-1" d="M14.23,0h-1.37C8.34,6.6,4.02,13.22,0,19.55v1.96C4.41,14.58,9.2,7.27,14.23,0Z"/>
  <path class="cls-1" d="M4.82,0h-.96C2.56,2.03,1.28,4.07,0,6.11v1.48C1.56,5.1,3.17,2.57,4.82,0Z"/>
  <path class="cls-1" d="M34.46,17.75c5.46-5.93,11.87-12.57,18.98-17.75h-2.95c-1.62,1.25-3.19,2.56-4.71,3.88-11.58,10.32-21.39,22.46-30.7,34.78-5.19,6.93-10.19,14-15.07,21.15v3.39c10.62-15.81,21.82-31.22,34.46-45.46Z"/>
  <path class="cls-1" d="M58.99,90.23c13.47-5.52,24.65-2.4,36.14,5.73,11.16,8.06,20.61,18.15,30.85,27.36,11.22,10.33,23.34,19.8,36.64,27.34,48.34,27.15,112.17-14.21,153.83-51.69v-12.74c-1.87,1.92-3.75,3.82-5.66,5.71-29.23,28.52-71.47,62.18-113.66,64.43-19.77.84-33.84-5.3-49.34-17-47.54-34.86-64.24-86.83-122.7-27.41-8.93,9.09-17.19,18.8-25.08,28.8v6c16.87-22.37,38.81-48.22,58.99-56.52Z"/>
  <path class="cls-1" d="M69.67,39.67c7.83-1.37,15.76,1.2,22.32,5.43,8.68,5.61,15.95,13.11,23.29,20.36,13.04,13.14,26.53,26.14,42.44,35.8,49.4,33.16,116.43-14.94,158.71-56.2v-14.52c-1.91,2.15-3.84,4.28-5.79,6.4-33.57,36.03-97.29,92.7-149.17,64.8-13.02-7.43-24.41-17.33-35.11-27.77-10.02-9.64-19.15-20.27-30.39-28.58-7.71-5.7-16.91-9.46-26.64-7.87-17.59,2.84-33.46,19.39-44.99,32.09-2.14,2.43-4.73,5.44-6.8,7.93-6.09,7.38-11.91,14.96-17.55,22.68v4.73c7.59-10.66,15.5-21.1,23.98-31.07,11.34-13.01,28.08-31.32,45.69-34.22Z"/>
  <path class="cls-1" d="M28.94,127.35c9.2-8.88,19.31-17.61,31.5-21.93,10.97-3.67,20.39-1.91,30.2,3.88,13.3,8.17,23.92,19.81,35.63,30.05,11.22,10.14,23.31,19.43,36.5,26.89,48.17,26.95,111.81-12.67,153.68-49.29v-12.18c-1.86,1.85-3.73,3.68-5.62,5.49-31.59,29.9-81.13,67.65-126.99,61.15-13.75-1.87-24.85-8.16-35.82-16.32-14.49-10.5-26.91-23.36-40.1-35.43-9.4-8.39-19.94-17.15-32.92-18.67-17.07-1.94-32.64,9.72-44.7,20.46-10.99,10.1-20.91,21.24-30.29,32.83v6.37c9.01-11.65,18.49-22.93,28.94-33.31Z"/>
  <path class="cls-1" d="M26.97,99.86c2.24-2.38,4.75-4.99,7.11-7.24,8.62-8.22,18.16-16.21,29.66-19.84.79-.19,1.59-.44,2.39-.62l1.61-.3c.89-.19,1.95-.25,2.84-.37l.41-.02s1.64-.07,1.64-.07c.82,0,1.64.04,2.45.08l.81.09s.81.09.81.09c11.48,1.6,20.77,9.41,29.19,16.91,16.61,15.43,32.48,32.21,52.15,43.89,49.08,32.53,115.7-11.95,158.39-51.45v-13.33c-1.88,2-3.78,3.97-5.7,5.93-24.67,24.81-54.15,49.41-87.37,61.43-20.98,7.66-45.16,8.45-64.6-3.77-11.59-7.12-22.02-15.91-31.87-25.27-9.95-9.31-19.19-19.54-30.16-27.78-7.56-5.58-16.25-9.77-25.9-9.18-16.7.94-32.38,14.98-43.66,26.32-9.74,10.03-18.68,20.79-27.19,31.87v5.57c8.45-11.41,17.31-22.52,26.97-32.94Z"/>
  <path class="cls-1" d="M17.66,95.94c11.22-13.48,26.78-30.97,43.06-37.83.73-.35,2.42-.91,3.13-1.17.71-.24,1.71-.47,2.4-.68.27-.08.54-.12.81-.18,0,0,1.63-.33,1.63-.33.92-.1,1.43-.21,2.46-.3.68-.03,1.36-.08,2.06-.1h.41s1.65.05,1.65.05c2.18.17,4.41.55,6.51,1.17,7.01,2.12,13.15,6.45,18.71,11.1,5.25,4.4,10.13,9.21,15.04,14,14.64,14.58,30.08,28.72,48.32,38.71,6.13,3.25,12.93,5.59,19.78,6.69,44.67,7.34,96.73-29.76,132.79-64.05v-13.93c-14.09,15.49-29.42,29.89-46.02,42.63-27.52,20.75-64.33,41.65-99.54,29.75-4.28-1.47-8.35-3.46-12.25-5.84-11.67-7.2-22.14-16.13-32-25.65-10.41-9.86-19.95-20.83-31.69-29.2-6.83-4.74-14.6-8.13-23.08-7.67-16.29.74-31.6,14.49-42.54,25.57-10.6,10.96-20.2,22.81-29.33,35.02v5.17c5.68-7.81,11.53-15.49,17.66-22.95Z"/>
  <path class="cls-1" d="M51.31,551.84c13.11,1.99,25.67,5.83,37.88,10.73h13.23c-30.86-16.83-60.02-26.04-102.42-22.74v13.11c17.02-2.73,34.21-3.68,51.31-1.1Z"/>
  <path class="cls-1" d="M70.61,296.69c4.83.84,9.55,2.47,14.02,4.46,16.52,7.69,30.64,19.69,45.55,30.1,11.85,8.43,24.1,16.42,36.97,23.22,24.01,11.93,51.87,12.1,77.65,6.61,25.2-5.4,49.19-15.47,71.63-28.06v-6.36c-15.57,9.6-32.04,17.76-49.17,24.14-31.55,11.68-68.12,17.27-99.67,2.75l-.68-.33s-2.74-1.33-2.74-1.33c-1.03-.58-2.97-1.58-4-2.21-10.01-6.06-19.49-12.96-28.77-20.08-15.11-11.38-29.24-24.46-46.45-32.81-13.7-6.52-27.37-7.61-41.9-3.2-8.07,2.42-15.67,6.18-22.87,10.48-7.03,4.23-13.73,8.97-20.19,14.03v9.92c1.86-1.65,3.75-3.28,5.65-4.88,17.77-14.69,40.74-30.93,64.97-26.44Z"/>
  <path class="cls-1" d="M209.71,0h-37.4c11.94,3.87,24.58,3.46,37.4,0Z"/>
  <path class="cls-1" d="M38.44,557.69c-10.59-1.76-21.33-2.63-32.07-2.94-2.12-.06-4.25-.1-6.37-.12v7.93h59.61c-6.9-2.06-13.95-3.72-21.17-4.87Z"/>
  <path class="cls-1" d="M5.49,525.34c-1.83.19-3.66.4-5.49.63v12.73c24.22-5.08,49.23-5.87,73.04,1.85,17.26,5.48,33.52,13.45,49.49,22.02h6.27c-17.09-10.91-34.47-21.34-53.4-28.83-22.04-8.74-46.42-10.98-69.9-8.4Z"/>
  <path class="cls-1" d="M159.8,551.39c-21.2-13.29-41.53-27.89-63.48-39.99-21.72-11.92-43.09-18.48-68.12-17.25-9.53.43-18.93,1.89-28.2,3.96v12.35c2.39-.75,4.78-1.46,7.19-2.11,25.12-7.07,49.14-7,73.66,2.39,3.39,1.22,7.19,2.82,10.49,4.28,23.5,10.67,45.52,24.53,68.25,36.76,7.2,4.27,14.72,7.84,22.47,10.8h1.52c-2.84-1.02-5.66-2.12-8.44-3.31-5.24-2.34-10.47-4.78-15.33-7.87Z"/>
  <path class="cls-1" d="M0,511.99v12.6c2.39-.63,4.79-1.22,7.19-1.76,14.44-3.28,29.28-4.76,44.01-3.08,22.53,2.39,43.43,12.24,63.3,22.76,12.24,6.5,24.32,13.35,36.47,20.05h1.93c-5.7-3.66-11.32-7.46-17.04-11.07-49.76-32.74-80.68-49.2-135.87-39.5Z"/>
  <path class="cls-1" d="M169.12,11.92c-.96-.3-2.41-.92-3.33-1.32-1.11-.4-3.78-1.84-4.85-2.37-4.29-2.48-8.35-5.24-12.25-8.23h-2.73c5.69,4.52,11.71,8.6,18.12,12.05,1.28.62,2.89,1.47,4.22,1.97,23.94,9.98,51.03,1.92,76.95-14.01h-11.66c-21.16,12.82-43.55,19.34-64.47,11.92Z"/>
  <path class="cls-1" d="M164.2,25.44c-6.45-3.14-12.36-7.41-17.99-11.83-5.36-4.19-10.32-8.8-15.1-13.61h-2.32c9.58,9.74,20.68,19.51,34.54,27.15,32.46,17.35,71.47-.45,105.68-27.15h-12c-28.97,23.4-62.67,39.58-92.8,25.44Z"/>
  <path class="cls-1" d="M265.43,538.97c-36.04,3.5-74.56.14-106.12-18.95-14.69-9.26-28.97-19.17-43.51-28.68-13.1-8.49-26.46-16.75-41.3-22.1-21.47-7.96-43.14-7.35-65.1-1.67-3.13.82-6.27,1.73-9.4,2.72v11.96c4.08-1.67,8.19-3.22,12.33-4.59,12.3-4,25.27-6.53,38.23-5.95,22.83.93,43.75,11.68,63.32,22.8,15.88,9.07,31.62,18.61,47.71,27.36,44.34,25.9,104.95,23.09,154.86,9.61v-2.21c-16.68,4.68-33.77,7.98-51.01,9.7Z"/>
  <path class="cls-1" d="M174.93,543.58c-4.39-1.92-8.75-3.99-12.91-6.37-22.19-13.63-43.1-29.2-65.88-41.91-1.75-.99-4.02-2.14-5.81-3.09-1.26-.61-3.32-1.62-4.62-2.26-3.05-1.42-6.35-2.83-9.5-4.06-12.97-4.99-27.08-7.59-41.05-7.18-1.18,0-3.24.13-4.5.21-.82.05-2.21.11-3,.2-9.39.79-18.6,2.62-27.65,5.07v12.1c24.45-8.84,49.62-12.52,75.36-3.7,4.19,1.33,8.51,3.04,12.56,4.74,24.75,10.99,47.57,25.98,71.4,38.79,1.67.9,3.41,1.88,5.05,2.81,27.17,14.93,58.8,19.61,89.48,18.97,21.07-.57,42.1-3.34,62.59-8.32v-1.94c-45.73,11.29-97.58,14.5-141.52-4.05Z"/>
  <path class="cls-1" d="M163.4,42.68c1.36.67,2.71,1.4,4.11,2,.61.25,1.88.79,2.54,1.06,37.86,14.46,83.06-13.19,119.29-45.74h-12.79c-30.67,28.98-70.02,55.08-105.74,43.63-1.11-.42-2.16-.74-3.31-1.21-1.08-.47-2.16-.93-3.24-1.41,0,0-3.15-1.62-3.15-1.62-13.44-7.78-25-18.31-35.72-29.48-3.15-3.25-6.21-6.59-9.29-9.91h-2.26c.17.19.35.37.53.56,14.55,15.93,29.94,31.64,49.04,42.12Z"/>
  <path class="cls-1" d="M173.87,465.22c-5.41-2.24-10.7-4.84-15.64-7.99-8.28-5.23-16.37-10.74-24.38-16.37-19.52-13.37-38.14-28.87-61.03-36.35-24.66-8.16-50.3-.94-72.82,10.19v11.3c15.03-8.93,31.4-16.56,48.93-17.89,23.31-1.99,44.58,10.12,63.81,22.06,20.01,12.31,39.5,25.77,60.83,35.78,43.55,18.7,98.13,10.24,142.88-6.69v-3.63c-44.33,17.52-97.29,27.79-142.57,9.59Z"/>
  <path class="cls-1" d="M311.01,275.06c-36.27,24.27-85,47.48-129.41,36.68-8.24-2.11-16.24-5.41-23.46-9.93-9.69-6.05-18.86-12.89-27.77-20.04-9.76-7.79-19.16-16.09-29.28-23.49-10.26-7.5-22.04-14.08-35.04-14.72-23.2-1.18-46.82,15.92-66.04,33.36v9.17c7.05-7.03,14.4-13.75,22.22-19.85,9.63-7.42,20.06-14.06,31.86-17.07,12.1-3.1,23.87-.61,34.7,5.27,14.58,7.91,27.06,19.05,40.36,28.9,9.92,7.55,20.39,14.62,31.18,20.9,6.5,3.9,13.56,7,20.84,9.1,43.5,12.41,95.94-9.11,135.28-34.42v-7.64c-1.8,1.27-3.61,2.53-5.44,3.77Z"/>
  <path class="cls-1" d="M157.44,254.78c-17.17-10.73-32.12-24.38-47.5-37.48-7.42-6.19-15.09-12.28-23.87-16.53-8.19-3.92-16.79-5.63-25.83-4.31-21.03,3.15-42.64,21.49-60.24,39.46v8.34c6.66-7.32,13.57-14.39,20.88-20.98,10.84-9.51,22.78-18.76,36.96-22.38,8.74-2.12,17.18-1.26,25.44,2.22l1.43.61,1.41.66.7.33s.69.36.69.36c7.47,3.83,14.23,8.98,20.82,14.2,13.23,10.67,26.17,21.94,40.43,31.3,5.36,3.5,10.8,6.94,16.46,9.94,9.54,5,20.13,7.81,30.86,8.74,40.48,3.29,85.59-19.27,120.36-44.35v-9.06c-42.05,33.59-108.22,70.84-159,38.94Z"/>
  <path class="cls-1" d="M196.17,282.6c-13.58-.8-26.98-4.84-38.5-12.14-6.23-3.93-12.27-8.21-18.11-12.69-13.9-10.55-26.45-22.75-40.57-33.07-3.04-2.17-6.22-4.26-9.5-6.06-4.28-2.37-8.85-4.33-13.61-5.49,0,0-1.61-.38-1.61-.38-.51-.09-1.98-.37-2.44-.44-1.62-.22-3.31-.39-4.95-.45-23.11-.66-44.82,17.37-61.04,32.14-1.27,1.21-3.43,3.19-4.64,4.4-.4.39-.8.78-1.2,1.17v8.62c1.77-1.89,3.56-3.76,5.37-5.6,2.1-2.14,4.51-4.56,6.69-6.62,15.5-14.64,37.29-33.15,60.02-29.82,9.21,1.29,17.59,5.85,25.2,10.99,14.3,9.89,27.17,21.75,41.31,31.91,8.58,6.2,17.49,12.02,26.82,17.03,5.67,2.96,11.73,5.19,17.94,6.69,43.49,10.55,94.84-13.29,133.09-39.89v-8.62c-33.81,26.12-78.41,50.56-120.27,48.32Z"/>
  <path class="cls-1" d="M159.78,225.11c-18.61-11.11-34.28-26.12-50.53-40.32-4.94-4.25-10.05-8.43-15.56-11.97-3.71-2.4-7.67-4.5-11.83-6.03-2.88-1.05-5.95-1.81-8.99-2.21-1.91-.21-4-.36-5.92-.27-.25,0-1.05.03-1.27.04-.36.03-1.69.15-2.11.19-13.85,1.67-26.12,9.79-36.76,18.33-9.6,7.87-18.43,16.61-26.82,25.75v7.77c7.1-8.28,14.5-16.29,22.41-23.78,8.66-8.12,18.1-15.84,28.92-20.85,17.58-7.87,31.12-3.72,46.17,7,10.5,7.55,19.96,16.43,29.97,24.65,11.23,9.38,23.17,17.98,35.93,25.17,10.08,5.56,21.41,8.61,32.91,9.3,40.5,2.41,85.81-22.46,120.12-48.98v-10.09c-40.95,35.43-106.03,75.73-156.66,46.3Z"/>
  <path class="cls-1" d="M268.11,282.02c-33.81,16.18-76.58,25.45-110.21,4.11-2.63-1.65-5.3-3.41-7.86-5.18-13.86-9.46-26.42-20.54-39.37-31.21-6.52-5.31-13.21-10.52-20.68-14.75-7.55-4.26-16.02-7.23-24.77-7.3-21.2-.33-41.34,14.71-56.76,27.91-2.75,2.4-5.76,5.08-8.46,7.63v8.92c1.14-1.17,2.28-2.34,3.43-3.5,3.19-3.23,6.77-6.6,10.11-9.69,13.95-12.47,32.18-26.88,51.67-27.16,16.82-.21,30.91,10.26,43.78,20.04,14.05,10.93,27.84,22.41,43,31.85,5.18,3.17,10.95,6.85,16.46,9.38,8.62,4.07,17.99,6.47,27.45,7.52,40.13,4.21,85.33-16.11,120.53-39.68v-8.1c-15.14,11.24-31.3,21.13-48.33,29.2Z"/>
  <path class="cls-1" d="M171.49,246.23c-8.02-2.93-15.31-7.56-22.26-12.48-7-4.92-13.69-10.26-20.21-15.81-15.47-12.67-33.16-32.25-52.93-36.78-13.2-3.18-26.89,1.58-38.06,8.52-14.2,9-26.53,20.39-38.03,32.57v8.07c12.08-13.82,25.01-26.9,40.27-37.07,8.86-5.72,19.1-10.1,29.79-9.52,14.67.88,26.86,10.35,37.95,19.22,13.24,10.87,26.15,22.38,40.47,31.89,3.45,2.35,7.34,4.71,10.92,6.88,3.67,2.25,7.54,4.29,11.52,5.95,46.32,19.16,104.49-10.14,145.52-40.79v-9.56c-37.85,31.4-95.84,66.84-144.95,48.9Z"/>
  <path class="cls-1" d="M291.43,38.56c-31.16,29.79-82.02,70.03-126.99,49.17-1.15-.58-2.31-1.18-3.45-1.78-.87-.51-1.76-1.02-2.62-1.55-15.86-9.81-29.17-23.04-42.06-36.4-7.18-7.3-14.31-14.82-22.9-20.53-7.53-4.92-15.81-7.47-24.8-5.6-9.95,2.07-18.5,8.25-26.06,14.76-2.94,2.56-6.22,5.71-8.92,8.51C21.29,58.05,10.34,72.17,0,86.73v4.31c8.16-11.69,16.69-23.13,25.9-34.01,3.34-3.93,6.93-7.9,10.54-11.58,8.96-9.05,21.29-19.96,34.24-21.86,8.07-1.3,15.77,1.49,22.4,5.98,11.97,8.24,21.41,19.58,31.83,29.62,10.38,10.27,21.59,19.89,34.17,27.42,1.48.95,3.05,1.81,4.57,2.69l3.18,1.59c1.08.48,2.18.93,3.27,1.4,47.87,18.69,107.49-26.29,146.34-65.18v-15.12c-7.93,9.23-16.29,18.1-25.01,26.58Z"/>
  <path class="cls-1" d="M310.76,0c-34.66,39.66-95.83,95.83-146.39,72.16-6.28-3.08-12.07-7.17-17.62-11.41-14.98-11.42-27.22-25.87-40.65-38.99-5.15-4.9-10.63-9.68-17.02-12.92,0,0-1.63-.79-1.63-.79-.28-.12-1.85-.76-2.1-.86-.66-.21-1.51-.51-2.16-.71-1.45-.4-2.97-.72-4.46-.93,0,0-1.82-.16-1.82-.16-.87-.06-1.86-.04-2.74-.04-.66.04-1.62.13-2.27.17-.35.05-1.85.3-2.25.35-.89.2-1.77.4-2.65.63-.81.28-1.79.53-2.59.84-.94.38-2.45.93-3.33,1.39-8.65,4.05-16.02,10.38-22.79,17-3.25,3.22-6.72,6.9-9.72,10.34C18.32,47.89,8.94,60.42,0,73.27v3.86c10.05-14.7,20.63-29.02,32.47-42.32,3.84-4.27,8.05-8.62,12.35-12.44,6.05-5.39,12.65-10.35,20.27-13.22,1.06-.36,2.19-.75,3.28-1.01.56-.13,1.11-.28,1.67-.39,0,0,1.69-.27,1.69-.27.73-.13,1.82-.16,2.55-.24.82,0,1.74-.03,2.55.03,0,0,1.7.15,1.7.15,1.96.27,3.93.72,5.8,1.39l.41.13.4.16s1.59.65,1.59.65c2.04.92,4.16,2.11,6.04,3.33,8.27,5.54,15.13,12.85,22.06,19.95,11.41,11.9,23.06,23.78,36.7,33.19,3.86,2.67,7.97,5.21,12.06,7.55l3.21,1.6c1.09.49,2.2.94,3.3,1.41,47.93,18.6,107.7-27.94,146.37-67.62V0h-5.68Z"/>
  <path class="cls-1" d="M310.91,165.22c-30.22,25.71-70.4,52.73-111.14,54.26-19.93.53-35.2-5.44-51.04-17.2-17.93-12.52-32.72-28.77-50.02-42.09-3.54-2.64-7.29-5.1-11.25-7.09-12.99-6.7-26.2-5.87-39.1.55-11.93,5.92-22.16,14.71-31.7,23.88-5.78,5.61-11.3,11.47-16.65,17.49v7.42c10.41-12.53,21.46-24.52,34.01-34.9,11.27-9.07,25.15-17.71,40.18-15.6,4.7.61,9.21,2.29,13.43,4.43,3.33,1.73,6.49,3.73,9.54,5.93,10.57,7.64,19.99,16.71,30.01,25.09,11.66,9.89,24.07,19.04,37.53,26.36,47.55,24.83,109.57-9.2,151.75-42.86v-10.55c-1.83,1.64-3.67,3.27-5.53,4.87Z"/>
  <path class="cls-1" d="M183.79,187.06c-13.57-1.96-24.67-8.2-35.55-16.23-10.74-7.78-20.54-16.77-30.21-25.84-6.51-6.07-12.96-12.2-20.11-17.56-5.18-3.84-10.9-7.3-17.15-9.21-.59-.16-1.5-.41-2.08-.57-.38-.09-1.65-.34-2.11-.44-.84-.15-1.71-.24-2.57-.37-6.04-.62-12.13.43-17.78,2.57-.48.19-1.94.78-2.38.96-1.78.8-3.63,1.69-5.35,2.64-10.32,5.77-19.27,13.63-27.63,21.9-7.32,7.3-14.22,15.02-20.86,22.96v6.74c15.79-19.97,35.5-42.05,54.38-51.03,5.76-2.72,12.17-4.41,18.57-3.97l.79.04s.79.1.79.1c1.02.09,2.55.38,3.54.58,2.47.59,4.9,1.39,7.21,2.44,11.98,5.51,21.6,15.02,31.37,23.71,14.28,13.16,29.24,25.81,46.26,35.34,48.03,26.74,111.43-11.13,153.53-46.89v-11.68c-34.38,33.16-86.41,70.86-132.66,63.8Z"/>
  <path class="cls-1" d="M196.67,203.72c-12.99.09-26.07-3.17-37.25-9.91-11.26-6.8-21.52-15.09-31.34-23.83-10.31-9.07-19.97-19.03-31.13-27.16-3.18-2.3-6.5-4.37-10.05-6.1-8.16-4.08-17.79-5.36-26.64-3-16.7,4.23-31.91,17.96-43.87,29.87-5.69,5.75-11.13,11.72-16.4,17.83v7.08c8.91-10.98,18.3-21.57,28.62-31.23,12.36-11.11,27.38-23.1,44.95-21.54,8.57.87,16.35,5.14,23.24,10.11,17.57,13.13,32.62,29.49,50.84,41.86,5.45,3.74,11.07,7.32,16.88,10.48,47.73,25,109.97-10.73,151.9-45.28v-11.11c-31.6,29.21-76.27,61.4-119.77,61.93Z"/>
  <path class="cls-1" d="M266.69,402.26c-28.85,8.43-60.55,11.88-89.44,1.87-.7-.25-2.11-.77-2.81-1.01-1-.41-2.47-.99-3.46-1.4-.43-.19-2.92-1.31-3.41-1.53,0,0-2.68-1.33-2.68-1.33-3.52-1.75-7-3.96-10.3-6.1-14.3-9.23-27.7-19.66-41.35-29.81-11.37-8.34-23.23-16.76-36.76-21.39-27.05-9.38-53.53,2.57-76.48,17.86v10.52c4.87-3.73,9.86-7.28,15.03-10.58,20.37-12.97,41.9-20.59,65.45-11.2,11.07,4.26,21.04,10.75,30.93,17.37,13.24,8.97,26.34,18.3,40.09,26.51,6.04,3.53,12.05,7.27,18.41,10.23.77.38,1.96.88,2.76,1.22,1.23.56,2.94,1.2,4.2,1.69,36.87,13.6,77.82,6.04,113.74-7.07,8.76-3.27,17.4-6.9,25.83-10.96v-5.18c-15.89,8.32-32.56,15.18-49.75,20.28Z"/>
  <path class="cls-1" d="M196.19,456.15c-15.39-2.89-30.29-8.77-43.21-17.82-13.22-8.58-25.83-17.97-38.7-27.08-29.46-21.05-53.96-33.42-90.49-20.89-8.23,2.79-16.14,6.44-23.8,10.53v11.09c1.2-.76,2.4-1.52,3.6-2.26,16.8-10.26,35.92-19.02,56.03-17.61,11.45.75,22.39,4.85,32.55,10.09,13.86,7.22,26.87,16.23,40.1,24.61,10.37,6.67,20.97,12.95,31.72,18.98,1.25.65,2.68,1.46,3.94,2.05,5.27,2.61,10.89,4.85,16.5,6.61,41.61,12.84,90.95,3.41,131.99-13.23v-4c-37.65,15.99-79.47,26.22-120.25,18.94Z"/>
  <path class="cls-1" d="M162.76,428.83c-17.09-9.99-32.73-22.16-48.82-33.67-9.72-6.93-19.73-13.82-30.71-18.79-27.83-12.91-53.78-5.54-79.41,8.51-1.28.71-2.55,1.43-3.82,2.17v10.92c17.48-11.89,37.63-22.8,59.13-21.95,11.52.42,22.56,4.49,32.73,9.81,20.84,11.17,39.78,25.83,60.29,37.64,6.88,3.94,13.64,8.16,20.97,11.24,43.94,18.78,99.09,7.57,143.34-11.55v-4.37c-46.83,21.35-106.34,35.44-153.68,10.03Z"/>
  <path class="cls-1" d="M289.09,412.16c-36.18,13.24-77.42,20.64-114.46,6.61-4.1-1.61-8.27-3.49-12.12-5.62-10.32-5.96-20.02-12.96-29.69-19.91-12.96-9.36-25.38-19.38-39.23-27.55-23.74-14.24-45.74-15.26-71.08-4.33-7.82,3.34-15.29,7.4-22.51,11.87v10.73c4.99-3.62,10.11-7.05,15.41-10.2,20.78-12.38,42.19-18.6,65.49-9.18,10.98,4.31,20.96,10.65,30.86,17.15,13.25,8.79,26.36,17.93,40.07,26.04,6.78,3.93,13.83,8.31,21.06,11.34,43.94,18.82,99.63,6.18,143.56-13.97v-4.72c-8.91,4.38-18.05,8.28-27.35,11.74Z"/>
  <path class="cls-1" d="M153.58,469.77c-13.12-8.47-25.76-17.59-38.64-26.43-13.02-8.85-26.52-17.66-41.63-22.64-23.45-8.19-48.87-2.95-70.98,6.87-.78.34-1.55.68-2.32,1.02v11.43c5.48-3.02,11.07-5.79,16.84-8.21,21.9-9.32,43.25-10.98,65.49-1.7,17.93,7.35,34.08,18.41,50.62,28.46,10.8,6.68,21.76,13.09,32.9,19.19,1.67.9,3.55,1.81,5.26,2.61,43.72,20.18,99.49,13.05,145.33-3.06v-3.26c-51.33,18.8-115.54,27.92-162.87-4.27Z"/>
  <path class="cls-1" d="M310.87,494.32c-48.38,15.11-106.86,21.64-152.09-5.69-14.81-9.32-29.03-19.46-43.53-29.27-13.03-8.72-26.52-17.36-41.49-22.48-23.64-8.4-48.19-4.48-71.01,4.5-.92.35-1.83.72-2.74,1.09v11.55c65.04-32.93,91.88-2.55,153.39,32.27,3.38,1.93,6.8,3.77,10.17,5.72,10.21,5.71,21.27,9.81,32.64,12.52,38.37,8.99,82.05,3.24,120.24-9.16v-2.88c-1.85.63-3.71,1.24-5.58,1.84Z"/>
  <path class="cls-1" d="M311.01,293.36c-40.08,25.7-96.37,49.96-143.11,29.21-.75-.32-2.05-.99-2.78-1.32-.87-.37-3.26-1.73-4.09-2.16-17.81-10.53-33.52-24.01-49.64-36.92-10.26-8.08-20.91-16.19-33.49-20.35-12.27-4.02-24.51-2.91-36.42,1.76-13.41,5.28-25.04,13.63-36.13,22.57-1.55,1.29-3.69,3.06-5.36,4.5v9.43c2.79-2.67,5.62-5.29,8.5-7.85,16.83-14.68,38.82-31.59,62.42-27.8,10.5,1.66,19.96,6.96,28.73,12.83,17.85,12.27,34.34,26.6,52.94,37.84,6.07,3.68,12.54,7.73,19.11,10.43,7.65,3.25,15.87,5.34,24.11,6.43,39.83,5.06,84.99-12.99,120.65-35v-7.19c-1.8,1.22-3.61,2.41-5.43,3.6Z"/>
  <path class="cls-1" d="M289.73,323.6c-34.85,17.51-76.92,30.63-115.26,17.19-1.11-.44-2.46-.92-3.57-1.37-3.7-1.54-7.51-3.38-10.97-5.43-10.07-6.11-19.58-13.09-28.88-20.32-16.4-12.42-31.55-27.34-51.02-35.05-6.26-2.35-12.97-3.62-19.67-3.48-21.23.57-42.44,14.39-60.37,29.23v9.67c10.27-9.53,21.17-18.39,33.35-25.29,19.5-10.85,36.39-12.15,56.25-1.39,14.28,7.79,26.98,18.45,40.23,27.94,8.32,6.04,16.83,11.84,25.68,17.09,1.56.93,3.72,2.2,5.31,3.14,4.2,2.52,8.65,4.64,13.19,6.48,38.6,14.82,81.86,2.74,117.85-14.03,8.36-3.97,16.58-8.27,24.58-12.95v-6.79c-8.63,5.58-17.56,10.7-26.71,15.37Z"/>
  <path class="cls-1" d="M289.46,359.04c-39.34,17.71-87.83,29.08-127.71,7.06-17.48-10.26-33.17-23.14-49.25-35.42-11.03-8.33-22.45-16.69-35.74-21.11-19.61-6.6-38.65-1.01-56.04,8.73-5.43,3-10.65,6.38-15.73,9.93-1.68,1.19-3.35,2.4-5,3.63v10.12c3.1-2.62,6.25-5.18,9.47-7.65,17.81-13.59,39.99-26.67,63.12-21.07,10.16,2.34,19.38,7.47,28.12,13.08,10.18,6.59,19.86,13.91,29.83,20.85,9.95,7.02,20.23,13.57,30.81,19.61,39.9,23.38,89.48,13.18,129.88-3.72,8.57-3.63,17-7.61,25.21-12v-5.97c-8.74,5.11-17.76,9.74-26.98,13.93Z"/>
  <path class="cls-1" d="M161.51,505.84c-15.67-9.66-30.64-20.31-45.98-30.49-13.08-8.62-26.44-17.01-41.38-22.31-24.33-9.04-50.31-5.36-74.15,3.27v11.79c22.67-10.5,47.65-16.5,72.21-8.99,14.61,4.23,28.21,11.7,41.4,19.33,15.03,8.77,29.88,17.96,45.15,26.36,31.85,19.36,70.59,22.98,107.01,18.9,17.13-1.95,34.13-5.33,50.67-10.24v-2.65c-49.49,15.32-109.02,20.87-154.93-4.98Z"/>
  <path class="cls-1" d="M289.34,376.76c-25.67,10.81-53.35,18.44-81.4,17.34-19.13-.74-37.78-6.18-53.65-17.05-14.37-9.31-27.77-19.91-41.43-30.22-13.02-9.67-26.84-19.64-43.06-23.11-24.8-5.21-49.01,7.2-69.81,21.93v10.31c7.81-6.31,15.96-12.18,24.64-17.15,34.3-19.56,56.25-10.54,86.43,10.52,18.15,12.66,36.26,25.65,55.88,36.01,12.69,6.37,26.74,9.8,40.89,10.74,35.8,2.4,75.46-10.04,108.61-27.01v-5.53c-8.8,4.87-17.86,9.26-27.1,13.2Z"/>
</svg>