<?xml version="1.0" encoding="UTF-8"?>
<svg id="Layer_1" data-name="Layer 1" xmlns="http://www.w3.org/2000/svg" viewBox="0 0 316 563">
  <defs>
    <style>
      .cls-1 {
        fill: #f8f7ec;
      }
    </style>
  </defs>
  <path class="cls-1" d="M2.38,14C1.59,15.38.8,16.76,0,18.14v9.77c2.28-3.76,4.56-7.52,6.83-11.29C10.23,11.1,13.34,5.56,16.16,0h-6.18c-2.28,4.58-4.81,9.25-7.6,14Z"/>
  <path class="cls-1" d="M62.32,23.74c-3.24,6.58-7.51,13.94-11.18,20.29C33.81,73.99,16.05,103.84,0,134.56v4.66c18.99-35.19,40.66-69.21,60.77-103.06C67.56,24.64,73.48,12.51,77.96,0h-5.52c-2.83,8.12-6.26,16.07-10.12,23.74Z"/>
  <path class="cls-1" d="M14.89,20.96C9.98,29.5,4.99,38.07,0,46.66v8.38c7.78-12.82,15.6-25.62,23.25-38.48C26.44,11.05,29.34,5.53,31.94,0h-6.06c-3.3,7.18-7.03,14.18-10.99,20.96Z"/>
  <path class="cls-1" d="M0,.27C.05.18.1.09.15,0H0v.27Z"/>
  <path class="cls-1" d="M127.57,111.77C72.72,207.31,13,307.99,45.03,421.97c.85,3.35,2.15,7.3,3.16,10.61,1.03,3.31,3.02,8.91,4.24,12.19,1.03,2.6,2.31,6.01,3.37,8.58,1.03,2.43,2.62,6.05,3.64,8.47,1.07,2.21,3.62,7.82,4.73,10,1.23,2.39,2.94,5.8,4.19,8.21,2.57,4.7,6.26,11.44,9.09,16.03,2.17,3.79,5.45,8.68,7.8,12.5,1.23,1.87,5.04,7.43,6.17,9.17,1.71,2.43,5.2,7.24,6.96,9.74,1.09,1.46,2.74,3.61,3.89,5.14,2.58,3.52,6.27,8.1,9.06,11.6,1.15,1.47,3.45,4.26,4.66,5.69,3.5,4.22,7.35,8.71,11.22,13.09h7.2c-2.95-3.21-5.98-6.59-8.58-9.48-2.23-2.6-6.07-7.04-8.31-9.67-2.07-2.51-6-7.37-8.06-9.88-2.04-2.63-4.64-6.01-6.68-8.64-2.05-2.72-5.52-7.51-7.54-10.28l-2.07-3s-4.13-6-4.13-6c-1.67-2.6-4.17-6.39-5.94-9.16-.65-1.03-1.26-2.07-1.9-3.11,0,0-3.77-6.23-3.77-6.23-1.44-2.58-3.87-6.79-5.37-9.51-1.24-2.39-2.97-5.65-4.22-8.06l-.42-.81-.4-.82-3.16-6.55-.79-1.64s-.74-1.66-.74-1.66c-1.08-2.52-2.62-5.77-3.65-8.33-.76-1.88-1.96-4.87-2.72-6.75-.91-2.33-2.93-7.88-3.75-10.25-1.23-3.83-2.74-8.27-3.79-12.16-.6-2.16-1.42-4.79-1.92-7.02-31.07-119.84,38.94-227.9,98.23-326.08C162.51,60.07,175.05,30.5,179.63,0h-4.34c-1.52,11.4-4.2,22.75-8,33.94-8.53,26.82-25.72,53.5-39.71,77.83Z"/>
  <path class="cls-1" d="M25.93,181.86c12.82-25.98,27.33-51.13,42.19-75.98,8.82-14.75,18.47-30.56,27.35-45.34C107.09,41.7,116.85,21.52,122.41,0h-5.04c-5.11,20.72-14.25,40.31-25.11,58.64-8.61,14.92-17.99,30.92-26.55,45.83-16.06,27.85-31.47,56.2-44.96,85.4C12.65,207.1,5.65,224.27,0,241.44v5.5c6.77-22.22,15.69-43.97,25.93-65.07Z"/>
  <path class="cls-1" d="M83.39,107.82c5.01-8.3,18.45-30.56,23.25-38.54,7.85-12.83,15.29-26.16,20.95-40.13C131.47,19.75,134.62,9.97,136.88,0h-4.86c-2.01,9.36-4.84,18.58-8.37,27.58-6.93,18.29-17.7,36.01-27.52,52.91-29.08,50.05-58.9,100.99-79.15,155.36C9.02,257.59,3.22,279.26,0,300.98v21.21c1.99-32.23,9.97-63.8,21.71-94.58,15.9-42.14,38.64-81.25,61.69-119.78Z"/>
  <path class="cls-1" d="M45.48,207.57c3.94-8.78,8.42-18.3,12.86-26.81,19.1-36.9,42.07-73.65,63.45-109.34,2.52-4.19,5.13-8.63,7.5-12.93,0,0,3.52-6.62,3.52-6.62.29-.59,3.48-7.14,3.7-7.59,1.29-2.95,2.95-6.47,4.12-9.47C145.24,23.6,148.86,11.92,151.26,0h-4.71c-2.27,11.97-5.83,23.7-10.33,35.03-.95,2.3-2.26,5.35-3.23,7.64l-.39.84s-3.12,6.69-3.12,6.69c-1.96,3.9-4.74,9.29-6.9,13.07-21.85,38.34-45.74,77.42-65.33,116.94-19.03,37.6-35.62,77.06-43,118.77-10.5,58.9-.86,113.9,26.63,166.82,3.41,6.61,7.19,13.19,10.99,19.57,1.16,1.98,2.71,4.31,3.96,6.34,16.34,25.66,35.48,49.26,56.36,71.29h6.73c-42.43-43.24-78.84-93.22-95.95-150.1-21.46-70.84-7.14-139.34,22.51-205.32Z"/>
  <path class="cls-1" d="M37.76,101.67c14.21-24.41,29.9-48.03,43.25-72.97C85.67,19.47,89.76,9.87,92.96,0h-5.34c-2.88,9.12-6.58,18.13-10.68,26.67-3.31,6.73-7.13,13.68-10.91,20.17C45.52,82.41,24.33,117.68,5.93,154.44,3.94,158.43,1.96,162.51,0,166.63v3.52c11.53-23.38,24.45-46.09,37.76-68.48Z"/>
  <path class="cls-1" d="M68.35,563h4.8C46.53,539.75,21.69,514.55,0,486.7v4.54c1.44,1.83,3.61,4.59,3.61,4.59,19.66,24.23,41.5,46.45,64.74,67.17Z"/>
  <path class="cls-1" d="M0,542c8.5,7.2,17.15,14.2,25.88,21h2.62C18.85,555.5,9.33,547.8,0,539.86v2.15Z"/>
  <path class="cls-1" d="M89.25,43.26C97.02,29.42,103.42,14.92,107.74,0h-5.2c-4.48,16.05-11.39,31.6-19.68,46.23C53.74,97.02,22.82,147.3,0,201.34v3.5c3.84-9.34,7.98-18.56,12.35-27.63,22.67-46.3,50.85-89.54,76.9-133.96Z"/>
  <path class="cls-1" d="M62.82,0h-5.68c-1.79,4.67-3.78,9.25-5.92,13.72-1.24,2.67-3.02,6.05-4.33,8.68-3.17,5.86-7.22,12.92-10.58,18.69C24.16,62.1,11.79,83.06,0,104.33v5.91c14.26-24.8,29.36-49.12,44.13-73.64C51.28,24.91,57.78,12.76,62.82,0Z"/>
  <path class="cls-1" d="M21.57,38.01C14.38,50.39,7.14,62.78,0,75.22v7.15c12.49-20.89,25.31-41.6,37.61-62.55C41.19,13.39,44.51,6.78,47.45,0h-5.86c-2,4.74-4.18,9.4-6.53,13.96-3.09,6.24-10,17.97-13.49,24.05Z"/>
  <path class="cls-1" d="M21.27,563C14.12,557.57,7.02,552.02,0,546.33v1.75c6.27,5.08,12.59,10.05,18.92,14.92h2.35Z"/>
  <path class="cls-1" d="M0,552.55v1.42c3.93,3.04,7.88,6.05,11.86,9.03h1.84c-4.6-3.44-9.17-6.92-13.7-10.45Z"/>
  <path class="cls-1" d="M0,532.83v2.48c6.95,6.2,14.01,12.27,21.16,18.2,3.86,3.2,7.77,6.37,11.71,9.5h3.04C23.64,553.31,11.64,543.26,0,532.83Z"/>
  <path class="cls-1" d="M0,525.28v2.87c11.22,10.59,22.81,20.76,34.66,30.57,1.74,1.43,3.48,2.86,5.23,4.28h3.4C28.37,550.99,13.89,538.45,0,525.28Z"/>
  <path class="cls-1" d="M0,558.23v1.1c1.66,1.23,3.32,2.46,4.98,3.67h1.44c-2.15-1.58-4.29-3.17-6.42-4.77Z"/>
  <path class="cls-1" d="M70.41,452.24c-37.39-92.51-12.93-177.45,31.2-262.17,18.8-35.4,40.81-70.66,61.37-105.15.72-1.25,3.72-6.45,4.56-7.92,0,0,3.44-6.46,3.44-6.46C182.44,48.58,190.58,24.6,193.74,0h-4.23c-2.64,22.84-9.7,45.2-19.71,65.88-2.18,4.67-5.86,11.53-8.39,16.01-15.25,26.64-32.32,55.18-47.02,82.02-6.98,12.68-13.79,25.73-20.36,38.62-43.86,85.96-63.1,169.43-23.26,261.39,12.41,28.48,29.15,55.12,48.17,79.62,5.12,6.62,10.4,13.11,15.83,19.47h7.45c-11.39-12.79-22.18-26.11-32.19-40.04-15.75-21.92-29.51-45.65-39.61-70.73Z"/>
  <path class="cls-1" d="M316,563v-115.59c-6.17,25.95-9.34,51.99-10.1,78.29-.89-19.12-.37-38.29,1.96-57.38,1.78-14.64,4.55-28.99,8.14-43.09v-24.57c-1.62,4.54-3.17,9.11-4.64,13.71-11.99,36.68-16.56,74.94-15.9,113.27-3.31-37.2-1.1-74.79,8.49-111.08,3.4-13.04,7.47-25.84,12.06-38.43v-15.44c-21.82,50.62-34.45,102.64-31.12,163.94-.19-1.48-.38-2.95-.55-4.43-8.64-65.56,6.78-125.24,31.67-182.28v-10.61c-13.53,27.56-25.08,56-32.94,85.98-10.27,38.24-11.88,77.71-7.6,116.75-6.9-37.84-7.59-76.77.2-114.59,7.97-39.12,22.77-75.96,40.34-111.63v-7.3c-38.63,71.91-64.23,143.51-50.8,232.71-11.95-54.77-9.56-109.56,9.73-164.74,10.92-31.89,25.32-62.36,41.07-92.17v-4.89c-46.1,81.1-80.18,160.78-60.37,262.96-.66-2.52-1.3-5.05-1.91-7.59-26.44-104.37,13.68-192.9,62.28-280.67v-3.1c-52.19,88.62-95.57,177.51-71.17,285.78.71,3.36,1.47,6.71,2.28,10.05-38.58-121.87,7.46-213.32,68.89-321.91v-1.57c-65.5,109.18-113.08,200.28-78.41,323.59-19.43-54.48-23.14-112.17-7.43-168.63,15.3-56.76,44.29-108.66,72.92-159.61,3.81-6.72,8.31-14.34,12.92-22.1v-1.26c-67.69,115.03-132.54,214.42-87.12,353.41-35.89-90.29-25.46-170.8,25.71-270.54,16.05-31.87,34.56-64.4,52.97-95.07,2.68-4.54,5.57-9.35,8.44-14.23v-1.82c-.76,1.31-1.51,2.61-2.27,3.88-11.27,19.28-22.95,39.55-34.38,58.74-27.48,47.03-54.22,95.32-68.37,148.31-16.51,60.4-10.52,117.59,9.38,172.39-2.55-5.8-4.95-11.65-7.18-17.55-44.81-118.06-.31-212.12,57.47-314.89,4.6-8.26,15.71-26.86,20.74-35.35,7.6-12.78,17.25-28.56,24.6-43.02v-2.87c-7.49,15.38-17.33,31.8-25.32,45.46-6.91,11.78-13.67,23.66-20.63,35.42-59.2,99.95-105.79,193.55-66.51,311.4,2.61,7.98,5.53,15.86,8.71,23.65-17.66-36.69-29.39-76.49-30.14-117.36-1.96-78.52,35.12-150.82,72.37-217.68,13.23-23.53,29.15-48.95,42.57-72.46,7.44-13.38,13.76-27.22,18.95-41.42v-5.11c-5.26,15.59-11.93,30.93-20.08,45.91-80.16,141.35-164,248.98-92,409.38-6.37-12.2-12.11-24.73-16.95-37.56-32.1-82.69-17.56-160.02,19.66-237.98,19.29-41.34,43.13-81.36,66.61-120.5,3.28-5.49,7.31-12.28,10.46-17.85,16.42-29.04,27.09-60.23,32.31-92.28v-20.57c-3.04,38.51-13.88,76.49-33.56,112.16-1.5,2.65-3.44,6.18-5.07,8.98-12.75,21.87-27.16,46.68-39.74,68.55-39.01,67.03-76.66,140.43-73.46,220.17,1.39,41.36,13.69,81.52,31.79,118.56-4.68-8.31-9.08-16.79-13.06-25.37-7.5-16.01-13.65-32.71-18.23-49.79-13.49-49.47-9.93-102.01,5.99-150.51,17.1-52.7,44.21-101.48,72.36-148.95,13.47-23.13,29.99-48.06,40.45-72.61,1.66-3.79,3.7-8.9,5.22-12.88C299.16,58.14,304.64,29.16,305.55,0h-2.92c-.49,26.47-4.82,52.86-13.57,78.3-1.69,5-3.97,11.31-6,16.17-10.29,25.92-27.1,51.78-40.91,76.03-52.73,90.94-108.8,183.25-85.27,292.93,6.25,29.6,17.52,57.99,31.75,84.65-32.11-53.01-50.56-109.97-43.99-173.22,5.14-50.83,25.26-98.69,48.38-143.75,6.38-12.3,12.97-24.69,19.86-36.7,14.18-24.71,30.89-51.73,45.13-76.4,3.39-6.21,7.32-13.83,10.19-20.26C282.68,66.78,290.26,33.53,291.46,0h-2.98c-1.14,40.26-12.03,80.17-31.2,115.63l-.8,1.54s-.85,1.51-.85,1.51c-1.5,2.68-3.57,6.43-5.13,9.07-17.15,29.46-35.41,60.8-52,90.52-26.93,48.63-51.24,100.35-57.91,156.15-7.78,63.61,9.68,121.58,40.49,175.32-15.73-24.32-29.07-50.35-38.07-77.88-31.88-95.27,1.28-181.83,47.02-265.71,15.68-28.64,32.93-56.37,49.53-84.47C263.13,82.81,275.73,41.76,277.55,0h-3.3c-.73,23.83-4.94,47.55-12.87,70.23-11.8,35.52-33.32,66.5-51.44,98.95-46.44,80.56-95.52,166.37-81.52,263.04,5.87,42.83,23.16,83.21,45.75,119.86-110.35-160.29-41.23-281.66,49.57-431.38,2.81-4.68,6.25-10.52,8.86-15.23,1.51-2.85,3.53-6.51,4.92-9.38,12.73-25.25,21.47-52.63,24.82-80.78.63-5.09,1.07-10.19,1.34-15.3h-3.54c-1.3,33.01-9.84,66.06-26.14,98.24-1.05,2.04-2.56,4.93-3.63,7-2.39,4.32-5.74,10.27-8.24,14.5-17.69,30.31-35.45,60.89-52.3,91.69-28.05,51.35-52.58,106.65-56.08,165.88-3.96,64.88,18.54,123.65,53.6,176.9-26.23-35.94-47.58-75.98-57.23-119.6-18.51-81.86,10.1-157.79,47.99-229.35,19.35-36.49,41.94-71.16,62.32-107.07C238.06,66.4,247.57,33.21,249.54,0h-3.48c-1.8,33.83-11.66,67.22-27.65,97.12-17.67,31.99-36.94,63.12-54.35,95.27-42.43,75.68-76.94,154.59-58.44,243.19,9,43.88,29.67,84.42,55.24,120.97-6.19-8.03-12.13-16.26-17.78-24.69-4.37-6.45-9.17-14.27-13.11-20.98-1.9-3.46-3.2-5.56-5.17-9.26l-3.28-6.26-.82-1.56s-.77-1.59-.77-1.59c-17.4-34.67-28.17-73.05-28.61-112-1.13-63.28,23.6-123.49,52.54-178.61,6.08-11.54,12.61-22.87,19.17-34.15,15.34-26.81,32.23-52.7,46.99-79.86.99-1.87,2.21-4.46,3.19-6.41C225.82,55.47,233.58,28,235.69,0h-3.76c-1.85,28.8-9.79,57.17-22.62,83.26-.79,1.79-3.95,7.82-4.8,9.49-13.82,24.86-28.68,49.23-42.59,74.07-9.3,16.52-18.46,33.28-27.24,50.09-51.35,98.68-67.55,188.51-12.98,290.44,9.66,17.99,20.76,35.12,32.89,51.5-5.74-7.07-11.31-14.29-16.66-21.66-68.98-96.12-77.04-186.02-29.92-294.11,20.69-48.39,48.92-93.03,75.82-138.1,3.36-5.62,6.79-11.3,9.97-17.07,1.27-2.42,3-5.54,4.21-7.97,1.65-3.23,4.7-9.7,6.16-13.04C214.08,44.74,219.82,22.29,221.73,0h-3.88c-2.41,30.89-12.45,61.05-27.19,88.23-21.76,38.36-44.81,76.36-65.18,115.52-33.67,62.98-59.53,134.36-47.88,206.73,6.61,44.2,25.78,85.75,50.55,122.6,6.68,9.93,13.74,19.59,21.13,28.99-9.41-10.99-18.37-22.36-26.79-34.15-43.32-61.01-66.1-127.03-54.27-202.29,2.74-17.68,7.23-35.36,12.9-52.34,12.6-37.61,30.41-73.37,50.25-107.65,13.89-24.24,29.88-50.28,44.28-74.45C192.45,63.51,204.21,32.2,207.77,0h-4c-.31,3.14-.7,6.3-1.19,9.46-4.1,28.4-14.9,55.57-29.2,80.37-8.55,14.87-20.56,35.2-28.97,49.97-12.03,20.83-23.63,41.99-34.68,63.36-24.32,46.92-44.43,97.56-47.39,150.89-2.42,41.75,6.17,82.23,23.34,120.23,1.53,3.3,3.08,6.59,4.66,9.87,1.53,2.96,3.44,6.79,5,9.7l3.5,6.37s.88,1.59.88,1.59c1.35,2.35,3.23,5.44,4.61,7.83,1.73,2.94,4.89,7.86,6.72,10.8,2.23,3.34,4.81,7.27,7.09,10.56,7.65,11.01,15.76,21.66,24.26,32.01h173.62Z"/>
  <path class="cls-1" d="M0,498.03v4.04c18.78,21.84,39.42,42.03,61.18,60.93h4.46C42.2,542.96,20.05,521.46,0,498.03Z"/>
  <path class="cls-1" d="M37.21,551.61C24.41,540.61,11.94,529.14,0,517.12v3.26c14.87,14.97,30.59,29.12,46.89,42.62h3.86c-4.55-3.74-9.7-7.99-13.54-11.39Z"/>
  <path class="cls-1" d="M5.24,481.13l-2.28-3.13s-1.14-1.56-1.14-1.56c-.46-.66-1.1-1.6-1.82-2.65v5.07c.89,1.24,2.12,2.9,2.88,3.98,0,0,2.28,3.16,2.28,3.16,2.59,3.65,6.74,8.81,9.44,12.4,18.55,23.2,39.11,44.59,60.98,64.59h5.13c-27.74-24.8-53.42-51.8-75.48-81.87Z"/>
  <path class="cls-1" d="M44.86,442.94c-15.03-36.15-21.53-75.83-18.25-114.89,3.69-45.39,19.37-88.97,38.94-129.78,3.61-7.54,7.79-15.61,11.76-22.99,19.47-36.33,42.59-72.65,63.43-108.28,1.1-1.85,2.5-4.59,3.54-6.53C154.42,41.33,161.87,20.95,165.48,0h-4.55c-3.29,20.42-10.28,40.32-19.75,58.88-1.02,1.97-2.28,4.55-3.39,6.5-6.4,11.63-19.06,33.06-25.79,44.73-16.71,28.69-32.95,57.79-47.5,87.66-36.92,74.65-55.88,151.23-28.15,232.6,15.08,44.65,41.62,84.67,72.24,120.11,3.55,4.14,7.3,8.35,11.13,12.52h6.91c-33.85-35.53-63.34-75.38-81.77-120.06Z"/>
  <path class="cls-1" d="M36.78,498.21l-4.53-6.1-2.26-3.05-2.17-3.12s-4.34-6.24-4.34-6.24c-2.32-3.51-5-7.63-7.23-11.16l-.98-1.62-3.93-6.5c-.34-.54-.64-1.09-.95-1.65C6.65,452.34,3.19,445.85,0,439.31v6.66c13.07,25.93,29.78,50.1,48.32,72.31,6.84,8.27,14.23,16.48,21.58,24.33,6.6,6.94,13.35,13.73,20.24,20.38h5.77c-21.33-20.05-41.3-41.5-59.14-64.79Z"/>
  <path class="cls-1" d="M54.06,563h4.07C37.62,545.88,18.04,527.68,0,508.11v3.61c16.9,18.19,35.11,35.22,54.06,51.28Z"/>
  <path class="cls-1" d="M14.34,480.45c-2.17-2.89-6.68-9.93-8.58-12.7-1.93-3.15-3.65-5.84-5.76-9.28v5.64c1.2,1.94,2.43,3.94,3.22,5.27,1.28,1.95,5.18,7.87,6.37,9.69,1.68,2.41,4.82,6.94,6.66,9.49,2.51,3.49,5.5,7.37,8.08,10.84,17.75,22.8,37.48,43.88,58.5,63.62h5.46c-27.31-25.02-52.51-52.24-73.95-82.55Z"/>
  <path class="cls-1" d="M56.53,499.67l-2.15-3.05-2.15-3.05-1.07-1.53-1.03-1.56-4.12-6.23-1.03-1.56c-1.81-2.87-4.09-6.65-5.89-9.52-.32-.53-.62-1.08-.93-1.61,0,0-3.71-6.47-3.71-6.47-16.12-28.69-27.71-60.14-32.46-92.78C1.05,365.91.4,359.54,0,353.18v24.2c2.12,13.65,5.43,27.37,10.05,41.18,5.64,16.68,12.83,32.83,21.3,48.26l3.7,6.57c.31.55.61,1.1.93,1.64,1.81,2.95,4.05,6.74,5.87,9.67,1.37,2.08,4.8,7.41,6.16,9.48,1.57,2.29,3.77,5.43,5.37,7.74,2.43,3.58,6.34,8.64,8.89,12.17,2.62,3.35,6.65,8.56,9.33,11.82,1.22,1.46,3.57,4.34,4.8,5.81.28.35,1.59,1.91,1.8,2.18.41.44,5.04,5.83,5.56,6.39,6.81,7.77,13.84,15.33,21.06,22.71h6.39c-19.83-19.66-38.31-40.64-54.68-63.33Z"/>
  <path class="cls-1" d="M0,412.68v8.89c1.94,5.21,4.07,10.45,6.4,15.7.78,1.78,2.34,5.13,3.13,6.93,1.2,2.42,3.02,6.14,4.21,8.53,3.62,7.07,7.96,14.81,12.05,21.56,15.81,25.94,34.81,49.92,55.53,72.07,5.28,5.65,10.67,11.19,16.15,16.64h6.09C58.88,519.98,19.76,469.95,0,412.68Z"/>
</svg>