<?xml version="1.0" encoding="UTF-8"?>
<svg id="Layer_1" data-name="Layer 1" xmlns="http://www.w3.org/2000/svg" viewBox="0 0 316 563">
  <defs>
    <style>
      .cls-1 {
        fill: #f8f7ec;
      }
    </style>
  </defs>
  <path class="cls-1" d="M28.46,0h-1.82c-6.45,7.21-12.52,14.7-18.24,22.22-2.86,3.82-5.65,7.71-8.4,11.65v2.36C8.67,23.72,18.12,11.39,28.46,0Z"/>
  <path class="cls-1" d="M92.16,0h-5.41C59.78,10.35,36.42,30.41,16.1,53.96c-5.63,6.51-10.98,13.25-16.1,20.15v3.75C23.89,44.98,54.3,12.85,92.16,0Z"/>
  <path class="cls-1" d="M42.9.08s.06-.05.09-.08h-2.4C28.28,11.46,17.21,24.36,7.27,37.37c-2.46,3.24-4.88,6.55-7.27,9.9v2.8C12.68,32.06,26.72,15.01,42.9.08Z"/>
  <path class="cls-1" d="M247.51,281.45c-7.97-1.09-15.79-3.39-23.24-6.63-6.49-2.7-15.48-8.05-21.65-11.55-10.73-6.13-21.51-12.22-32.5-17.89-10.92-5.87-21.99-11.45-33.67-15.7-38.44-14.32-73.24-9.87-107.76,12.03-10.19,6.46-19.71,13.91-28.69,21.96v8.76c37.33-37.26,80.25-60.06,135.8-40.89,10.68,3.58,21.06,8.2,31.12,13.29,15.27,8.12,30.28,17.85,45.09,26.84,26.09,16.3,56.26,20.08,84.46,6.51,7.06-3.38,13.76-7.53,19.97-12.33v-8.52c-18.61,17.13-43.29,27.91-68.93,24.12Z"/>
  <path class="cls-1" d="M55.25,4.67c2.13-1.62,4.28-3.17,6.46-4.67h-3.1c-1.1.78-2.16,1.54-3.04,2.17-1.63,1.23-4.03,3.04-5.61,4.32l-1.37,1.12s-2.74,2.25-2.74,2.25c-1.47,1.33-3.94,3.35-5.32,4.67-.78.71-3.18,2.95-3.9,3.6C23.08,31.1,11.03,45.51,0,60.67v3.28C15.78,41.85,33.65,21.17,55.25,4.67Z"/>
  <path class="cls-1" d="M43.94,133.01c15.7-11.25,33.74-19.76,52.97-22.5,30.22-4.48,60.73,5.51,87,19.97,15.27,8.36,29.87,17.81,44.69,26.96,15.49,9.82,34.73,16.26,53.18,11.89,13.47-3.07,25.13-11.1,34.66-21.39v-13.2c-18.74,27.73-46.13,39.28-80.13,22.26-1.92-.93-3.8-1.96-5.68-3-18.04-10.11-35.92-20.72-54.78-29.31-20.67-9.91-42.92-17.7-66.11-17.5-36.21.02-67.77,19.58-93.13,44-5.79,5.55-11.31,11.35-16.62,17.35v6.52c13.01-15.65,27.37-30.18,43.94-42.05Z"/>
  <path class="cls-1" d="M48.55,99.72c10.73-7.56,22.49-13.94,35.01-17.99,30.65-10.5,64.22-3.93,92.84,9.68,18.91,9.24,36.57,20.71,54.42,31.83,14.46,9.36,31.12,16.49,48.73,14,14.85-1.99,27.26-10.72,36.9-21.84v-14.67c-9.69,16.2-24.29,30.03-44.1,30.82-12.84.6-25.38-4.13-36.47-10.34-20.31-11.38-40.45-23.34-61.94-32.43-38.1-17.33-74.97-20.61-112.73-.17-23.87,12.99-43.77,32.03-61.2,52.9v5.76c14.18-17.8,29.99-34.32,48.55-47.55Z"/>
  <path class="cls-1" d="M163.94,260.96c14.52,7.47,28.27,16.47,42.24,24.92,27.64,18.03,58.6,23.07,89.35,9.39,7.36-3.3,14.38-7.39,20.91-12.15v-7.99c-25.92,22.35-59.39,31.06-92.81,16.95-7.41-2.97-14.64-7.31-21.59-11.26-12.4-7.17-24.97-14.07-37.62-20.79-9.02-4.85-18.26-9.39-27.84-13.07-37.96-14.87-72.42-11.95-107.42,9.05-10.35,6.2-20.03,13.44-29.15,21.32v9.01c7.71-7.43,15.83-14.39,24.51-20.64,47.46-33.99,89.19-30.2,139.44-4.74Z"/>
  <path class="cls-1" d="M40.97,120.28c3.3-2.58,7.15-5.25,10.64-7.57,1.71-1.06,3.76-2.41,5.56-3.42,12.13-7.18,25.49-12.49,39.41-14.86,26.1-4.59,52.5,2,76.27,12.8,11.89,5.63,23.23,12.33,34.45,19.17,10.39,6.23,20.42,13.11,31.06,18.97,9.06,4.73,18.95,8.15,29.27,8.74,15.45,1.05,30.1-5.08,41.55-15.27,2.55-2.26,4.97-4.7,7.27-7.28v-13.91c-18.17,28.57-44.2,38.77-76.06,23.65-2.88-1.37-5.81-2.94-8.61-4.53-18.2-10.21-36.26-20.9-55.37-29.39-13-6.01-26.42-11.34-40.53-14.14-36.65-7.58-68.93,3.17-98.17,25.47-13.9,10.64-26.31,23.02-37.71,36.28v6.15c12.22-15.02,25.63-29.04,40.97-40.88Z"/>
  <path class="cls-1" d="M52.3,82.05c10.49-7.21,21.95-13.15,34.07-17.04,3.1-.93,6.45-1.91,9.63-2.56,3.27-.75,7.32-1.37,10.65-1.77,24.16-2.73,48.47,3.52,70.35,13.54,19.17,9.16,36.99,20.73,55,31.96,2.76,1.71,5.87,3.7,8.71,5.27,11.11,6.26,23.86,10.6,36.8,9.67,15.88-1.08,28.85-9.83,38.93-21.77v-15.4c-9.41,16.67-23.86,30.89-44.2,30.97-10.46.11-20.71-3.37-29.99-8.1-2.51-1.32-5.53-3-8.01-4.41-18.53-10.43-37-21.23-56.63-29.54-5.04-2.16-10.44-4.5-15.6-6.33-24.91-9.1-50.69-11.61-76.3-3.71-15.12,4.67-29.15,12.45-41.78,21.9C27.41,97.13,13.03,112.01,0,127.98v5.39c15.11-19.36,32.08-37.3,52.3-51.32Z"/>
  <path class="cls-1" d="M38.44,557.69c-10.59-1.76-21.33-2.63-32.07-2.94-2.12-.06-4.25-.1-6.37-.12v7.93h59.61c-6.9-2.06-13.95-3.72-21.17-4.87Z"/>
  <path class="cls-1" d="M92.39,562.56h12.86c-2.79-1.49-5.6-2.95-8.44-4.37-31.85-16.29-62.85-20.99-96.81-18.35v13.02c35.86-5.85,63.05-1.83,92.39,9.7Z"/>
  <path class="cls-1" d="M96.85,523.62c-32.35-15.22-63.53-17.54-96.85-11.65v12.61c2.38-.63,4.76-1.23,7.15-1.78,14.45-3.35,29.26-5.02,44.07-4.05,40.06,2.7,75.4,24.21,110.12,42.62.72.38,1.43.78,2.14,1.18h.57c-2.47-1.49-4.92-3.03-7.35-4.6-19.43-12.24-38.88-24.73-59.85-34.34Z"/>
  <path class="cls-1" d="M0,525.88v12.87c9.65-2.06,19.38-3.55,29.18-4.1,30.2-2.1,59.33,7.29,86.28,20.54,4.95,2.38,9.87,4.85,14.76,7.38h5.46c-44.55-27.54-79.57-43.94-135.68-36.69Z"/>
  <path class="cls-1" d="M5.83,0h-.96C3.22,2.34,1.6,4.7,0,7.06v1.4C1.91,5.62,3.86,2.8,5.83,0Z"/>
  <path class="cls-1" d="M242.49,553.14c-24.71-2.09-49.22-8.97-70.6-21.69-31.44-18.39-61.59-40.82-97.56-49.68-20.6-5.19-42.43-4.71-63.14-.28-3.73.78-7.46,1.7-11.18,2.71v12.15c7.58-2.76,15.32-5.11,23.18-6.81,49.9-11.61,90.97,10.68,133.53,33.75,2.93,1.61,7.24,3.88,10.03,5.61,6.54,3.99,13.19,7.85,20.18,11.02,39.62,18.01,86.91,18.94,129.53,9.41v-1.86c-24.17,5.62-49.21,7.74-73.95,5.69Z"/>
  <path class="cls-1" d="M16.39,0h-1.45C9.69,6.73,4.71,13.6,0,20.49v1.8C5.22,14.71,10.66,7.24,16.39,0Z"/>
  <path class="cls-1" d="M306.47,0h-43.96c5.63,2.72,11.61,4.81,17.78,5.66,10.32,1.39,18.97-.92,26.18-5.66Z"/>
  <path class="cls-1" d="M185.99,521.23c-7.35-3.49-14.31-7.79-21.36-11.84-53.74-33.81-95.46-60.07-161.13-40.2-1.17.35-2.34.72-3.5,1.09v11.96c2.29-.95,4.6-1.86,6.92-2.73,48.51-18.19,85.36-7.73,129.63,15.26,10.14,5.29,20.46,10.66,30.37,16.41,5.75,3.44,11.49,7.01,17.5,10,39.79,20.06,88.71,20.92,132.03,10.1v-2.24c-42.88,11.14-89.95,11.31-130.45-7.82Z"/>
  <path class="cls-1" d="M176.69,551.89c-20.2-10.95-38.88-24.48-59.18-35.32-20.41-11.21-42.51-20.29-65.95-22.4-15.71-1.51-31.68-.2-47.1,2.97-1.49.31-2.98.63-4.46.97v12.28c31.63-9.95,62-11.26,94.77.94,21.48,7.75,41.66,18.83,61.74,29.65,2.96,1.62,7.19,3.85,10.02,5.6,10.69,6.76,22.16,12.03,34.07,16h2.17c-5.32-1.66-10.58-3.58-15.74-5.77-3.41-1.47-7.07-3.18-10.34-4.91Z"/>
  <path class="cls-1" d="M219.3,342.77c-6.51-2.48-12.72-5.66-18.75-9.18-12.16-7.03-24.44-13.88-36.71-20.73-29.47-17.09-63.41-31.28-98.13-25.2-23.36,3.77-44.74,15.26-63.61,29.16-.7.52-1.4,1.05-2.09,1.58v9.78c2.17-1.87,4.37-3.71,6.59-5.51,40.86-32.69,80.29-41.79,129.6-21.69,11.12,4.48,21.98,9.75,32.48,15.58,10.43,6.02,20.64,12.38,30.93,18.64,4.26,2.64,8.69,5.18,13.23,7.38,2.52,1.21,5.78,2.64,8.38,3.62,22.86,9.06,48.9,8.86,71.93.38,8.09-2.95,15.93-6.69,23.31-11.17v-6.5c-28.58,19.78-63.9,26.94-97.14,13.85Z"/>
  <path class="cls-1" d="M202.32,370.25c-1.67-.87-3.55-1.93-5.19-2.86-10.8-6.25-22.83-12.98-33.62-19.17-42.42-25.27-83.29-40.57-131.52-20.05-11.27,4.74-21.9,10.82-31.99,17.7v10.23c7.73-6.09,15.8-11.71,24.31-16.57,28.26-16.32,58.36-20.85,89.84-11.55,18.05,5.15,35.06,13.51,51.56,22.41,7.06,4.01,15.96,9.5,22.98,13.75,4.89,2.95,10.39,6.44,15.43,9.1,29.02,15.6,62.68,16.99,93.47,5.71,6.45-2.36,12.77-5.13,18.86-8.35v-5.61c-35.35,20.96-76.81,25.15-114.12,5.26Z"/>
  <path class="cls-1" d="M210.67,356.67c-3.6-1.64-7.1-3.49-10.56-5.45-11.25-6.44-22.51-12.91-33.86-19.19-23.3-13.58-48.12-26.29-75.37-29.03-29.19-3.12-56.64,6.76-80.94,22.36-3.38,2.17-6.69,4.43-9.95,6.77v10c1.51-1.24,3.03-2.47,4.57-3.68,24.69-19.54,53.83-33.68,86-31.5,27.83,1.77,53.76,14.03,77.91,27.24,10.34,6.03,20.5,12.35,30.74,18.55,6.86,4.19,14.11,7.81,21.68,10.56,30.67,11.64,65.64,6.5,93.85-9.4.57-.32,1.14-.64,1.7-.96v-6.01c-31.82,20.44-70.57,26.19-105.77,9.73Z"/>
  <path class="cls-1" d="M196.45,402.68c-9.89-5.53-20.85-11.96-30.7-17.52-16.04-9.65-32.34-19.02-49.93-25.67-36.56-14.06-70.18-10.54-104.62,7.59-3.81,1.98-7.54,4.1-11.21,6.32v10.65c1.77-1.26,3.56-2.51,5.37-3.72,26.03-17.53,55.12-28.04,86.79-23.18,27.11,4.09,52.05,16.88,75.8,30.07,7.89,4.68,17.34,10.49,25.24,15.22,1.46.87,3.69,2.14,5.16,2.92,27.92,15.4,61.81,18.22,92.44,9.87,8.76-2.35,17.38-5.39,25.64-9.19v-4.76c-37.48,19.07-82.36,22.18-119.99,1.41Z"/>
  <path class="cls-1" d="M285.24,260.38c-19.73,7.87-41.14,6-60.25-2.82-1.49-.65-4.1-1.95-5.52-2.68-12.45-6.82-25.49-14.6-37.99-21.27-6.1-3.27-13.19-6.88-19.35-10.07-39.41-20.07-76.69-26.29-117.53-5.67-16.41,8.37-31.14,19.59-44.6,32.16v8.45c7.44-7.65,15.29-14.87,23.66-21.46,46.51-36.27,88.92-36.51,140.74-11.06,18.45,9.16,35.89,21.07,53.63,31.54,15.57,8.92,33.84,14.07,51.89,11.95,17.17-1.94,33.14-9.77,46.52-20.76v-9.17c-8.97,8.86-19.46,16.24-31.2,20.85Z"/>
  <path class="cls-1" d="M312.77,313.54c-31.88,22.13-69.48,25.57-103.87,6.87-1.44-.76-6.53-3.64-7.89-4.43-12.24-7.07-24.6-13.96-36.99-20.76-28.26-16.03-59.87-28.96-92.99-24.16-23.57,3.24-45.28,14.5-64.26,28.46-2.28,1.68-4.54,3.41-6.77,5.17v9.54c2.08-1.86,4.18-3.69,6.31-5.49,18.13-15.18,39.06-28.04,62.48-32.8,34.29-7.24,67.51,5.68,97.45,21.54,14.11,7.81,27.7,16.67,41.59,24.88,26.38,15.44,57.48,18.39,86.03,7.08,7.88-3.08,15.47-6.95,22.59-11.55v-6.99c-1.21.9-2.43,1.78-3.67,2.63Z"/>
  <path class="cls-1" d="M316.44,0h-6.91c-6.52,8.99-15.51,15.38-27.89,15.07-11.63-.24-22.56-5.74-32.52-11.49-2.12-1.19-4.23-2.38-6.35-3.58h-9.61c6.42,4.03,12.82,8.1,19.25,12.08,10.09,6.08,21.67,10.93,33.78,10.38,10.86-.51,19.69-5.31,26.83-12.54-7.47,13.08-18.74,23.07-35.66,21.65l-1.62-.18-.81-.09-.81-.14-1.62-.27c-2.12-.44-4.38-.99-6.43-1.68-8.56-2.68-16.87-7.77-24.72-12.16-10.33-5.83-20.71-11.68-31.31-17.07h-6.57c12.04,6.64,23.69,14.02,35.32,21.36,3.44,2.14,8.6,5.48,12.04,7.5,5.72,3.38,11.94,6.36,18.42,8.16,1.12.33,2.46.65,3.64.9l.92.2.93.15,1.87.3,1.9.2.95.09s.96.04.96.04c13.62.64,24.44-5.04,32.92-14-1.24,2.18-2.59,4.3-4.06,6.33-11.32,15.69-26.52,20.52-44.94,14.74-8.5-2.57-16.77-7.53-24.52-11.89-18.25-10.3-36.61-20.74-56.11-28.55-4.83-1.88-9.79-3.86-14.68-5.53h-5.26c4.31,1.3,8.65,2.8,12.85,4.43,12.87,5.27,25.08,12.05,37.02,19.15,9.89,5.9,19.8,12.27,29.6,18.41,10.15,6.53,21.21,12.13,33.49,13.24,15.66,1.38,27.88-5.34,37.21-15.63-15.17,27-37.57,31.85-65.08,17.35-22.71-12.42-44.97-26.13-69.17-35.58-12.81-5.3-26.17-9.58-39.95-11.41C80.17,1.68,34.55,42.47.73,86.6c-.24.32-.49.64-.73.96v4.14c4.32-5.84,8.79-11.56,13.4-17.09C35.32,48.61,62.06,24.39,95.39,14.79c23.58-6.86,47.76-4.64,70.82,3.14,4.28,1.48,8.73,3.05,12.86,4.9,23.66,10.57,45.13,25.31,67.19,38.78,8.21,4.84,17.36,8.71,26.93,9.88,16.53,2.13,30.81-4.84,41.49-17.25.03-.04.07-.08.1-.12-8.34,14.97-20.98,27.47-39.4,27.51-10.33,0-20.43-3.65-29.53-8.48-18.98-10.41-37.63-21.7-57.41-30.59-12.56-5.53-25.33-10.8-38.74-13.92-27.42-6.48-53.6-3.5-78.77,9.23C42.5,52.51,19.6,75.75,0,101.04v4.57c18.69-24.91,40.28-47.86,67.4-63.42,1.75-.92,2.49-1.37,4.49-2.41l1.52-.75s1.52-.75,1.52-.75c1.31-.69,4.09-1.84,5.4-2.45l.79-.32,1.57-.63s1.57-.63,1.57-.63c3.59-1.35,7.58-2.66,11.29-3.62,26.97-7.27,54.21-2.55,79.65,7.92,12.53,5.4,24.43,12.16,36.11,19.17,9.67,5.84,19.4,12.07,29.03,18.07,11.49,7.22,24.66,12.97,38.55,12.48,15.38-.46,27.66-8.71,36.98-19.89-9.2,16.68-23.34,30.58-43.7,29.86-10.81-.3-21.31-4.45-30.73-9.65-21.67-12.12-43.21-24.97-66.33-34.23-32.5-14.1-66.14-17.96-99.29-3.43-23.04,9.94-42.64,26.48-59.64,44.68-5.65,6.08-11.03,12.4-16.19,18.88v4.98c14.34-18.73,30.37-36.16,49.28-50.32,34.91-25.89,71.37-32.35,112.67-18.25,25.73,8.66,48.36,24.09,71.3,38.26,3.32,2.07,8.36,5.27,11.78,7.05,12.43,6.71,27.21,10.74,41.3,7.35,12.08-2.82,22.08-10.37,30.12-20.1V0Z"/>
  <path class="cls-1" d="M194.88,419.6c-1.87-.97-4.56-2.51-6.39-3.56-7.97-4.65-17.56-9.99-25.42-14.67-52.25-32.17-95.53-48.58-154.1-19-3.03,1.52-6.03,3.13-8.99,4.81v10.85c1.86-1.25,3.74-2.48,5.63-3.67,35.27-22.26,69.54-28.55,109.39-14.47,18.36,6.44,35.85,15.47,52.79,25.03,7.32,4.36,17.85,10.83,25.16,15.11,15.39,8.81,32.64,14.34,50.31,16.02,24.36,2.36,50.24-2.4,73.15-12.25v-4.38c-38.61,17.96-83.17,20.74-121.56.18Z"/>
  <path class="cls-1" d="M265.32,181.68c-12.59-.04-24.83-4.39-35.79-10.44-15.06-8.39-29.99-17.22-45.43-24.97-2.81-1.4-5.93-2.93-8.77-4.24-4.87-2.28-9.81-4.67-14.77-6.72-33.97-14.43-67.36-16.74-101.16-.26-22.94,11.23-42.29,28.16-59.4,47.03v6.86c11.74-13.8,24.57-26.66,39.11-37.5,9.61-7.16,20.05-13.32,31.16-17.83,16.57-6.72,34.8-9.19,52.56-6.97,21.33,2.68,41.78,10.68,60.47,21.13,15.11,8.38,29.55,17.76,44.3,26.79,11.82,7.2,25.26,12.37,39.27,12.63,13.13.3,26.07-4.16,36.72-11.72,4.61-3.26,8.89-7,12.84-11.09v-12.43c-12.15,16.78-29.51,29.96-51.12,29.71Z"/>
  <path class="cls-1" d="M228.49,188.49c-6.33-3.43-16-9.02-22.35-12.58-14.92-8.46-30.19-16.35-45.87-23.3-33.37-14.69-66.56-18.02-100.41-2.55-23.02,10.61-42.58,27.1-59.86,45.58v7.21c6.29-7.21,12.89-14.13,19.88-20.65,10.45-9.73,21.85-18.53,34.35-25.47,11.75-6.53,24.6-11.24,37.91-13.27,27.3-4.25,54.81,3.81,79.28,15.64,11.44,5.78,22.43,12.43,33.35,19.13,3.51,2.17,13.01,8.07,16.37,10.16,12.81,8.25,27.39,14.72,42.92,15.29,13.48.62,26.97-3.6,38.17-11.03,5.09-3.37,9.84-7.3,14.2-11.64v-11.73c-21.58,28.12-52.35,38.51-87.95,19.2Z"/>
  <path class="cls-1" d="M199.36,386.45c-5.96-3.26-14.59-8.3-20.56-11.71-5.13-2.97-10.35-5.78-15.43-8.82-15.34-9.08-31.06-17.73-47.91-23.69-39.36-14.23-74.68-7.36-109.92,13.94-1.86,1.12-3.7,2.28-5.53,3.46v10.44c1.69-1.27,3.39-2.51,5.1-3.73,33.95-24.15,68.7-33.85,109.36-21.11,17.88,5.48,34.69,13.93,51.09,22.83,10.81,6.2,22.26,13.52,33.04,19.8,27.87,16.11,61.96,19.33,92.7,10.18,8.62-2.51,17.08-5.74,25.15-9.73v-5.18c-36.42,20.03-79.65,23.68-117.08,3.34Z"/>
  <path class="cls-1" d="M250.88,214.01c-16.36-2.78-31.2-12.69-45.54-20.68-11.09-6.28-22.32-12.4-33.83-17.9-15.21-7.66-31.15-14.23-47.99-17.32-40.86-7.68-75.91,8.47-106.37,34.8-5.98,5.17-11.68,10.63-17.17,16.3v7.55c11.99-13.42,25.1-25.82,39.93-36.04,43.69-30.05,84.98-26.95,131.08-4.25,11.31,5.82,22.18,12.44,33.02,19.1,14.45,8.82,29.02,19.37,45.93,22.94,25.53,6.05,48.77-3.86,66.49-20.71v-11.04c-16.12,19.48-39.11,32.51-65.56,27.25Z"/>
  <path class="cls-1" d="M221.09,220.12c-17.27-9.78-34.93-20.05-52.79-28.67-25.3-13.01-53.95-22.21-82.67-17.85-33.56,4.88-62.15,25.76-85.63,49.21v7.84c6.49-7.07,13.3-13.83,20.53-20.13,46.99-40.86,91.79-45.22,147.28-18.05,17.68,8.9,34.73,20.15,51.65,30.45,25.29,15.74,53.76,19.4,80.27,4,5.97-3.47,11.57-7.62,16.72-12.29v-10.39c-25.55,29.05-59.3,36.5-95.35,15.89Z"/>
  <path class="cls-1" d="M22.48,281.8c1.61-1.1,3.23-2.28,4.95-3.38,47.02-31.05,88.37-24.6,136.3.09,16.23,8.48,31.39,18.73,47.2,27.96,25.98,14.94,55.91,17.61,83.72,5.88,7.63-3.19,14.95-7.18,21.78-11.88v-7.48c-30.25,24.31-68.04,30.72-104.34,11.34-15.08-8.33-29.96-17.2-45.22-25.24-16.91-9.44-34.55-17.94-53.55-22.29-43.6-10.29-81.21,7.57-113.33,34.19v9.29c7.12-6.62,14.59-12.85,22.48-18.49Z"/>
  <path class="cls-1" d="M295.58,238.68c-22.07,13.18-46.95,12.66-69.82,1.62-6.38-3.02-15.6-8.56-21.86-12.05-12.66-7.29-25.65-14.23-38.72-20.77-20.56-10.43-42.95-18.53-66.25-18.66-35.06-.31-65.43,17.48-90.92,40.16-2.72,2.43-5.38,4.92-8,7.45v8.14c2.34-2.48,4.72-4.93,7.15-7.33,2.96-2.89,5.96-5.73,9.05-8.48,13.82-12.28,29.33-23.07,46.62-29.84,32.69-12.95,64.98-7.18,96.17,6.97,15.31,6.72,29.44,15.74,43.68,24.43,6.3,3.82,15.15,9.61,21.61,12.96,15.09,7.95,32.77,12.01,49.81,9.16,15.87-2.55,30.27-10.4,42.36-20.87v-9.72c-6.17,6.53-13.16,12.26-20.86,16.82Z"/>
  <path class="cls-1" d="M311.21,457.82c-39.98,14.32-85.53,14.75-123.22-6.38-2.84-1.56-7.26-4.15-10.1-5.78-5-2.93-10.15-5.75-15.09-8.79-55-34.38-98.25-52.9-161.04-22.9-.58.28-1.18.56-1.77.85v11.23c8.57-5.05,17.45-9.51,26.7-13.02,21.18-8.27,44.59-10.26,66.79-5.01,24.49,5.58,47.02,17.54,68.98,29.44,7.84,4.35,17.28,10.39,25.04,14.86,30.53,17.88,67.75,21.76,102.1,14.67,9.09-1.86,18.09-4.31,26.83-7.46v-3.64c-1.73.67-3.48,1.32-5.23,1.95Z"/>
  <path class="cls-1" d="M187.78,469.1c-2.97-1.53-7.15-4.02-10.09-5.7-5-2.94-10.1-5.72-15.03-8.78-48.89-30.59-91.13-52.65-149.42-31.3-4.48,1.6-8.9,3.39-13.25,5.33v11.38c46.94-25.73,85.66-24.22,136.69,1.66,10.3,5.15,20.71,10.58,30.69,16.36,5.18,3.09,13.53,8.21,18.69,11.16,38.01,21.7,84.81,22.26,125.94,9.6,1.48-.46,2.96-.93,4.44-1.41v-3.26c-41.43,14.73-89.24,16.06-128.66-5.05Z"/>
  <path class="cls-1" d="M177.29,498.87c-4.97-2.93-10.04-5.69-14.93-8.75-53.37-33.63-95.15-57.13-159.32-34.82-.25.1-1.6.58-3.04,1.09v11.74c.12-.06.32-.15.32-.15.42-.2.86-.38,1.29-.56,0,0,5.16-2.23,5.16-2.23,38.06-15.99,71.51-14.4,109.07,2.09,15.83,6.8,31.11,15.05,46.24,23.32,5.06,2.77,9.92,5.89,14.9,8.8,41.48,25.16,93.3,26.67,139.47,13.86v-2.52c-45.69,13.23-97.44,12.84-139.15-11.87Z"/>
  <path class="cls-1" d="M311.33,439.71c-39.39,15.67-85.97,16.01-123.09-5.96-7.95-4.64-17.46-9.94-25.29-14.64-39.94-24.64-80.05-45.41-128.16-32.07-11.6,3.09-22.75,7.71-33.39,13.21-.47.24-.93.49-1.39.73v11.03c8.37-5.29,17.11-10.02,26.23-13.85,20.97-8.99,44.43-11.91,66.85-7.2,24.71,5,47.47,16.84,69.51,28.76,7.43,4.11,17.74,10.6,25.1,14.95,30.3,18.62,67.85,22.89,102.27,15.01,8.99-2.03,17.88-4.68,26.48-8.05v-4.01c-1.69.72-3.4,1.42-5.11,2.08Z"/>
  <path class="cls-1" d="M187.6,486.72c-6.85-3.5-13.42-7.58-20.12-11.37-1.68-.95-3.33-1.94-4.96-2.97-53.71-33.82-96.31-55.87-159.92-30.89,0,0-1.3.52-2.6,1.05v11.56c.29-.15.57-.3.85-.44l.64-.3s5.1-2.41,5.1-2.41c37.66-17.44,71.06-17.26,109.17-1.19,16.85,6.98,33.02,15.74,49,24.54,7.5,4.38,14.79,9.09,22.47,13.18,39.5,20.69,86.98,20.76,129.23,7.82v-2.87c-41.78,13.42-89.11,14.49-128.84-5.7Z"/>
</svg>