<?xml version="1.0" encoding="UTF-8"?>
<svg id="Layer_1" data-name="Layer 1" xmlns="http://www.w3.org/2000/svg" viewBox="0 0 316 563">
  <defs>
    <style>
      .cls-1 {
        fill: #131510;
      }
    </style>
  </defs>
  <path class="cls-1" d="M316.79,318.15c-7.05,3.45-14.31,6.49-21.8,8.74l-1.4.44-1.42.36-2.84.73-.71.18s-.72.15-.72.15c-1.45.29-2.84.59-4.31.87,0,0-2.89.43-2.89.43-1.29.2-1.44.23-2.9.37-1.88.21-3.9.37-5.84.45-3.92.19-7.86.11-11.78-.13-7.78-.44-16.28-1.63-24.07-2.06-3.58-.24-7.23-.27-10.82-.22-.91.03-3.75.2-4.66.23-1.07.11-3.58.34-4.65.45-.98.12-3.63.53-4.62.67-2.01.34-4.1.78-6.09,1.19-1.73.45-4.3,1.03-5.99,1.54-1.72.55-4.21,1.21-5.88,1.83,0,0-2.89,1.03-2.89,1.03-.81.3-2.1.72-2.88,1.06,0,0-5.66,2.3-5.66,2.3-1.87.86-6.53,2.92-8.27,3.85-1.36.68-4.05,2.05-5.41,2.73-2.55,1.41-5.42,2.95-7.93,4.37-3.87,2.25-8.72,5.33-12.73,7.27-4.26,2-8.85,3.53-13.51,4.45-31.23,5.65-62.96-7.81-93.75-12.89-13.94-2.6-27.54-3.57-40.4-1.76v6.34c48.21-7.64,104.66,30.27,150.36,8.94,2.6-1.26,5.61-3.04,8.06-4.52,2.99-1.82,7.14-4.25,10.2-5.9,2.27-1.31,5.49-2.91,7.82-4.1,1.71-.92,6.18-2.91,7.99-3.76.32-.13,6.05-2.48,6.11-2.52,1.25-.45,3.56-1.28,4.83-1.74,1.88-.68,4.37-1.37,6.29-1.99,1.31-.34,3.62-.92,4.97-1.27,1.38-.31,2.9-.59,4.3-.88,1.01-.23,3.26-.53,4.33-.7,1.67-.28,4.09-.46,5.82-.65,1.63-.08,4.25-.26,5.86-.25,6.8-.16,13.97.5,20.77,1.15,9.08.91,18.52,1.63,27.63.89.97-.1,3.75-.38,4.64-.48,1.12-.17,3.4-.53,4.61-.71,1.74-.34,3.57-.73,5.31-1.1,9.77-2.36,19.2-6.06,28.11-10.41v-2.78l-1.21-2.19Z"/>
  <path class="cls-1" d="M0,562.31v.69h20.87c-6.78-.89-13.74-1.19-20.87-.69Z"/>
  <path class="cls-1" d="M316.81,304.36c-7.06,3.3-14.32,6.19-21.79,8.33-1.72.55-4.64,1.2-6.34,1.63-6.38,1.36-12.94,2.22-19.48,2.32-15.06.34-29.74-2.68-44.95-1.88-.89.06-2.89.17-3.84.24-1.08.1-2.76.3-3.83.4-.91.06-3.69.53-4.57.66l-1.52.24s-1.51.31-1.51.31c-.72.16-3.03.6-3.76.77-.32.08-1.95.5-2.23.57-14.81,3.64-28.57,10.24-41.69,17.5-3.56,2.04-7.24,4.26-10.81,6.27-4.78,2.52-9.9,4.42-15.24,5.6-31.24,6.3-62.35-6.24-93.1-11.33-14.43-2.68-28.68-3.86-42.14-1.92v6.07c28.13-4.4,59.89,6.27,87.79,11.4,21.8,4.17,46.32,5.9,66.25-5.39,3.37-1.92,6.87-4.04,10.22-5.98,3.02-1.66,7.25-4.01,10.32-5.49,15.47-7.87,32.32-13.8,49.95-14.62,12.75-.71,25.78,1.45,38.67,1.76,8.16.22,16.48-.39,24.46-2.05,10.53-2.09,20.72-5.9,30.34-10.35v-2.81c-.59-1.13-1.19-2.26-1.19-2.26Z"/>
  <path class="cls-1" d="M203.84,563h27.62c-7.87-1.84-16.76-2.41-27.62,0Z"/>
  <path class="cls-1" d="M316.77,345.77c-10.48,5.63-21.52,10.35-33.33,12.53-7.81,1.46-15.8,1.63-23.71.9-10.18-.9-20.37-2.92-30.68-3.18-27.89-1.08-53.69,11.65-76.33,25.82-1.39.83-2.91,1.74-4.36,2.46-1.15.62-2.38,1.12-3.57,1.67-.26.09-1.38.53-1.68.64-41.66,15.09-93.74-21.13-143.12-14.52v7.21c19.24-2.91,39.65,1.12,59.33,6.08,23.92,5.7,48.66,14.01,73.72,10.15,6.35-1.05,12.63-3.04,18.3-6,4.54-2.36,8.7-5.34,13.12-7.87,76.54-45.53,86.06,5.2,153.53-31.17v-2.69c-.61-1.01-1.23-2.03-1.23-2.03Z"/>
  <path class="cls-1" d="M84.67,378.09c16.07,3.49,33.09,6.27,49.57,3.21,7.86-1.43,15.43-4.38,22.11-8.58,1.7-1.03,5.9-3.59,7.61-4.63,2.96-1.63,6.08-3.5,9.08-5.03,12.14-6.42,25.05-11.72,38.72-14.16,1.66-.27,3.43-.51,5.1-.74.98-.09,3.43-.31,4.4-.41,1.36-.06,3.07-.14,4.42-.19.58,0,3.02,0,3.7,0,8.03.12,16,1.21,24.01,2.03,4.04.41,8.3.71,12.38.8,1.47.04,3.21-.02,4.7-.02,1.2-.04,3.42-.19,4.7-.25,1.71-.19,4.58-.43,6.24-.74,0,0,3.1-.5,3.1-.5,1.75-.35,3.6-.77,5.35-1.15,9.82-2.48,19.26-6.38,28.13-10.93v-2.74c-.61-1.05-1.22-2.11-1.22-2.11-7.48,3.85-15.2,7.15-23.23,9.61-1.15.31-3.89,1.04-4.99,1.34-1.66.34-3.38.73-5.05,1.05l-2.91.45-1.46.22-1.47.15-2.93.29s-2.95.14-2.95.14c-12.13.56-24-1.84-36.09-2.67-.74-.07-2.38-.16-3.11-.18-1-.03-2.09-.12-3.12-.12-1.85-.02-4.42-.05-6.27.06-.93.04-2.2.06-3.13.16-.77.07-3.12.26-3.91.34-.26.03-.52.07-.78.1,0,0-1.55.21-1.55.21-2.4.27-5.35.87-7.72,1.33-.98.2-3.56.88-4.55,1.1-15.01,3.96-28.9,10.75-42.09,18.44-1.69,1-6.12,3.7-7.74,4.63-12.45,7.52-27.53,8.98-42.05,7.48-24.19-2.53-46.86-10.8-71.04-15.01-13.69-2.54-26.59-3.28-38.66-1.61v6.77c26.71-4.1,55.96,5.4,84.67,11.85Z"/>
  <path class="cls-1" d="M316.97,249.23c-7.1,2.65-14.33,4.94-21.71,6.66l-1.38.33s-1.39.28-1.39.28c-2.56.55-5.79,1.12-8.37,1.52-3.18.46-6.68.84-9.88,1.09-10.03.74-20.13.3-30.19.07-6.84-.15-13.8-.07-20.62.56-1.11.13-3.31.35-4.42.49-.87.12-3.52.53-4.4.65-1.65.29-3.44.65-5.1.95-.41.08-3.16.73-3.6.83-14.3,3.41-27.91,9.17-40.79,15.85-1.43.75-3.74,1.92-5.12,2.7-.82.46-5.62,3.11-6.31,3.5-10.89,6.21-23.46,8.99-36.14,9.4-23.07.74-45.74-4.78-68.38-8.52-15.7-2.71-33.08-4.9-49.16-2.41v4.68c15.71-2.59,32.84-.24,48.29,2.39,22.79,3.82,45.94,9.46,69.44,8.73,13.38-.38,27.03-3.4,38.63-10.01.63-.35,5.57-3.07,6.23-3.43,1.34-.76,3.66-1.92,5.03-2.64,12.07-6.25,24.93-11.63,38.2-14.99,1.25-.28,3.57-.81,4.83-1.1,1.58-.29,3.29-.62,4.87-.9.89-.13,3.36-.49,4.2-.61,6.09-.75,12.31-1.06,18.46-1.03,10.65.04,21.38.76,32.05.3,5.84-.27,11.9-.85,17.65-1.84,10.3-1.69,20.4-4.63,30.12-8.18v-2.85c-.52-1.23-1.03-2.47-1.03-2.47Z"/>
  <path class="cls-1" d="M317.02,235.47c-7.11,2.49-14.33,4.63-21.68,6.24-9.16,2.03-18.58,3.16-27.99,3.45-13.45.48-26.97-.59-40.42.51-26.19,1.85-50.56,12.54-72.87,25.04-10.64,6.02-22.83,8.89-35.19,9.58-30.67,1.57-60.47-7.7-90.93-10.39-9.21-.8-18.72-.98-27.94.48v4.42c29.51-4.82,67.55,7.42,95.78,9.52,20.32,2.02,42.14.91,60.21-9.13,21.93-12.17,45.71-22.76,71.37-24.49,13.36-1.04,26.77.08,40.18-.37,17.23-.38,34.31-3.92,50.46-9.51v-2.84c-.49-1.25-.98-2.5-.98-2.5Z"/>
  <path class="cls-1" d="M316.92,263c-7.98,3.16-16.13,5.87-24.51,7.73-2.57.59-5.82,1.18-8.41,1.6-1.57.23-3.39.45-4.95.66-2.14.19-4.26.44-6.41.53-14.58.95-29.19-.97-43.81-.35-3.9.19-8.05.51-11.92,1.08-.57.08-1.64.22-2.23.31-.34.05-3.34.61-3.68.66-20.46,3.91-39.36,12.99-57.07,23.13-.78.42-2.92,1.63-3.67,1.98-45.61,22.06-101.79-11.72-150.26-4.48v5.12c43.4-7.02,95.48,21.4,140.11,8.76,4.84-1.37,9.58-3.23,14-5.57,9.12-5.08,18.46-10.33,28.1-14.4,17.89-7.82,35.72-12,55.47-11.5,11.71.18,23.55,1.25,35.3.48,15.5-.83,30.73-4.84,45.02-10.45v-2.86c-.54-1.21-1.08-2.43-1.08-2.43Z"/>
  <path class="cls-1" d="M316.84,290.56c-7.96,3.52-16.12,6.57-24.57,8.64-6.51,1.61-13.26,2.66-19.99,2.98-13.82.82-27.58-1.47-41.42-1.39-18.3-.14-36.33,4.85-52.66,12.37-1.62.71-3.85,1.75-5.4,2.54-1.56.79-3.81,1.85-5.32,2.67-.93.5-5.72,3.07-6.54,3.51-.84.48-2.97,1.72-3.85,2.22-1.9,1.1-4.38,2.53-6.28,3.59-.85.45-1.95.97-2.82,1.41-.24.1-.71.31-.97.42-44.09,18.99-99.17-15.41-147.02-8.26v5.75c48.94-7.54,103.29,28.24,150.51,6.93.95-.48,2.16-1.06,3.09-1.56,1.98-1.1,4.48-2.56,6.44-3.7,13.22-7.68,27.39-14.6,42.28-18.74,9.28-2.56,18.9-3.92,28.56-3.91,7.84-.06,15.7.67,23.56,1.14,7.01.43,14.2.56,21.19-.02,2.85-.23,6.25-.68,9.08-1.11,1.69-.34,4.35-.78,5.97-1.17,9.42-2.09,18.58-5.36,27.31-9.19v-2.83c-.58-1.16-1.16-2.32-1.16-2.32Z"/>
  <path class="cls-1" d="M316.88,276.78c-7.08,2.98-14.33,5.57-21.75,7.49l-1.39.37s-1.4.31-1.4.31c-2.57.62-5.85,1.24-8.45,1.68-3.21.47-6.76.91-9.99,1.12-15.05,1.12-30.41-1.29-45.57-.76-4.44.15-9.15.59-13.53,1.22-13.38,2.03-26.29,6.53-38.41,12.1-4.97,2.27-11,5.4-15.78,8.01-2.84,1.6-7.2,4.14-10.07,5.68-38.13,19.36-87.76-4.25-128.58-6.21-7.33-.5-14.74-.31-21.94.79v5.35c6.82-1.14,14.04-1.38,21.59-.86,43.29,2.32,93.4,27.11,134.26,4.08,1.7-.97,5.88-3.34,7.54-4.29,5.59-3.06,12.17-6.45,18.03-9.01,11.36-5.03,23.25-8.98,35.65-10.66,6.62-.93,13.44-1.16,20.12-1.01,12.32.35,24.74,1.68,37.1.77.39-.02,1.12-.07,1.5-.12,1.69-.16,4.38-.4,6-.65,2.87-.37,6.09-.92,8.92-1.52,9.37-1.97,18.53-5.05,27.28-8.69v-2.85l-1.12-2.38Z"/>
  <path class="cls-1" d="M317.8,84.67c-11.9.97-30.21,2.14-42.22,2.91-10.53.72-21.3,1.52-31.76,2.95l-5.28.74-.66.09c-1.03.18-3.61.63-4.6.8-4.02.63-9.08,1.79-13.06,2.64-1.57.4-6.13,1.57-7.73,1.98-1.45.34-3.68,1.04-5.11,1.46-1.01.31-5.41,1.6-6.35,1.91-.77.26-2.97,1.01-3.76,1.28-2.89.97-7.18,2.43-9.97,3.54-2.84,1.08-7.09,2.64-9.85,3.82-7.52,3.01-16.68,7.12-24.13,10.42-9.56,4.08-19.7,6.85-29.99,8.66-31.26,5.5-63.25,2.63-94.78.92-9.47-.36-19.13-1.01-28.55.43v1.28c2.43-.35,4.92-.5,7.37-.63,21.15-.41,42.25,2.51,63.39,3.09,28.2.99,57.55-.29,83.8-11.11,4.49-1.9,12.44-5.42,16.89-7.23,2.71-1.09,7.01-2.81,9.72-3.9,1.66-.63,5.65-2.09,7.37-2.71,3.74-1.43,8.57-2.96,12.39-4.22,3.34-1.09,7.93-2.34,11.3-3.31,2.3-.57,6.62-1.63,8.9-2.19,2.34-.47,6.63-1.37,8.98-1.83,1.88-.31,4.58-.75,6.47-1.07.71-.12,1.89-.32,2.59-.4,2.91-.37,7.55-1.02,10.43-1.28,21.96-2.24,46.36-2.82,68.41-4.48v-2.31c-.1-1.15-.2-2.29-.2-2.29Z"/>
  <path class="cls-1" d="M271.23,45.15s-5.2.4-5.2.4c-2.88.19-7.52.77-10.38,1.04-2.86.33-6.19.85-9.04,1.23l-.65.09-.64.11-5.14.9c-15.39,2.73-30.43,7.15-45.04,12.31-13,4.61-25.74,9.78-38.38,15.13-12.5,5.36-25.85,8.81-39.4,11.05-34.09,5.71-68.88,3.51-103.29,2.27-4.68-.07-9.41-.21-14.08.34v.71c1.23-.13,2.47-.19,3.71-.25,10.35-.25,20.7.6,31.04,1.06,34.47,1.75,69.73,2.31,103.32-6.42,6.7-1.76,13.31-3.95,19.69-6.6,25.26-10.33,50.97-20.27,77.99-25.48,27.02-5.25,54.75-5.29,82.24-5.23,0,0,0-.95,0-1.94v-2.13c-14.7.08-29.45.33-44.17,1.2l-2.6.2Z"/>
  <path class="cls-1" d="M11.84,103.6c34.76,1.19,69.75,4.95,104.4-.06,13.86-1.95,27.6-5.2,40.46-10.58,17.47-7.34,35.09-14.31,53.33-19.65,2.84-.86,7.07-1.91,9.97-2.71,2.32-.58,5.21-1.19,7.55-1.74,2.87-.68,7.25-1.42,10.15-1.99,2.4-.39,6.52-1,8.95-1.38,23.62-3.09,47.52-3.29,71.34-3.84v-2.13c-.03-1.06-.06-2.13-.06-2.13-13.92.44-27.85.84-41.8,1.68-3.99.24-9.09.62-13.07.97-3.72.35-9.35.93-13.04,1.45-1.55.21-3.65.45-5.2.72-1.96.33-5.81.93-7.77,1.28-2.94.61-7.37,1.41-10.28,2.13-1.85.44-4.53,1.08-6.37,1.53-2.33.57-6.53,1.8-8.83,2.42-19.17,5.63-37.73,13.2-55.95,21.07-12.58,5.42-26.07,8.76-39.71,10.82-34.43,5.35-69.39,1.94-104.06,1.12-3.94.03-7.94.02-11.85.57v.91c3.9-.52,7.9-.47,11.84-.46Z"/>
  <path class="cls-1" d="M0,49.73v1.7c3.35.36,6.65.64,9.98.9,23.75,1.73,47.65,1.85,71.4.03,14.34-1.1,28.87-3.02,42.92-5.98,3.88-.82,8.58-1.94,12.39-2.97,1.42-.35,3.48-.95,4.9-1.38,6.51-1.86,12.93-4.18,19.19-6.66,37.38-14.68,75.52-30.3,116.56-31.48,13.54-.6,27.11-.13,40.63.84,0,0,0-.07.01-.14v-.14c-64.83-5.92-99.39,6.66-157.93,29.23-6.28,2.41-12.58,4.63-19.08,6.41-1.4.4-3.46.99-4.87,1.32-3.79.98-8.44,2.05-12.3,2.82-7.24,1.45-15.13,2.73-22.47,3.61-33.48,4-67.6,3.77-101.12.21l-.23,1.68Z"/>
  <path class="cls-1" d="M.44,63.76c2.55-.04,5.1.11,7.65.23,44.13,2.74,89.44,3.95,132.37-7.72,6.58-1.8,13.05-4.03,19.37-6.55,59.59-23.52,92.26-33.77,158.06-29.59,0,0,.05-.91.1-1.81v-1.81c-66.25-3.53-99.2,7.06-158.99,31.36-6.22,2.56-12.6,4.82-19.1,6.67-42.62,12.03-87.81,11.25-131.8,8.96-2.56-.1-5.12-.22-7.69-.16-.14,0-.28.01-.43.02v.41c.15,0,.29-.01.44-.01Z"/>
  <path class="cls-1" d="M317.08,221.71c-7.11,2.32-14.33,4.31-21.65,5.82-9.14,1.9-18.49,2.98-27.84,3.32-5.68.24-11.32.23-17.02.23-15.33-.17-31.09.63-45.98,4.6-17.72,4.54-34.28,12.35-50.11,21.01-7.17,3.97-15.06,6.73-23.21,8.27-41.73,7.55-82.72-10.66-124.53-8.13-2.27.16-4.52.42-6.73.77v4.09c16.97-2.93,35.07.21,51.98,2.69,22.64,3.57,45.48,8.14,68.61,6.5,11.7-.83,23.36-3.57,33.76-8.83,4.79-2.49,10.12-5.42,15.01-7.78,1.41-.73,3.6-1.71,5.06-2.4,2.81-1.35,6.11-2.72,8.97-3.95,14.18-5.86,29.13-9.97,44.57-11.18,13.14-1.09,26.6-.25,39.85-.75,17.08-.48,34.04-3.73,50.2-8.92v-2.83c-.46-1.27-.92-2.53-.92-2.53Z"/>
  <path class="cls-1" d="M0,549.66v12.45c9.53-1.17,18.87-.67,28.01.88h37.33c-20.62-8.54-42.92-14.93-65.35-13.34Z"/>
  <path class="cls-1" d="M2.88,156.49c14.21-1.37,28.5.31,42.69,1.42,25.01,2.17,50.36,4.35,75.38.99,10.77-1.45,21.43-3.99,31.44-8.08,2.94-1.16,6.86-3.07,9.79-4.36,6.35-2.88,13.02-5.7,19.54-8.26,16.41-6.4,33.5-11.45,51.06-13.96,14.11-2.1,28.34-2.75,42.61-3.64,14.22-.85,28.47-1.98,42.62-3.71v-2.46c-.17-1.21-.34-2.42-.34-2.42-21.26,2.91-42.66,4.02-64.07,5.71-21.62,1.62-43.05,5.9-63.27,13.39-10.01,3.61-20.06,7.88-29.67,12.35-2.82,1.29-6.78,3.25-9.62,4.4-9.7,4.08-20.05,6.64-30.53,8.16-17.63,2.56-35.55,2.27-53.32,1.24-17.89-.97-35.74-3.19-53.7-3.16-4.23.09-8.92.25-13.48.98v1.8c.95-.15,1.91-.28,2.88-.38Z"/>
  <path class="cls-1" d="M.81,77.27c5.13-.25,10.27.06,15.41.28,47.66,2.48,97.72,4.56,142.6-13.44,28.28-11.28,57.18-22.42,87.56-27.21,23.65-3.64,47.66-3.63,71.57-2.92,0,0,.03-.96.06-1.92v-1.93c-20.63-.39-41.4-.29-61.93,2.23-2.73.3-7.57,1.1-10.26,1.47-3.03.59-7.14,1.27-10.17,1.94-26.93,5.75-52.51,15.99-77.74,26.34-44.4,18.32-94.24,16.69-141.66,14.72-2.61-.02-10.97-.58-16.25-.05v.56c.27-.02.54-.04.81-.06Z"/>
  <path class="cls-1" d="M317.87,71.02l-20.99,1.11c-21.05,1.14-42.27,2.07-63,5.96,0,0-5.2.98-5.2.98-2.48.57-6.54,1.47-9.02,2.06-2.33.62-6.6,1.77-8.92,2.39-2.87.89-7.2,2.19-10.06,3.1-2.83.98-7.11,2.44-9.93,3.43-7.22,2.67-14.83,5.69-21.93,8.64-10.83,4.71-22.33,10.09-33.94,12.84-33.95,8.58-69.5,6.32-104.22,4.52-8.77-.4-17.57-.87-26.35-.3-1.44.12-2.88.25-4.31.45v1.11c1.46-.2,2.93-.32,4.39-.42,8.72-.47,17.47.09,26.18.58,34.93,2.18,70.67,4.79,104.98-3.52,9.94-2.27,20.37-6.54,29.69-10.6,8.66-3.69,17.78-7.18,26.66-10.38,3.81-1.25,8.52-2.91,12.36-4.04,1.59-.47,5.97-1.77,7.48-2.21,1.69-.43,5.79-1.48,7.56-1.94,31.91-7.91,65.91-7.67,98.7-9.32v-2.22l-.13-2.21Z"/>
  <path class="cls-1" d="M232.69,106.19c-26.98,4.36-52.51,14.36-76.94,25.77-7.48,3.48-15.39,6.11-23.49,7.98-27.63,6.35-56.37,4.84-84.52,2.95-14.23-.86-28.46-2.32-42.75-1.32-1.66.15-3.33.33-4.99.58v1.56c.84-.13,1.67-.24,2.5-.34,14.99-1.36,30.1.49,45.08,1.51,28.36,2.19,57.38,3.97,85.38-2.18,7.88-1.75,15.64-4.17,22.99-7.43,11.94-5.38,24.2-10.61,36.61-14.9,13.25-4.61,26.89-8.18,40.82-10.34,27.89-4.16,56.52-3.97,84.62-6.95v-2.39c-.13-1.18-.27-2.36-.27-2.36-14.11,1.52-28.24,2.56-42.42,3.52-14.23.99-28.53,1.96-42.63,4.33Z"/>
  <path class="cls-1" d="M0,537v12.06c3.39-.43,6.86-.66,10.43-.67,21.4-.04,41.43,7.1,61.22,14.61h25.7c-28.13-10.52-60.76-28.89-97.34-26Z"/>
  <path class="cls-1" d="M316.97,442.59c-6.93,4.79-14.18,9.19-21.93,12.44-2.4,1.01-4.86,1.92-7.38,2.66l-1.5.44-1.52.38-.76.19s-.76.16-.76.16c-18.53,4.18-32.56-3.13-50.27-5.88-24.91-4.17-48.69,6.02-69.21,18.48-2.77,1.69-5.51,3.42-8.22,5.21-2.01,1.34-4.48,3.05-6.53,4.28-11.03,6.58-24.09,7.09-36.64,4.79-21.13-3.94-40.72-12.87-61.43-18.73-17.73-5.24-34.59-7.71-50.82-6.02v9.73c15.09-2.09,31-.08,48.23,4.64,20.9,5.51,41.06,14.19,62.67,17.73,14.91,2.46,30.56,1.14,43.2-7.43,1.58-1,3.76-2.61,5.31-3.67,4.33-2.97,8.73-5.84,13.26-8.51,15.9-9.4,34.03-17.23,53.15-16.15,20.89,1.16,36.12,10.78,58.27,5.41,12.48-2.97,23.74-9.59,33.91-16.81v-2.04l-1.03-1.3Z"/>
  <path class="cls-1" d="M317.04,456.44c-6.92,4.93-14.17,9.47-21.94,12.84-2.41,1.05-4.89,1.99-7.42,2.75-5.48,1.7-11.3,2.59-17.05,2.44-8.63-.18-16.76-2.63-25.08-4.84-6.37-1.72-13.06-3.21-19.75-3.7-27.21-2.02-52.53,12.44-73.84,26.88-.4.28-.89.59-1.3.85-.72.46-1.8,1.18-2.54,1.56-.75.42-1.87,1.05-2.64,1.38-37.51,18.1-89.83-28.87-145.47-22.99v10.13c53.41-7.36,104.96,38.74,147.24,19.73.94-.49,2.22-1.05,3.12-1.59.9-.54,2.13-1.19,2.99-1.79,3.53-2.36,7.09-5.01,10.64-7.36,18.08-11.89,38.8-22.99,61.45-21.78,15.31.67,29.66,7.6,45.12,7.59,17.82.14,33.79-8.98,47.44-19.04v-1.89c-.48-.59-.96-1.18-.96-1.18Z"/>
  <path class="cls-1" d="M317.11,470.29c-3.46,2.54-6.99,4.97-10.64,7.21-4.1,2.53-8.36,4.78-12.78,6.68-8.83,3.76-18.3,5.56-27.93,4.29-11.43-1.45-22.13-6.15-33.55-8-26.32-4.83-51.69,7.52-72.84,21.17-1.64,1.05-3.89,2.57-5.48,3.65-1.99,1.34-4.42,3.1-6.54,4.21-7.47,4.21-16.22,5.62-24.87,5-17.24-1.4-33.15-8.18-49.29-13.96-16.66-6.13-33.96-12.12-51.94-14.04-7.21-.8-14.3-.86-21.25-.18v10.48c2.52-.34,5.09-.57,7.7-.67,35.43-1.48,66.75,17,100.59,24.14,15.15,3.15,31.01,2.74,44.3-5.74,1.67-1.09,3.86-2.65,5.5-3.84,17.52-12.42,38.25-25.02,60.63-26.14,23.85-1.2,40.81,12.88,65.29,6.58,12.7-3.21,23.85-10.34,33.99-18.05v-1.73c-.45-.53-.89-1.06-.89-1.06Z"/>
  <path class="cls-1" d="M316.91,428.74c-17.5,11.87-36.63,20.36-58.43,15.72-8.41-1.55-16.7-4.06-25.3-5.25-6.6-.97-13.37-1.14-20.01-.41-20.84,2.39-39.84,12.58-56.96,23.56-.97.63-3.04,2.03-4.01,2.66-7.72,5.36-17.07,8.12-26.64,8.15-16.85,0-32.8-5.71-48.67-10.84-24.79-8.4-50.84-16.84-76.89-14.07v9.35c48.92-6.99,97.56,31.36,139.32,20.69,6.12-1.61,11.84-4.41,16.91-7.99,1.86-1.29,4.57-3.14,6.47-4.39,6.48-4.26,13.27-8.3,20.26-11.76,15.23-7.64,32.19-12.39,49.46-9.94,8.45,1.03,16.68,3.38,25.17,4.78,8.15,1.42,16.75,1.59,24.9-.1,13.01-2.68,24.84-9.26,35.49-16.57v-2.17c-.54-.71-1.09-1.42-1.09-1.42Z"/>
  <path class="cls-1" d="M317.19,484.15c-7.71,5.81-15.89,11.23-24.94,14.93-11.62,4.81-22.37,5.37-34.55,2.12-8.56-2.22-16.93-5.46-25.81-6.98-3.4-.62-6.85-.97-10.31-1.09-2.2-.06-4.76,0-6.95.16-20.52,1.61-39.38,11.8-56,22.61-3.11,2.01-6.34,4.37-9.44,6.37-8.1,5.22-18.03,6.95-27.73,5.93-17.34-1.85-33.25-8.99-49.49-14.97-25.15-9.86-48.78-16.29-71.98-14.23v10.89c13.58-1.8,27.98-.34,43.68,3.9,21.37,5.54,41.6,15.03,63.32,20.01,17.19,3.87,34.01,3.44,48.48-7.33,2.27-1.65,4.87-3.59,7.21-5.18,9.62-6.68,19.92-12.89,30.83-17.31,7.4-2.99,15.17-5.13,23.19-5.73,2.62-.17,5.35-.22,7.97-.06,15.61.66,29.83,8.49,45.59,8.74,18.2.39,34.24-9.68,47.74-20.3v-1.56c-.4-.46-.81-.93-.81-.93Z"/>
  <path class="cls-1" d="M316.8,387.24c-15.36,9.41-33.07,16.81-51.63,15.24-8.27-.55-16.37-2.43-24.59-3.75-6.89-1.13-13.95-1.76-20.95-1.44-21.13.97-40.69,10.11-58.29,20.58-3.05,1.82-6.31,3.89-9.29,5.81-6.93,4.48-14.97,7.14-23.33,7.82-24.79,1.66-48.47-8.52-72.09-14.67-18.87-5.28-37.97-8.83-56.64-6.6v8.26c17.2-2.53,35.38.39,54.49,5.54,20.34,5.21,40.45,12.61,61.74,14.18,14.82,1.05,28.74-1.78,40.87-10.23,2.45-1.64,5.24-3.41,7.72-4.95,10.31-6.34,21.3-12.1,32.87-15.95,7.9-2.62,16.14-4.27,24.51-4.5,14.44-.53,28.28,3.9,42.64,4.74,19.7,1.27,37.02-5.95,53.16-15.84v-2.48c-.6-.87-1.2-1.74-1.2-1.74Z"/>
  <path class="cls-1" d="M316.87,414.9c-15.23,10-33.15,18.28-52.03,16.17-8.39-.78-16.54-3.04-24.86-4.6-6.45-1.23-13.05-1.97-19.65-1.82-24.33.65-46.35,12.46-65.98,25.14,0,0-2.65,1.73-2.65,1.73-7.34,4.92-16.11,7.49-25.09,7.77-16.51.48-32.74-4.88-48.44-9.77-25.05-8.22-51.86-16.82-78.16-13.96v9.01c24.45-3.48,49.67,4.26,75.64,12.25,25.48,7.72,56.21,16.63,80-.04,12.69-8.7,26.09-16.82,40.82-22.01,14.1-5.05,27.74-6.09,42.53-3.37,15.97,2.91,28.6,6.68,45.2,2.91,12.29-2.76,23.57-8.83,33.81-15.6v-2.28c-.57-.77-1.13-1.53-1.13-1.53Z"/>
  <path class="cls-1" d="M316.77,359.59c-7.01,3.93-14.27,7.42-21.84,9.99-16.99,5.82-30.16,5.01-47.54,2.22-9.29-1.43-18.89-2.54-28.35-1.88-7.43.5-14.82,1.94-21.89,4.1-12.1,3.69-23.33,9.16-34.12,15.37-6.96,3.83-13.24,8.85-20.87,11.46-11.15,4.01-23.18,3.89-34.98,2.21-20.22-3.01-39.71-9.92-59.67-14.43-16.22-3.84-32.22-5.71-47.51-3.75v7.44c34.22-5.11,71.31,12.18,106.19,17.14,12.72,1.73,26.14,1.65,38.28-2.87,8.01-2.79,14.59-8.03,21.82-12.15.64-.39,1.95-1.14,2.6-1.51,16.29-9.29,34.33-17.08,53.53-17.78,12.31-.58,24.29,2.12,36.53,3.3,21.94,2.37,40.52-3.83,59.03-14.3v-2.63c-.61-.97-1.23-1.94-1.23-1.94Z"/>
  <path class="cls-1" d="M316.78,373.41c-17.52,10.41-36.63,17.2-57.48,14.23-8.22-.97-16.37-2.76-24.71-3.61-8.53-.92-17.24-.73-25.68.78-20.72,3.76-39.35,13.89-56.65,24.93-13.52,8.9-30.48,9.51-46.32,6.73-35.09-6.34-70.82-23.34-105.94-18.99v7.88c38.36-5.77,78.86,16.87,117.58,19,13.76.72,27.69-2.24,38.99-9.97,19.5-12.64,41.23-24.52,65.37-25.51,12.41-.56,24.44,2.35,36.75,3.72,22.23,2.7,40.8-3.87,59.31-14.79v-2.56c-.61-.92-1.22-1.84-1.22-1.84Z"/>
  <path class="cls-1" d="M317.29,498c-6.85,5.31-14.09,10.3-22,14.05-7.7,3.7-16.34,6.06-25.02,5.54-8.87-.44-17.02-3.53-25.43-6.19-12.42-4.09-24.48-5.95-37.58-3.54-20.53,3.7-39.66,15.39-56.22,27.04-.63.42-1.92,1.27-2.54,1.68-.79.43-1.84,1.07-2.65,1.47-1.32.64-2.77,1.32-4.15,1.81-6.74,2.52-14,2.87-21.21,2.02-8.5-1.02-16.81-3.61-24.9-6.46-16.7-5.98-33.21-13.49-50.45-18.44-15.64-4.6-30.6-6.58-45.12-5.32v11.25c1.42-.19,2.85-.34,4.28-.46,35.94-2.7,67.69,16.28,101.45,24.83,13.8,3.43,29.14,4.4,42.15-2.23l1.61-.82c.49-.24,1.06-.64,1.55-.91l1.54-.93s1.46-1.02,1.46-1.02c.7-.48,2.08-1.48,2.75-1.99,7.11-5.32,14.59-10.37,22.35-14.79,10.04-5.61,20.8-10.39,32.35-12.18,2.09-.33,4.27-.56,6.39-.65,8.7-.5,17.24,1.22,25.59,3.67,9.68,2.84,19.79,6.2,30.14,5.64,17.09-.86,31.77-10.71,44.39-20.92v-1.37l-.71-.8Z"/>
  <path class="cls-1" d="M316.83,401.07c-15.3,9.71-33.11,17.53-51.83,15.71-6.24-.51-12.25-1.76-18.44-2.99-8.4-1.7-17.08-3.09-25.77-2.84-25.28.68-47.96,13.07-68.27,26.24-7.33,4.94-15.86,7.75-24.86,8.23-16.36.89-32.59-4.05-48.21-8.72-24.47-7.45-49.59-16.14-75.81-14.16-1.22.08-2.43.2-3.64.34v8.68c12.36-1.83,25.86-.98,40.81,2.39,24.86,5.19,48.49,15.5,74.08,18.03,13.86,1.38,28.59-.92,40.13-8.73.9-.56,3.01-2,3.91-2.59,21.63-14.31,47.09-27.39,74.27-23.88,8.34.91,16.53,2.92,24.93,4.06,9.18,1.3,18.68,1.15,27.7-1.1,11.59-2.8,22.34-8.38,32.17-14.64v-2.39c-.58-.82-1.17-1.64-1.17-1.64Z"/>
  <path class="cls-1" d="M317.43,153.07c-14.22,2.95-28.6,4.9-43.12,5.94-14.63,1.08-29.36,1.3-43.97,3.19-25.79,3.17-50.18,12.65-73,24.12-1.17.59-3.66,1.8-4.84,2.37-4.83,2.24-9.87,4.06-15.05,5.48-24.65,6.59-50.52,4.6-75.74,2.06-18.01-1.6-42.68-5.68-61.71-2.53v2.56c18.76-3.08,43.83,1.28,61.35,2.98,25.47,2.79,52.02,4.98,77.14-1.56,5.4-1.44,10.69-3.29,15.75-5.59,1.24-.59,3.72-1.76,4.95-2.38,70.28-34.82,90.85-18.36,158.8-31.47v-2.64c-.29-1.27-.57-2.53-.57-2.53Z"/>
  <path class="cls-1" d="M317.39,511.87c-8.12,6.44-16.77,12.49-26.52,16.46-3.52,1.41-7.23,2.53-10.99,3.16-7.55,1.31-15.29.27-22.55-1.95-10.77-3.3-21.47-7.96-32.99-8.84-21.23-1.82-41.29,7.56-58.62,18.21-3.85,2.36-7.6,4.86-11.29,7.43-3.2,2.23-5.93,4.34-9.34,5.97-16.08,7.99-34.72,2.01-50.57-3.83-16.81-6.34-33.25-13.98-50.8-19.01-15.12-4.4-29.62-6.28-43.72-5.11v11.63c.08-.01.16-.02.24-.03,40.66-5.37,80.53,21.65,114.95,27.04h21.07c4.26-.83,8.4-2.24,12.41-4.37.98-.48,2.21-1.23,3.15-1.82.47-.28,1.06-.66,1.5-1,3.85-2.73,6.99-5.25,10.76-7.87,12.39-8.61,25.72-16.6,40.61-20.54,31.69-8.27,46.48,10.46,72.31,7.6,15.78-1.94,29.34-11.58,40.99-21.3v-1.17c-.31-.33-.61-.66-.61-.66Z"/>
  <path class="cls-1" d="M317.35,166.78c-21.39,5.14-43.3,6.95-65.33,7.69-3.55.17-7.58.38-11.12.64-18.66,1.15-37.13,5.2-54.44,11.9-11.21,4.24-22.04,9.43-32.66,14.84-2.29,1.17-4.93,2.3-7.34,3.25-42.1,15.69-87.48.81-130.87.26-5.1-.03-10.42.27-15.6,1.14v2.87c12.32-2.07,25.09-.86,37.51.36,22.04,2.37,44.06,6.08,66.32,6.06,17.06.02,34.51-2.36,50.01-9.49,1.36-.65,3.03-1.46,4.38-2.13,22.53-11.35,46.59-20.78,72.12-23.45,4.47-.52,9.14-.85,13.65-1.11,10.15-.54,20.26-.72,30.46-1.38,14.64-.93,29.25-3.02,43.55-6.19v-2.69c-.32-1.27-.65-2.55-.65-2.55Z"/>
  <path class="cls-1" d="M317.28,180.5c-14.22,3.65-28.73,6.08-43.43,7.11-17.16,1.25-34.58.74-51.68,3.4-2.19.37-4.79.78-6.97,1.24-2.12.39-4.81,1.03-6.91,1.52-11.37,2.81-22.46,6.84-33.11,11.5-7.22,3.18-14.26,6.69-21.24,10.31-1.55.8-3.26,1.59-4.86,2.3-14.58,6.29-30.88,8.13-46.79,7.93-22.28-.26-44.27-4.24-66.41-6.49-11.17-1.08-22.6-1.82-33.82-.34-.69.09-1.38.2-2.06.31v3.13c4.44-.74,8.98-1.03,13.44-1.08,29.78.16,58.96,7.87,88.79,8.24,16.05.29,32.42-1.38,47.32-7.43,2.6-1.02,5.23-2.3,7.72-3.55,9.69-4.97,19.73-9.66,29.98-13.53,10.24-3.87,20.79-6.95,31.62-8.83,10.88-1.89,21.86-2.47,32.96-2.77,22.21-.3,44.64-2.18,66.18-7.68v-2.74c-.36-1.28-.72-2.56-.72-2.56Z"/>
  <path class="cls-1" d="M317.5,139.37c-21.35,4.03-43,5.48-64.71,6.74-14.6.92-29.33,2.65-43.49,6.37-14.19,3.64-27.83,8.92-41.06,14.89-6.53,2.9-12.95,6.39-19.5,9.11-13.2,5.36-27.58,7.66-41.87,8.33-21.76,1.02-43.42-1.57-65.06-3.56-13.84-1.1-28.01-2.66-41.82-.38v2.27c13.67-2.12,27.79-.53,41.54.72,21.73,2.2,43.56,4.98,65.48,4.14,11.03-.42,22.08-1.79,32.7-4.73,10.69-2.73,20.29-8.1,30.21-12.49,19.56-8.69,40.14-15.59,61.62-18.26,14.25-1.86,28.77-2.15,43.35-3.1,14.43-.9,28.86-2.5,43.09-4.95v-2.59c-.25-1.25-.5-2.5-.5-2.5Z"/>
  <path class="cls-1" d="M317.21,194.23c-7.11,1.98-14.31,3.67-21.58,4.97-19.72,3.8-39.89,3.13-59.92,4.22-9.96.65-19.93,2.08-29.57,4.58-15.61,3.97-30.4,10.27-44.61,17.44-1.58.83-5.8,3.02-7.43,3.87-9.59,5.08-20.28,7.98-31.2,9.26-22.21,2.56-44.59-.81-66.61-3.79-18.56-2.4-37.54-5.54-56.29-2.67v3.43c10.97-1.87,22.41-1.08,33.5.02,22.38,2.4,44.53,6.97,67.12,7.81,18.98.77,38.79-1.4,55.68-10.27,0,0,4.93-2.53,4.93-2.53,21.91-11.27,45.63-20.22,70.67-22.03,2.56-.19,5.75-.39,8.32-.5,11.26-.44,22.48-.3,33.8-1.06,14.87-.92,29.66-3.54,43.99-7.41v-2.77c-.4-1.28-.79-2.56-.79-2.56Z"/>
  <path class="cls-1" d="M317.14,207.97c-14.21,4.32-28.83,7.28-43.73,8.27-7.44.52-14.93.63-22.5.71-15.29.05-30.76.98-45.56,4.9-18.04,4.6-34.93,12.44-51.09,21.16-10,5.44-21.23,8.38-32.71,9.5-30.08,2.8-59.77-4.97-89.63-7.88-10.53-1-21.38-1.45-31.92.24v3.74c17.85-2.82,36.08.27,53.84,2.82,22.35,3.37,45.33,7.44,68.17,5.36,12.49-1.11,24.93-4.49,35.83-10.53,15.42-8.19,31.68-15.52,48.81-19.81,14.44-3.74,29.41-4.52,44.32-4.5,7.55-.04,15.18-.11,22.83-.61,14.99-.91,29.87-3.8,44.2-8.03v-2.8c-.43-1.27-.86-2.55-.86-2.55Z"/>
  <path class="cls-1" d="M317.58,125.68c-21.31,3.47-42.83,4.75-64.39,6.23-9.93.75-19.96,1.81-29.77,3.68-11.63,2.16-23.03,5.46-34.07,9.49-9.34,3.39-18.43,7.3-27.39,11.48-2.75,1.3-6.89,3.32-9.65,4.58-7.23,3.19-14.87,5.55-22.71,7.13-28.23,5.7-57.3,2.65-85.81.24-10.81-.89-21.68-1.83-32.57-1.53-3.71.14-7.51.39-11.23.99v2.03c7.21-1.2,14.76-.99,22.03-.74,28.86,1.58,57.52,6.51,86.57,4.79,15.5-.87,31.02-3.64,45.22-9.79,5.53-2.51,11.51-5.38,17.08-7.77,19.5-8.47,39.99-15.27,61.25-18.09,28.33-3.55,57.51-3.12,85.83-7.71v-2.53c-.21-1.23-.42-2.46-.42-2.46Z"/>
  <path class="cls-1" d="M317.62,539.6c-3.43,2.87-6.95,5.65-10.61,8.23-7.59,5.33-15.87,10.04-25.13,12.12-8.51,1.9-16.78.73-24.94-2.1-9.72-3.36-19.29-7.89-29.73-9.38-3.25-.48-6.55-.69-9.84-.67-16.1.3-31.86,6.89-46.06,15.18h12.52c10.44-5.61,21.57-9.74,32.87-10.47,4.39-.28,8.82-.02,13.14.74,11.64,1.92,22.7,7.73,34.37,9.74h15.1c14.85-2.65,27.91-12.75,38.68-22.3v-.72c-.19-.19-.38-.39-.38-.39Z"/>
  <path class="cls-1" d="M317.5,525.73c-7.69,6.26-15.85,12.18-25.04,16.27-3.5,1.57-7.2,2.83-10.99,3.61-8.14,1.76-16.48.67-24.34-1.91-8.6-2.76-17.11-6.56-26.13-8.3-14.04-2.96-28.52-.39-41.54,4.94-11.76,4.73-22.64,11.28-32.96,18.36-1.72,1.17-4.2,2.94-5.89,4.16-.06.04-.13.09-.21.14h11.97c16.4-11.89,36.5-23.79,57.16-24.14,3.52-.03,7.12.23,10.59.83,15.69,2.57,30.33,11.7,46.79,9.51,15.84-1.93,29.56-12.07,41.08-21.98v-.95c-.25-.26-.5-.53-.5-.53Z"/>
  <path class="cls-1" d="M317.76,553.47c-3.43,2.94-6.95,5.78-10.61,8.43-.51.37-1.03.74-1.55,1.1h2.07c3.61-2.82,7.05-5.83,10.33-8.82v-.47c-.12-.12-.24-.24-.24-.24Z"/>
</svg>