<?xml version="1.0" encoding="UTF-8"?>
<svg id="Layer_1" data-name="Layer 1" xmlns="http://www.w3.org/2000/svg" viewBox="0 0 316 563">
  <defs>
    <style>
      .cls-1 {
        fill: #f8f7ec;
      }
    </style>
  </defs>
  <path class="cls-1" d="M1.1,145.49c12.75-16.08,34.04-42.35,54.37-47.21.13-.03.26-.05.39-.07l1.55-.29c.26-.06.52-.08.78-.1l.78-.08s.78-.08.78-.08c.76-.01,1.6-.06,2.35-.03l1.57.1c.26,0,.52.07.78.1,11.62,1.59,20.23,11.41,27.67,19.72,12.22,14.03,24.93,30.13,43.96,34.52,4.22.91,8.9,1.5,13.18,2.04,3.14.39,6.78.74,9.93.98,4.35.4,8.92.75,13.28.92,23.39.96,46.99-2.24,69.21-9.65,27.78-9.28,53.34-24.84,74.74-44.83v-12.99c-7.06,7.96-14.85,15.29-23.07,22.05-21.07,17.19-45.72,30.15-72.05,37.12-15.88,4.25-32.37,6.35-48.8,6.42-4.9,0-9.97-.09-14.85-.53-3.64-.33-7.86-.87-11.48-1.39-3.12-.47-6.64-1.01-9.72-1.71-20.97-5.17-33.34-24.36-47.05-39.44-8.09-8.86-17.87-17.23-30.68-16.06-12.73,1.12-24.47,10.31-33.6,18.61-9.1,8.46-17.34,17.73-25.14,27.39v5.91c.37-.47.73-.95,1.1-1.42Z"/>
  <path class="cls-1" d="M172.81,239.27c-1.85.35-7.16,1.29-9.05,1.65-6.04,1.09-12.13,1.82-18.22,2.47-.55.05-1.74.22-2.28.25-.47.04-1.77.11-2.25.15-.98-.01-2.02.03-3-.06-32.05-2.13-47.98-52.22-85.19-50.77-18.87.89-37.5,14.92-52.82,29.98v7.76c6.53-7.03,13.46-13.67,21-19.57,5.9-4.49,12.32-8.62,19.22-11.31,43.89-17.16,61.11,43.82,97.71,45.42,1.03.07,2.11,0,3.14,0,1.45-.11,3.18-.3,4.63-.52,2.08-.29,7.13-.95,9.13-1.27,4.76-.71,10.4-1.36,15.22-2.09,5.8-.83,12.45-1.92,18.2-2.96,18.11-3.22,36.25-7.42,53.99-12.31,25.23-7.03,50.09-15.49,74.2-25.73v-8.35c-37.26,17.9-76.56,31.59-116.7,41.42-8.75,2.12-18.11,4.13-26.94,5.85Z"/>
  <path class="cls-1" d="M5.49,168.29c6.22-7.24,12.82-14.26,19.98-20.58,11.64-10.1,27.27-20.99,43.28-15.38.48.18.97.33,1.44.53l1.41.61.35.15.34.18s.69.35.69.35c7.53,3.9,13.53,10,19.35,16.11,11.2,11.81,22.06,25.47,37.93,31.06.51.15,1.82.57,2.35.73,3.15.86,6.42,1.35,9.68,1.51,5.29.38,10.83.58,16.12.66,20.47.68,41.09-1.02,61.1-5.43,35.02-7.67,68.36-23.07,96.9-44.78v-11.16c-14.32,12.81-30.43,23.64-47.42,32.6-21.64,11.36-45.05,19.44-69.11,23.73-11.53,2.07-23.33,3.3-35.04,3.66-7.42.31-15.05-.15-22.45-.77-3.15-.21-6.31-.72-9.34-1.61-.5-.17-1.77-.57-2.25-.74-.47-.18-1.72-.68-2.2-.87-.47-.22-1.7-.77-2.15-.99-.48-.24-1.61-.84-2.1-1.1-16.02-9.09-25.95-25.26-39.39-37.42-2.84-2.56-5.91-4.97-9.23-6.91-.79-.49-1.74-.95-2.57-1.4-.35-.16-1.48-.67-1.91-.87-2.06-.86-4.25-1.52-6.45-1.95-5.54-1.05-11.31-.42-16.64,1.35-16.6,5.42-33.91,22.14-48.21,38.67v6.59c1.8-2.21,3.63-4.39,5.49-6.55Z"/>
  <path class="cls-1" d="M22.84,135.19c9.86-9.44,23.76-21.13,38.07-20.96,7.42,0,14.22,3.68,19.82,8.32,13.72,11.56,23.45,27.52,38.54,37.57,6.4,4.35,13.83,7.29,21.57,8.04,9.19,1.1,18.53,1.57,27.77,1.92,53.58,1.86,107.04-17.7,147.83-52.33v-12.09c-13.56,13.7-29.17,25.38-45.89,34.96-34.61,19.82-75.06,29.62-114.95,27.49-4.14-.28-8.85-.74-12.96-1.27-2.11-.27-4.31-.51-6.37-1.03-5.74-1.28-11.14-3.88-15.97-7.22-15.61-10.72-25.15-27.86-39.88-39.61-7.59-5.87-15.79-8.85-25.44-7.22-.6.13-1.86.38-2.5.53-.48.14-2.01.57-2.45.7-.27.08-.53.19-.8.28l-1.59.57s-.4.14-.4.14c-16.56,6.82-33.26,23.83-47.24,40.63v6.24c7.12-8.99,14.63-17.67,22.84-25.67Z"/>
  <path class="cls-1" d="M134.94,422.42c6.23-.22,11.97-3.42,16.31-7.74,3.51-3.45,7.15-6.92,11.1-9.86,6.3-4.69,13.21-8.85,20.3-12.25,32.29-15.46,69.68-16.16,104.33-9.53,9.94,1.94,19.81,4.39,29.45,7.51v-4.46c-39.97-11.63-84.27-14.71-123.4.48-8.3,3.27-16.42,7.48-23.84,12.45-4.12,2.71-8.1,5.88-11.97,8.94-2.25,1.81-4.64,3.89-6.8,5.84-.27.25-.82.72-1.11.95-36.91,30.37-72.44-74.01-147.2-41.06-.71.31-1.42.64-2.13.97v10.12c62.04-37.08,99.3,38.4,134.94,37.63Z"/>
  <path class="cls-1" d="M21.4,181.11c3.82-3.24,8.08-6.52,12.32-9.18,36.06-22.7,52.5,7.42,76.95,28.94,5,4.3,10.55,8.2,16.71,10.67,2.71,1.05,5.61,1.89,8.49,2.29,3.02.52,6.46.41,9.52.28,3.7-.13,8.91-.31,12.56-.59,6.01-.26,12.83-.66,18.82-1.28,5.16-.47,12.09-1.33,17.19-2.08,2.87-.48,8.05-1.25,10.88-1.82,13.34-2.42,26.85-5.77,39.81-9.78,24.99-7.81,49.22-18.27,71.79-31.59v-9.6c-8.93,6.06-18.26,11.54-27.79,16.63-25.64,13.59-53.13,23.97-81.39,30.61-1.47.34-3.85.9-5.32,1.24l-.76.16s-6.12,1.25-6.12,1.25c-1.71.38-4.41.84-6.14,1.14-3.06.57-9.27,1.54-12.35,1.94-11.85,1.73-23.87,2.6-35.85,2.41-2.8-.07-5.62-.56-8.32-1.29-2.67-.78-5.35-1.86-7.8-3.18-15.74-8.63-25.74-24-39.21-35.57-18.45-16.34-36.32-15.55-56.45-2.46-10.71,7.07-20.17,16-28.92,25.33v7.2c6.67-7.68,13.72-15.02,21.4-21.66Z"/>
  <path class="cls-1" d="M3.84,311.59c66.9-51.81,94.9,32.15,133.86,28.91.94-.09,2.09-.26,3.01-.48l.75-.15.73-.21,1.46-.43,1.41-.55.71-.27.68-.33c4.46-2.11,8.76-4.58,13.32-6.49l2.71-1.17c10.78-4.53,22.2-8.49,33.42-11.78,18.79-5.49,38.31-9.45,57.71-12,20.81-2.67,41.85-4.06,62.83-3.6v-5.86c-10.32.13-20.64.71-30.92,1.59-27.6,2.43-55.15,7.36-81.72,15.27-1.19.36-5.95,1.84-7.1,2.19-2.59.87-5.86,1.95-8.45,2.84-5.87,2.11-12.28,4.5-18,6.93-3.15,1.33-7.8,3.35-10.85,4.8-3.7,1.64-8.44,3.82-12.14,5.54-.74.31-1.92.87-2.68,1.11-37.4,13.39-61.45-68.17-123.71-43.56-5.71,2.31-11.13,5.19-16.28,8.53-1.55,1-3.08,2.04-4.6,3.11v9.18c1.26-1.05,2.54-2.08,3.84-3.08Z"/>
  <path class="cls-1" d="M198.78,260.85c-17.6,4.63-36.3,9.93-54.09,13.65-.48.08-1.72.31-2.18.39-.5.07-1.68.17-2.2.23-37.64,2.25-55.89-69.83-111.57-44.45-10.6,5.02-20.03,11.93-28.74,19.7v8.3c6.45-6.43,13.31-12.43,20.78-17.59,58.43-39.86,78.02,36.95,118.11,35.58,1.2-.03,2.65-.22,3.84-.39.48-.1,1.76-.36,2.26-.47,15.37-3.96,33.04-7.5,48.53-11.13,41.08-9.43,82.16-19.58,122.93-30.49v-7.32c-14.03,4.35-28.24,8.61-42.21,12.72-24.91,7.32-50.39,14.49-75.45,21.27Z"/>
  <path class="cls-1" d="M75.93,270.49c13.55,8.23,24.44,20.08,37.41,29.25,4.76,3.33,9.94,6.25,15.59,7.76,3.21.82,6.59,1.17,9.89.84.85-.03,2.2-.31,3.03-.43.71-.15,1.51-.39,2.22-.55,4.7-1.52,10.12-3.67,14.79-5.22,3.29-1.11,7.99-2.58,11.38-3.54,10.47-3.17,23.87-6.89,34.44-9.49,26.76-6.77,54.3-12.24,81.6-16.53,10-1.54,20.08-2.96,30.17-4.16v-6.51c-4.49.69-8.97,1.41-13.43,2.19-33.25,5.72-66.58,13.21-99,22.56-12.66,3.55-27.37,8.34-39.84,12.56-5.4,1.99-11.43,3.99-16.94,5.77-1.34.43-2.84.94-4.22,1.23-.85.21-1.97.39-2.86.49-.94.13-1.94.16-2.89.18-37-.03-59.74-79.5-126.01-37.1-3.88,2.5-7.62,5.23-11.24,8.11v8.74c2.48-2.26,5.02-4.45,7.64-6.55,21.27-17.08,43.51-25,68.29-9.6Z"/>
  <path class="cls-1" d="M5.74,295.87c8.23-6.44,17.36-12.15,27.4-15.21,19.78-6.27,37.34,1.6,52.94,13.79,13,9.56,27.25,25.23,43.01,29.23,4.44,1.14,9.19,1.07,13.62-.09,3.38-.93,7.82-3.11,11.09-4.49,8.99-3.85,18.62-6.94,27.92-9.94,41.47-12.83,84.54-20.28,127.83-23.09,2.3-.14,4.6-.27,6.9-.38v-6.17c-2.46.2-4.91.42-7.37.65-49.36,4.93-98.36,15.53-144.61,33.61-5.79,2.35-12.13,4.8-17.96,7.12-.5.16-1.55.6-2.05.74-.68.18-1.41.41-2.09.58-.51.08-1.62.34-2.13.4-.7.06-1.45.19-2.15.22,0,0-1.44.04-1.44.04-35.77-.21-60.06-76.9-124.81-39.12-4.1,2.37-8.04,5.1-11.84,7.95v8.97c1.88-1.64,3.79-3.24,5.74-4.79Z"/>
  <path class="cls-1" d="M8.93,322.27c29.09-18.64,52.09-13.34,78.35,6.87,13.03,9.4,29.77,26.7,46.21,27.64.47.08,1.83,0,2.3.03.42.02,1.12-.1,1.53-.12,1.01-.07,2.03-.28,3.02-.48.88-.24,2.07-.52,2.92-.87.43-.18,1-.33,1.42-.54.8-.38,1.96-.87,2.72-1.33,4.31-2.38,8.46-5.09,12.91-7.2,0,0,2.65-1.3,2.65-1.3,2.46-1.21,6.9-3.09,9.43-4.22,2.52-1.01,5.69-2.26,8.22-3.27,2.58-.91,7.16-2.6,9.74-3.41,1.41-.45,4.2-1.35,5.61-1.79,14.95-4.54,30.51-7.85,46-9.94,22.31-3.01,44.98-3.78,67.45-2.43,2.36.15,4.71.32,7.07.51v-5.59c-10.21-.54-20.44-.57-30.65-.22-30.41,1.1-60.85,5.96-89.77,15.55-1.7.6-4.61,1.62-6.3,2.22-2.59.9-7.12,2.73-9.69,3.72-2.51,1.08-5.67,2.44-8.17,3.53-2.5,1.2-6.91,3.23-9.34,4.51-2.07,1.07-4.52,2.36-6.6,3.36-.88.46-5.55,2.96-6.54,3.48-.93.5-2.31,1.22-3.25,1.68-.47.21-1.49.64-2,.84-.4.16-.94.32-1.36.46-35.96,11.22-62.22-69.38-125.28-44.04-.37.14-1.07.42-1.42.59l-2.82,1.25c-.92.45-1.83.91-2.75,1.36-.87.42-1.84.94-2.71,1.44-.75.41-1.97,1.09-2.67,1.5-1.73,1.03-3.44,2.11-5.13,3.22v9.37c2.88-2.26,5.85-4.4,8.93-6.4Z"/>
  <path class="cls-1" d="M198.48,274.57c-10.57,3.01-24.01,6.93-34.53,10.09-6.5,2.02-13.56,4-20.17,5.66-.73.21-2.15.37-2.88.5-.7.05-1.43.12-2.18.16-.72-.01-1.47.02-2.18-.01-.9-.08-1.99-.12-2.89-.3-.51-.09-.89-.11-1.43-.25-2.61-.54-5.16-1.47-7.57-2.59-7.34-3.57-13.56-8.95-19.58-14.41-11.83-10.76-23.4-23.03-38.71-28.94-20.1-7.79-39.6.05-56.26,11.82-3.47,2.47-6.82,5.11-10.09,7.86v8.51c3.07-2.93,6.23-5.76,9.51-8.46,1.23-1.03,2.78-2.18,4.02-3.18,1.63-1.18,3.67-2.71,5.36-3.79,2.18-1.5,5.14-3.24,7.47-4.49.21-.12.42-.24.64-.35l.65-.32,1.3-.64c.43-.21.86-.43,1.3-.63,0,0,1.32-.57,1.32-.57,20.06-8.82,37-3.32,53.5,9.72,11.03,8.45,20.76,18.99,32.66,26.44.41.24,1.59.93,1.97,1.16.46.25,1.54.81,2.03,1.08.43.21,1.67.78,2.08.98,2.12.9,4.3,1.68,6.55,2.19.23.05,1.71.34,1.89.38.28.03.85.11,1.15.15,1.47.2,3.13.26,4.61.2.91,0,2.13-.18,3.06-.26.46-.08,1.83-.35,2.26-.42,1.13-.3,2.55-.66,3.66-1.02,7.42-2.32,15.51-4.63,23.06-6.51,48.32-12.51,97.31-23.61,146.38-33v-6.93c-10.34,2.37-20.65,4.83-30.95,7.34-28.96,7.05-58.34,14.78-87.02,22.87Z"/>
  <path class="cls-1" d="M139.59,17.3c1.57.68,4.67,1.97,6.25,2.65,2.02.85,5.19,1.99,7.24,2.8,6.1,2.2,12.31,4,18.56,5.71,2.13.62,5.38,1.3,7.57,1.83,17.9,3.76,36.74,4.05,54.5-.65,19.88-5.17,37.02-15.84,51.57-29.63h-11.2c-12.81,11.89-27.86,21.07-45.37,25.91-28.44,7.73-58.98,2.85-85.79-9.01-2.07-.84-4.98-2.17-7.03-3.14-1.67-.79-3.59-1.62-5.19-2.5-5.84-3.05-11.25-6.88-16.16-11.26h-2.34c5.33,4.97,11.28,9.3,17.74,12.7,2.96,1.58,6.62,3.14,9.65,4.6Z"/>
  <path class="cls-1" d="M135.43.39c3.13,1.61,7.54,3.55,10.74,5,1.93.78,4.95,2.03,6.86,2.8,1.94.7,5.04,1.85,6.97,2.53.58.19,4.08,1.28,4.72,1.48,2.1.7,5.44,1.64,7.58,2.29,1.1.34,2.71.71,3.83,1,1.13.27,2.73.72,3.85.94,1.34.27,4.55.95,5.84,1.19,1.28.2,4.56.73,5.9.93,1.34.15,4.66.51,5.95.65,1.92.1,4.07.28,5.98.35,3.31.07,6.69.06,10.01-.12,1.42-.03,4.51-.39,6-.5,1.66-.2,3.32-.47,4.98-.69,16.45-2.64,31.15-9.14,44.15-18.24h-11.92c-9.91,6.4-20.92,11.17-33.07,13.73-1.57.29-3.15.63-4.73.9-1.42.17-4.32.66-5.74.76-3.19.34-6.44.5-9.65.6-1.86.03-3.95-.06-5.82-.05-1.28-.06-4.51-.28-5.82-.34,0,0-3.87-.41-3.87-.41-1.15-.11-2.74-.29-3.86-.49-2.23-.32-5.51-.85-7.69-1.34-2.95-.53-6.61-1.49-9.52-2.22-4.29-1.28-8.75-2.86-12.98-4.4-2.11-.8-5.14-2.06-7.27-2.92-2.49-1.1-5.68-2.51-8.45-3.82h-3.79c.28.13.55.26.83.39Z"/>
  <path class="cls-1" d="M121.51,22.78c5.19,3.68,11.07,6.46,16.91,8.9.84.38,2.66,1.14,3.52,1.46,4.66,1.87,9.55,3.72,14.33,5.2,3.52,1.15,7.45,2.18,11,3.17,1.24.31,4.34,1.12,5.55,1.42,1.73.42,4.8,1,6.55,1.4,2.1.33,4.51.81,6.62,1.09,1.31.15,4.45.58,5.71.69,1.85.13,3.9.35,5.75.44,1,.04,4.35.14,5.29.18,1.19-.01,3.14-.03,4.34-.05,1.82,0,4.92-.25,6.75-.34,1.39-.15,3.41-.35,4.81-.5,32.33-3.97,59.15-21.6,79.94-45.85h-11.25c-18.34,21.54-42.06,37.51-71.15,41.94-1.09.15-2.59.44-3.69.53-2.16.24-5.29.57-7.44.65-.68.03-2.12.15-2.8.15-2.57.03-5.88.12-8.43-.03-1.09-.03-2.68-.07-3.75-.18-2.16-.14-5.37-.4-7.49-.7-1.05-.13-2.71-.3-3.74-.48-2.14-.35-5.35-.82-7.43-1.29-4.82-.88-9.95-2.33-14.61-3.85-5.35-1.64-10.77-3.75-15.98-5.83-1.18-.5-3.96-1.73-5.21-2.26-14.02-5.79-25.51-16.23-34.61-28.19-.12-.15-.23-.3-.35-.45h-1.97c6.51,8.64,13.87,16.64,22.84,22.78Z"/>
  <path class="cls-1" d="M176.88,1.45c23.28,5.86,44.31,4.91,63.09-1.45h-10.17c-.46.12-.93.23-1.4.34-16.34,3.98-33.22,3.28-49.54-.34h-7.42c1.8.51,3.61,1,5.44,1.45Z"/>
  <path class="cls-1" d="M201.62,562.56h.75c7.14-1.62,14.74-1.49,22.58,0h1.27c-8.36-1.71-16.66-1.93-24.6,0Z"/>
  <path class="cls-1" d="M13.71,0h-1.34C8.15,6.35,4.04,12.79,0,19.26v1.97C4.47,14.09,9.02,7,13.71,0Z"/>
  <path class="cls-1" d="M17.41,38.33C25.06,28.35,40.55,7.27,55.08,0h-3.79c-6.43,3.93-12.25,9.83-16.72,14.49C21.77,28.54,10.59,43.91,0,59.68v3.43c5.62-8.39,11.39-16.68,17.41-24.79Z"/>
  <path class="cls-1" d="M24.54,88.72c3.8-4.1,7.9-8.19,12.16-11.81,6.63-5.59,14.44-11.19,23.19-12.4,10.53-1.42,18.77,5.55,25.41,12.84,9.17,10.17,16.93,21.68,27.27,30.79,3.88,3.43,8.14,6.56,12.72,8.98,1.17.66,2.69,1.33,3.9,1.91.53.21,1.87.76,2.42.98,2.68,1.01,5.52,1.79,8.31,2.41,4.85,1.17,10.23,2.21,15.16,3.02.42.07,1.27.22,1.7.26,3.28.46,6.9.99,10.21,1.43,3.3.41,6.94.76,10.28.98.87.08,2.56.17,3.44.2,25.4,1.32,50.98-3.22,74.32-13.63,23.43-10.43,44.23-26.21,61.4-45.22v-15.11c-6.15,8.49-13.06,16.45-20.5,23.83-29.12,28.88-67.13,46.46-108.37,47.72-5.56.22-11.45.14-17-.21-2.6-.11-5.9-.45-8.49-.69-1.97-.25-3.94-.56-5.91-.85-1.48-.26-4.38-.8-5.87-1.06-3.73-.75-7.96-1.69-11.65-2.61-.92-.2-2.35-.65-3.26-.9-1.83-.56-3.75-1.33-5.51-2.07-.48-.23-1.78-.85-2.28-1.09-.86-.43-1.75-.95-2.6-1.39-1.54-.9-3.14-1.94-4.62-2.95-10.71-7.58-18.7-18.1-26.83-28.25-10.63-13.15-22.19-26.97-40.86-19.97C33.68,70.98,12.94,96.93,0,113.88v5.11c.3-.4.59-.81.89-1.21,7.43-10.04,15.17-19.9,23.66-29.06Z"/>
  <path class="cls-1" d="M17.36,23.8c4.19-5.63,11.02-15.15,18.77-23.8h-2.14c-6.42,7.25-12.23,15.05-17.94,22.85-5.52,7.67-10.84,15.47-16.04,23.36v2.95c5.62-8.57,11.38-17.04,17.36-25.35Z"/>
  <path class="cls-1" d="M20.14,108.34c4.46-4.92,9.23-9.7,14.27-14.03,5.03-4.27,10.45-8.19,16.47-10.83l1.51-.59.76-.29c.25-.09.51-.16.77-.24l1.55-.47,1.57-.35c.26-.05.52-.13.79-.16l.79-.11.79-.11c.13-.02.26-.04.4-.05l.4-.02,1.59-.09,1.59.05c.13,0,.27,0,.4.02l.4.05.79.1c.26.04.53.05.79.1l.78.17.78.16c.26.04.51.14.77.21l.77.23c.26.07.51.15.76.25,7.25,2.66,12.88,8.31,18.01,13.91,13.93,15.76,27.03,35.27,48.69,40.54,1.9.49,4.69.99,6.64,1.37,3.16.6,6.81,1.19,10.01,1.62,4.98.68,10.12,1.23,15.11,1.74,10.68.95,21.45,1.04,32.17.17,44.07-3.37,85.47-24.79,116.18-56.22v-14.06c-28.61,35.91-70.64,61.54-116.51,67.15-14.35,1.76-29.05,2.03-43.43.27-4.29-.61-9.01-1.33-13.24-2.19-2.23-.45-5.15-1.02-7.34-1.62-.51-.14-1.86-.6-2.37-.74-43.19-14.42-49.53-87.61-103.57-39.93-11.05,10.03-20.81,21.3-29.97,33.06v5.53c6.37-8.48,13.02-16.74,20.14-24.59Z"/>
  <path class="cls-1" d="M4.51,0h-.91C2.39,1.94,1.19,3.88,0,5.83v1.44C1.49,4.84,3,2.42,4.51,0Z"/>
  <path class="cls-1" d="M17.33,9.27c1.99-2.76,4.24-5.92,6.7-9.27h-1.84C14.37,10.63,6.73,22.19,0,32.73v2.46c5.62-8.75,11.37-17.41,17.33-25.93Z"/>
  <path class="cls-1" d="M12.34,559.7c-4.04-1.46-8.16-2.65-12.34-3.5v6.36h19.34c-2.3-1.02-4.63-1.98-7-2.86Z"/>
  <path class="cls-1" d="M183.23,516.77c-.47.36-1.47,1.11-1.94,1.48-.37.3-2.68,2.34-3.06,2.66,0,0-2.31,2.28-2.31,2.28-1.07,1.04-2.27,2.49-3.28,3.6-3.13,3.73-5.86,7.76-8.31,11.96-1.05,1.86-2.25,3.72-3.21,5.63-1.51,2.74-2.98,5.93-4.29,8.73-1.55,3.3-3.37,6.61-5.69,9.45h2.26c3.04-4.59,4.87-9.9,6.95-14.97,6.66-15.71,18.43-29.96,34.34-36.8,37.84-16.06,87.87,12.23,121.77,38.8v-1.98c-7.77-5.93-15.82-11.48-24.11-16.66-30.99-19.13-76-38.75-109.11-14.19Z"/>
  <path class="cls-1" d="M50.59,562.56c-7.94-5.25-16.22-9.99-25.07-13.85-8.07-3.52-16.71-6.11-25.52-7.13v13.21c9.86.73,19.62,3.63,29.1,7.77h21.49Z"/>
  <path class="cls-1" d="M183.17,502.89c-3.42,2.42-6.75,5.38-9.61,8.45-3.32,3.47-6.23,7.33-8.84,11.35-2.62,3.97-5.18,8.14-7.32,12.41-5.06,10.47-12.07,20.44-25.19,17.81-11.45-2.43-22.89-11.61-32.17-18.62-23.77-18.42-47.5-39.72-77.64-46.75-7.31-1.69-14.91-2.24-22.41-1.62v11.79c6.73-1.13,13.63-1.05,20.42.06,20.51,3.45,38.53,14.66,55.58,26.16,14.18,9.47,27.65,20.46,43.11,27.97,19.69,9.23,31.31,3.27,39.22-16.36,5.35-12.66,13.92-24.19,25.19-32.16,39.05-27.44,95.3.83,132.91,28.52v-2.32c-7.91-5.64-16.1-10.88-24.53-15.73-31.91-18.06-75.51-34.55-108.74-10.97Z"/>
  <path class="cls-1" d="M183.24,530.63c-5.2,4.04-9.63,9-13.37,14.4-2.5,3.6-4.57,7.46-6.66,11.31-.39.72-1.15,2.19-1.51,2.92-.56,1.08-1.08,2.18-1.58,3.3h.89c1.19-3.07,2.51-6.09,3.99-8.98,2.6-4.79,5.64-9.35,9.13-13.54,35.75-42.35,96.19-9.43,136.46,22.52h1.93c-32.98-25.81-90.11-61.92-129.29-31.94Z"/>
  <path class="cls-1" d="M246.64,539.43c-26.64-10-54.01-9.5-72.67,14.6-2.14,2.69-4,5.56-5.71,8.53h.31c1.72-2.89,3.59-5.69,5.66-8.32,28.84-36.51,75.7-18.08,113.66,8.32h1.41c-13.33-9.28-27.47-17.31-42.66-23.13Z"/>
  <path class="cls-1" d="M36.14,507.34c-11.27-5.02-23.76-7.86-36.14-7.5v12.13c40.05-3.96,75.81,30.82,108.04,50.59h8.45c-5.38-3.31-10.47-7.14-15.49-10.97-20.69-15.98-40.53-33.64-64.86-44.25Z"/>
  <path class="cls-1" d="M316.44,0h-17.86c-4.52,6.32-9.44,12.36-14.76,18.03-19.57,20.71-44.2,34.69-72.72,38.07-3.49.43-7.48.76-10.99.83-.64.01-2.13.06-2.76.08-.6.04-3.96-.05-4.61-.05-2.42-.03-4.96-.23-7.38-.37-2.12-.23-5.28-.48-7.36-.8-2.11-.28-5.26-.74-7.32-1.15-7.33-1.24-14.45-3.44-21.5-5.77-2.09-.68-4.88-1.75-6.99-2.52-1.02-.35-2.43-.96-3.46-1.37-10.46-3.83-19.91-9.91-27.75-17.81-8.27-8.1-14.63-17.72-21.23-27.17h-1.98c4,5.72,7.85,11.55,12.16,17.05,10.15,13.25,22.34,23.74,38.19,29.47.71.28,1.85.76,2.6,1.05.34.14,4.08,1.47,4.4,1.61,8.79,3.25,17.88,5.62,27.01,7.71,1.23.31,4.25.84,5.53,1.1,1.07.22,2.61.47,3.71.62,2.89.48,6.45.87,9.34,1.16,1.3.12,4.29.29,5.65.38,1.09.06,2.66.07,3.78.1,3.62.1,7.74-.04,11.35-.31,1.13-.07,2.63-.18,3.78-.34,1.08-.12,2.72-.29,3.77-.44,1.25-.18,4.46-.68,5.63-.92.94-.19,2.8-.55,3.73-.74,15.55-3.43,30.33-10.15,43.39-19.24,11-7.69,21.07-17.16,30.06-27.74-5.87,8.27-12.42,16.06-19.62,23.2-12.3,12.1-26.85,22.12-42.93,28.49-.81.32-2.54.97-3.35,1.29-2.59.92-5.9,1.99-8.55,2.73-.93.29-2.55.65-3.48.9l-1.75.44s-1.76.37-1.76.37c-11.76,2.56-23.98,3.25-35.98,2.45-7.19-.52-14.58-1.47-21.62-3.05-2.06-.43-4.99-1.28-7.07-1.81-1.03-.27-2.46-.7-3.5-1.02-3.39-.98-7.11-2.24-10.42-3.38,0,0-6.83-2.57-6.83-2.57-6.74-2.67-12.99-6.5-18.54-11.14-9.37-7.79-16.66-17.65-23.66-27.56-2.83-3.98-5.64-8-8.75-11.83-2.39-2.91-4.95-5.76-7.97-8.04h-3.16c7.63,4.6,13.7,14.47,18.47,20.88,5.67,7.99,11.5,15.96,18.52,22.87,7.01,6.96,15.27,12.74,24.49,16.36,5.37,2.04,11.89,4.42,17.4,5.97,1.05.3,2.47.77,3.53,1.02,5.85,1.54,12,2.97,17.94,4.17,3.85.69,8.01,1.33,11.87,1.77,2.04.16,4.41.44,6.45.55,10.49.66,21.11.13,31.48-1.72.92-.19,2.74-.54,3.66-.74,1.33-.23,4.07-.96,5.46-1.28,1.74-.45,3.67-1.03,5.4-1.53.89-.3,2.66-.87,3.56-1.17,15.98-5.46,30.76-14.33,43.61-25.25,7.45-6.39,14.32-13.4,20.61-20.9-20.85,29.66-50.19,53.16-86.47,60.63-5.68,1.24-11.78,2.02-17.57,2.48-1.27.05-4.09.25-5.33.28-1.13.02-4.19.06-5.35.08-1.18-.03-4.21-.09-5.35-.12-1.15-.07-4.16-.25-5.35-.32-2.03-.15-4.2-.41-6.23-.59-3.73-.48-7.83-1.04-11.5-1.8-1.05-.2-2.44-.55-3.5-.8-1.75-.39-5.22-1.27-6.95-1.77-3.32-.88-7.05-2.03-10.3-3.1,0,0-3.39-1.17-3.39-1.17-20.17-6.32-33.18-22.45-45.03-39.01-8.21-10.92-18.53-27.35-34.53-22.72C40.63,17.85,17.29,48.14,0,73.2v3.87c10.97-16.17,22.57-31.91,36.06-46.05,8.91-8.85,22.93-21.93,36.17-14.68,4.12,2.22,7.48,5.65,10.54,9.18,3.09,3.61,5.92,7.48,8.77,11.34,12.1,16.82,25.4,33.09,45.96,39.48,0,0,3.42,1.17,3.42,1.17,3.29,1.07,7.05,2.22,10.39,3.1,0,0,3.49.94,3.49.94,1.21.27,4.09.96,5.29,1.22,2.31.53,4.76.97,7.08,1.52,1.65.33,4.57.83,6.23,1.15,2.05.28,4.24.65,6.28.9,1.19.13,4.27.47,5.42.58,1.17.08,4.23.3,5.44.38,1.76.08,3.69.1,5.46.18,1.27,0,4.14-.01,5.47-.03,1.77-.04,3.69-.18,5.47-.24,1.28-.11,4.12-.33,5.46-.46,1.21-.15,4.3-.53,5.44-.69.91-.15,2.71-.44,3.61-.59,33.84-5.83,63-25.28,85.13-51.06.95-1.11,1.88-2.23,2.81-3.35-32.53,46.77-81.57,73.8-141.73,65.86-1.98-.3-4.13-.58-6.1-.94-1.97-.39-4.07-.86-6.04-1.26-.59-.14-3.62-.88-4.28-1.04-1.98-.45-4.83-1.27-6.81-1.82-1.97-.53-4.77-1.44-6.75-2.05-42.76-12.68-49.96-71.23-82.38-59.37C37.72,36.94,16.4,63.63,0,86.73v4.32c.24-.34.47-.68.71-1.02,9.5-13.44,19.33-26.7,30.6-38.72,6.41-6.69,13.28-13.29,21.58-17.52,32.9-16.6,39.53,44.39,84.3,57.57,1.98.59,4.82,1.52,6.81,2.03,1.99.53,4.88,1.36,6.87,1.8.66.15,3.72.89,4.32,1.03,4.04.84,8.16,1.6,12.21,2.38,33.87,6.08,68.04,1.24,98.08-15.96,18.82-10.76,35.17-25.37,48.8-42.19-.03.04-.06.08-.08.12-27.05,39.17-67.15,66.88-115.31,70.91-9.13.81-18.48.8-27.6.03-2.85-.21-6.66-.65-9.47-1.03-1.95-.32-4.01-.72-5.97-1.06-5.03-1.04-10.23-2.2-15.18-3.6-1.92-.52-4.78-1.31-6.6-1.99-4.3-1.55-8.39-3.66-12.19-6.21-11.57-7.73-20.05-18.99-28.48-29.88-4.31-5.49-8.67-11.12-14.07-15.68-8.15-6.96-17.1-8.58-27.03-4.23C34.98,55.53,15.52,79.04,0,100.28v4.73c.26-.37.52-.74.79-1.11,12.7-17.27,33.03-45.09,52.42-53.95,6.25-2.81,13.03-3.27,19.18,0,8.11,4.35,13.72,11.97,19.43,19.02,8.6,10.96,17.3,22.33,29.1,30.09,3.93,2.59,8.16,4.74,12.6,6.31,1.87.7,4.81,1.46,6.74,1.98,6.71,1.84,13.62,3.29,20.48,4.42,7.87,1.38,16.36,2.49,24.32,2.84,1.13.04,4.17.13,5.26.16,1.15-.01,4.07,0,5.27-.01,25.99-.44,51.67-7.74,74.02-21.03,17.79-10.54,33.56-24.33,46.84-40.18V0Z"/>
  <path class="cls-1" d="M289.72,158.3c-28.81,17.17-60.84,29.24-93.86,35.17-1.71.35-4.52.8-6.24,1.05l-6.26.95s-6.29.72-6.29.72c-1.84.21-4.46.53-6.3.63-1.26.09-6.72.53-7.9.61-2.62.11-5.3.19-7.92.21-2.13.09-7.32-.11-9.5-.16-2.64-.09-5.26-.07-7.83-.5-3.58-.49-7.1-1.63-10.4-3.1-.45-.22-1.66-.81-2.1-1.03-.44-.25-1.59-.87-2.04-1.13,0,0-1.33-.82-1.33-.82-14.4-9.21-23.86-23.65-36.59-34.9-9.34-8.23-19.49-13.46-32.27-11.5-19.83,3.18-39.37,22.48-52.9,37.43v6.89c3.21-3.81,6.51-7.56,9.91-11.2,4.97-5.29,10.29-10.53,15.9-15.15,9.44-7.72,21.05-15.34,33.64-15.12,6.69.11,12.91,2.74,18.38,6.46,12.32,8.61,21.32,21.09,32.66,30.97,4.41,3.88,9.25,7.47,14.57,10l1.47.69s1.5.61,1.5.61c1.44.58,3.12,1.13,4.62,1.51,1.56.43,3.17.72,4.77.93.45.05,1.16.17,1.61.18,3.76.31,8.96.12,12.77.26,3.71-.07,7.43-.19,11.14-.15,2.95-.12,8.23-.25,11.14-.42,2.1-.16,7.34-.52,9.54-.69,2.02-.21,7.59-.84,9.52-1.03,4.91-.68,10.93-1.52,15.77-2.47,29.41-5.37,58-15.54,84.31-29.74,7.92-4.31,15.72-8.93,23.23-13.98v-10.39c-8.5,6.64-17.48,12.7-26.72,18.22Z"/>
  <path class="cls-1" d="M289.13,219.64c-13.69,4.85-29.29,10.05-43.19,14.29-20.85,6.44-43.19,12.47-64.43,17.55-6.84,1.48-16.95,3.97-23.74,5.21-3.49.69-8.42,1.42-11.97,2.08-40.13,8.23-56.09-62.39-106.18-47.59-15.23,4.71-28.07,14.83-39.62,25.51v8c6.65-6.91,13.73-13.38,21.48-18.99,2.69-1.94,5.86-3.95,8.73-5.57,54.74-30.38,71.87,49.87,115.8,39.94,3.52-.71,8.47-1.65,11.95-2.3,3.49-.58,8.47-1.44,11.98-2.12,11.06-2.01,24.9-4.77,35.8-7.25,27.44-6.09,55.6-13.61,82.43-21.94,9.41-2.93,18.87-5.98,28.26-9.22v-7.81c-9.05,3.56-18.26,6.97-27.32,10.24Z"/>
  <path class="cls-1" d="M185.75,487.26c-1.26.72-2.75,1.82-3.96,2.64-.73.5-1.81,1.39-2.51,1.93-1.92,1.49-4.19,3.55-5.9,5.28l-1.13,1.11s-1.07,1.17-1.07,1.17c-.6.68-1.55,1.66-2.11,2.36-1.17,1.43-2.86,3.48-3.88,4.99-.59.84-1.27,1.71-1.84,2.57-.87,1.31-1.84,2.58-2.68,3.91-.69,1.1-1.64,2.59-2.32,3.68-.06.1-1.62,2.85-1.76,3.1-2.46,4.5-5.21,9.06-9.19,12.34-12.1,10.26-27.64-.38-38.31-7.83-30.53-22.25-60.66-53.53-101.19-53.13-2.64.04-5.29.25-7.91.6v11.54c2.76-.63,5.57-1.06,8.41-1.27,24.48-1.87,47.13,11.2,66.96,24.46,14.04,9.28,27.29,20.15,42.41,27.83,16.83,8.36,29.6,6.39,38.35-11.21.34-.7,1.05-2.14,1.39-2.84,4.21-9.02,10.1-17.29,17.38-24.08,1.05-1.03,2.99-2.67,4.15-3.61.83-.63,1.98-1.52,2.81-2.14.81-.55,2.12-1.42,2.93-1.97.76-.5,1.89-1.13,2.69-1.61.94-.59,3.12-1.66,4.15-2.2,38.4-18.34,89.13,4.77,124.81,29.33v-2.63c-8.07-5.35-16.41-10.26-24.99-14.77-31.53-16.32-72.96-29.69-105.7-9.55Z"/>
  <path class="cls-1" d="M287.71,189.59c-33.51,15.7-69.08,27.15-105.48,33.85-3.49.58-8.72,1.55-12.21,2.02-2.21.31-7.01,1.06-9.2,1.29-5.89.75-12.56,1.13-18.51,1.46-33.38,1.15-48.31-45.86-80.61-51.05-16.81-2.74-32.58,6.81-45.19,16.91-5.81,4.7-11.29,9.81-16.52,15.16v7.52c.97-1.08,1.94-2.15,2.92-3.22,3.03-3.23,6.46-6.77,9.69-9.81,2.1-2.02,4.59-4.24,6.83-6.11l1.17-.98.58-.49.6-.47s2.39-1.88,2.39-1.88c9.81-7.4,21.43-14.03,34.07-13.41,13.92.67,24.99,10.35,34.61,19.58,12.29,11.63,24.78,26.69,42.42,29.39.56.08,1.77.18,2.37.26,2.62.19,5.25.02,7.85-.23,2.07-.18,7.3-.6,9.28-.82,4.85-.52,10.56-.93,15.46-1.51,5.89-.63,12.65-1.54,18.49-2.47,34.89-5.45,69.11-15.3,101.67-28.97,8.79-3.72,17.52-7.67,26.05-11.99v-8.97c-9.34,5.4-18.96,10.33-28.73,14.93Z"/>
  <path class="cls-1" d="M8.13,467.66c61.24-8.86,113.94,83.37,143.57,45.82,1.31-1.68,2.47-3.46,3.5-5.29,7.49-15.04,18.61-27.7,33.58-35.59,39.08-20.38,90.55.19,127.67,23.93v-2.91c-38.44-23.43-93.12-44.94-133.43-18.52-6.1,4-11.57,9.02-16.28,14.58-.26.29-.76.89-1,1.21-1.62,2.02-3.19,4.14-4.75,6.21-.56.71-1.28,1.81-1.8,2.56-.51.75-1.29,1.84-1.75,2.6-1.9,3.04-4.56,7.62-6.95,10.22-3.89,4.56-9.34,7.76-15.46,7.44-12.62-.56-26.99-12.73-36.86-20.25-23.08-18.16-47.36-38.81-77.72-42.3-6.8-.78-13.69-.49-20.43.73v11.29c2.67-.75,5.38-1.33,8.13-1.71Z"/>
  <path class="cls-1" d="M12,408.21c62.13-18.29,105.79,74.94,139.16,39.13,1.57-1.71,3.36-4,4.87-5.78,1.91-2.18,4.09-4.55,6.19-6.54,1.61-1.46,4-3.51,5.72-4.86,1.07-.89,2.47-1.88,3.59-2.72,1.87-1.37,4.27-2.95,6.24-4.15.73-.46,1.83-1.12,2.58-1.53,32.55-18.72,72.6-16.39,107.56-6.21,9.69,2.84,19.24,6.22,28.52,10.23v-3.96c-33.11-13.31-70.94-20.83-105.71-13.14-14.77,3.31-28.93,9.7-40.88,19.02-1.39,1.03-3.34,2.7-4.68,3.82-.72.66-2.65,2.42-3.35,3.05-.75.74-2.49,2.37-3.29,3.12-1.21,1.23-3.09,3.06-4.22,4.34-1.18,1.26-2.87,3.21-4.09,4.38-3.45,3.4-7.72,6.1-12.57,6.79-30.25,3.78-64.66-62.8-121.58-54.92-5.49.74-10.88,2.18-16.07,4.13v10.48c3.85-1.92,7.84-3.52,12-4.7Z"/>
  <path class="cls-1" d="M6.23,395.76c6.89-3.05,14.21-4.98,21.68-5.41,46.14-2.83,79.44,51.64,108.53,48.51,5.18-.56,9.92-3.24,13.64-6.81,1.26-1.16,2.98-3.12,4.15-4.37,4-4.4,8.51-8.43,13.35-11.89,8.01-5.88,16.86-10.6,26.13-14.13,22.33-8.45,46.81-9.7,70.34-6.71,17.87,2.36,35.52,6.81,52.38,13.23v-4.27c-16.84-5.86-34.32-9.92-52.05-11.84-37-3.96-74.45,2.73-103.09,27.84-2.64,2.31-5.32,4.57-7.8,7.06-1.23,1.19-3.01,3.04-4.29,4.11-2.92,2.52-6.35,4.54-10.13,5.36-25.67,5.78-55.96-45.49-98.77-52.81-13.67-2.72-27.58-.36-40.3,4.94v10.28c2.04-1.12,4.12-2.15,6.23-3.08Z"/>
  <path class="cls-1" d="M136.6,405.79c4.09-.44,7.97-2.12,11.3-4.48,2.06-1.45,3.87-3.18,5.75-4.78,1.76-1.5,3.93-3.25,5.78-4.62,44.28-31.74,105.17-32.83,157.01-18.89v-4.84c-1.9-.44-3.81-.87-5.72-1.27-51.01-10.69-108.68-7.67-151.71,24.42-1.9,1.33-4.17,2.98-6,4.41-1.93,1.5-3.85,3.17-5.86,4.45-33.09,21.43-63.64-56.2-121.94-47.76-8.86,1.22-17.3,4.26-25.21,8.36v9.92c64.3-41.55,99.95,38.31,136.6,35.06Z"/>
  <path class="cls-1" d="M29.36,421.46c28.24,1.98,50.72,21.4,73.12,36.9,17.19,11.79,36.45,23.43,51.59,1.8,2.62-3.58,5.56-7.3,8.65-10.49,5.35-5.28,11.33-10.1,17.79-13.96,6.82-4.15,14.38-7.41,22.05-9.6,20.33-5.88,42.1-4.92,62.63-.56,17.7,3.86,34.94,9.96,51.24,17.91v-3.71c-23.64-10.8-48.99-18.26-74.99-19.56-8.87-.38-17.89.09-26.65,1.59l-.75.14s-3,.58-3,.58c-1.12.27-3.34.74-4.46,1.06-1.31.35-3.12.82-4.41,1.25-.85.27-2.07.63-2.91.94-6.68,2.29-13.28,5.39-19.25,9.17-2.5,1.53-5.16,3.44-7.49,5.24-.7.5-1.69,1.36-2.37,1.91-3.09,2.52-6.12,5.45-8.87,8.34-1.26,1.28-2.96,3.06-4.17,4.44-3.34,3.64-6.22,8.02-10.23,10.97-10.56,8.22-22.4,2.84-32.29-3.69-6.69-4.41-12.94-9.51-19.23-14.52-15.98-12.78-32.67-25.94-52.71-31.88-14.16-4.41-28.91-3.75-42.67.64v10.66c9.22-4.07,19.18-6.25,29.36-5.55Z"/>
  <path class="cls-1" d="M6.21,352.72c20.9-12.5,41.41-13.21,62.91-1.52,14.71,7.81,27.16,19.32,40.94,28.74,5,3.36,10.28,6.5,16.08,8.26,5.35,1.66,11.33,1.8,16.57-.34l1.41-.58,1.35-.7.67-.35.64-.4c1.69-1,3.34-2.3,4.88-3.48,2.24-1.74,4.8-3.63,7.16-5.21,7.4-4.83,15.35-8.9,23.47-12.37,40.99-17.38,90.2-18.57,134.13-9.33v-5.1c-9.87-1.74-19.85-2.89-29.84-3.58-39.46-2.59-80.45,2.94-115.48,22.06-8.24,4.49-16.02,9.81-23.74,15.12-.41.23-1.49.85-1.89,1.07l-.65.3-1.31.61c-.46.16-1.58.58-2.02.73-3.88,1.19-8.02,1.23-11.94.24-5.14-1.26-9.85-3.92-14.22-6.85-8.54-5.82-16.1-12.76-24.2-19.3-24.92-20.73-50.08-32.19-81.92-18.42-1.85.86-3.78,1.68-5.58,2.66-.76.39-2.02,1.04-2.73,1.44-.31.17-.61.35-.92.52v9.76c2.02-1.4,4.09-2.74,6.21-4Z"/>
  <path class="cls-1" d="M10.51,514.67c-3.46-.57-6.98-.87-10.51-.92v12.42c7.02-.36,14.1.58,20.97,2.39,23.06,6.4,42.76,20.26,62.26,34h10.61c-11.08-8.75-21.96-17.77-33.71-25.73-14.9-10.14-31.48-19.25-49.62-22.16Z"/>
  <path class="cls-1" d="M262.58,562.56h.87c-28.02-15.67-61.06-24.8-84.62,0h.42c22.05-23.09,53.47-16.55,83.33,0Z"/>
  <path class="cls-1" d="M30.02,437.16c15.61,1.85,30.12,9.29,43.36,17.78,13.75,8.7,26.43,19.31,40.6,27.48,8.11,4.53,17.97,8.75,27.24,5.34,4.98-1.84,8.97-5.68,12.01-9.93,2.28-3.32,4.55-6.84,7.04-10,9.54-11.84,22.41-21.06,36.72-26.22,14.3-5.18,29.86-6.35,44.93-4.88,25.63,2.6,51.45,11.96,74.53,24.43v-3.46c-23.7-12.09-49.31-20.9-75.9-22.95-15.32-1.05-31.07.58-45.39,6.34-12.41,4.92-23.47,12.94-32.31,22.9-2.37,2.68-4.78,5.34-6.94,8.2-1.07,1.39-2.62,3.54-3.68,4.87-3.07,3.84-6.92,7.25-11.67,8.74-8.71,2.67-17.52-1.85-24.78-6.39-6.81-4.34-13.14-9.43-19.49-14.45-29.87-24.53-60.18-44.85-96.28-34.75v10.9c9.52-3.69,19.77-5.26,30.02-3.95Z"/>
  <path class="cls-1" d="M72.96,562.56c-11.2-8.68-22.71-16.91-35.43-23.47-11.4-6.03-24.38-10.52-37.54-11.42v12.82c20.36.36,40.14,10.16,58.73,22.07h14.23Z"/>
  <path class="cls-1" d="M9.41,336.42c60.57-35.58,91.64,39.74,127.59,36.57,1.01-.16,2.03-.26,3.02-.54.42-.11,1.08-.24,1.48-.39,0,0,1.44-.49,1.44-.49.43-.14.99-.4,1.4-.59.83-.33,1.91-.93,2.7-1.36.17-.09.49-.27.65-.38,1.68-1.06,3.89-2.58,5.56-3.71,2.37-1.56,5.08-3.26,7.54-4.63,2.39-1.31,5.41-2.87,7.86-4.07,43.43-21.04,93.31-25.42,140.78-19.88,2.34.29,4.68.6,7.01.94v-5.25c-45.43-5.19-92.61-1.01-134.87,16.9-5.87,2.5-11.72,5.39-17.32,8.46-4.69,2.69-9.5,5.35-14.07,8.24-.62.39-1.88,1.16-2.51,1.53-.36.2-.88.55-1.26.71-.78.35-1.81.95-2.63,1.19-.4.14-.93.4-1.35.5l-1.37.4-.34.1s-.35.07-.35.07c-35.42,7.8-64.11-74.03-130.51-42.99-3.38,1.6-6.67,3.4-9.86,5.36v9.57c3.03-2.24,6.16-4.34,9.41-6.27Z"/>
  <path class="cls-1" d="M7.8,453.14c57.52-11.83,105.21,67.71,136.51,50,4.17-2.4,7.38-6.12,9.92-10.12.95-1.51,2.28-3.76,3.22-5.28.42-.74,1.21-1.87,1.68-2.57,1.7-2.56,3.51-5.08,5.57-7.36.35-.39,1.19-1.35,1.53-1.73.35-.38,2.29-2.36,2.68-2.76.6-.64,1.58-1.51,2.23-2.12,1.46-1.4,3.1-2.73,4.65-4.02.42-.32,2.7-2.04,3.07-2.32.92-.62,2.25-1.53,3.18-2.15,1.26-.77,2.66-1.65,3.95-2.36,17.14-9.66,37.27-11.69,56.53-9.07,25.43,3.51,51.23,14.15,73.93,27.56v-3.17c-26.74-15.02-57.26-26.63-87.67-26.93-11.36-.02-22.88,1.84-33.45,6.07-4.25,1.75-8.55,3.89-12.42,6.38-1.47.88-3.08,2.07-4.5,3.05-2.59,1.98-5.38,4.22-7.7,6.5-.37.35-1.33,1.27-1.68,1.61-.39.38-2.24,2.38-2.66,2.81-.62.64-1.43,1.65-2.03,2.34-1.99,2.36-3.99,4.75-5.83,7.23-.53.71-1.36,1.78-1.83,2.5-.56.81-2.09,3.06-2.62,3.84-2.77,4.14-6.22,8.04-10.69,10.31-30.37,15.05-73.92-67.63-137.25-58.36-2.05.28-4.09.67-6.11,1.13v11.08c2.55-.86,5.16-1.57,7.8-2.09Z"/>
</svg>