<?xml version="1.0" encoding="UTF-8"?>
<svg id="Layer_1" data-name="Layer 1" xmlns="http://www.w3.org/2000/svg" viewBox="0 0 316 563">
  <defs>
    <style>
      .cls-1 {
        fill: #d8ff77;
      }
    </style>
  </defs>
  <path class="cls-1" d="M20.05,287.26c32.23,1.71,64.84.83,96.63-4.83,6.58-1.17,13.51-2.7,19.96-4.4,1.43-.35,3.49-.95,4.92-1.37,6.52-1.84,13.02-4.17,19.28-6.64,37.17-14.49,75.01-29.93,115.72-30.99,13.39-.55,26.85-.04,40.26.96,0,0,.09-1.02.18-2.04v-2.05c-20.25-1.58-40.81-2.02-61.04.57-33.9,4.19-65.52,17.32-96.95,29.29-6.25,2.43-12.43,4.63-18.88,6.43-1.39.4-3.41.99-4.81,1.32-6.33,1.65-13.12,3.13-19.57,4.25-6.37,1.13-13.47,2.16-19.89,2.86-31.68,3.43-63.84,3.23-95.52-.07,0,0-.17,1.27-.34,2.53v2.57c6.68.74,13.34,1.22,20.05,1.6Z"/>
  <path class="cls-1" d="M20.06,218.47c32.21,1.64,64.79.69,96.55-5.03,6.56-1.18,13.48-2.72,19.92-4.44,1.43-.35,3.48-.95,4.91-1.38,6.51-1.85,12.97-4.19,19.22-6.66,37.19-14.6,75.08-30.14,115.87-31.28,13.43-.59,26.92-.1,40.36.88,0,0,.05-.63.11-1.25v-1.26c-20.23-1.62-40.74-2.11-60.94.44-33.85,4.11-65.45,17.16-96.86,29.04-6.25,2.42-12.47,4.62-18.93,6.41-1.39.4-3.42.98-4.83,1.32-6.34,1.64-13.15,3.1-19.61,4.22-6.38,1.12-13.49,2.13-19.92,2.82-31.7,3.36-63.88,3.09-95.58-.27,0,0-.16,1.21-.33,2.43v2.46c6.69.72,13.35,1.19,20.06,1.56Z"/>
  <path class="cls-1" d="M4.8,189.83c5.08.46,10.17.8,15.26,1.08,32.2,1.62,64.77.66,96.51-5.08,6.56-1.18,13.47-2.72,19.9-4.45,1.43-.35,3.48-.95,4.91-1.38,6.51-1.86,12.96-4.19,19.21-6.67,37.2-14.62,75.12-30.19,115.93-31.35,13.45-.59,26.94-.11,40.4.86,0,0,.04-.5.09-.99v-1c-20.22-1.64-40.72-2.13-60.91.4-33.83,4.09-65.42,17.12-96.83,28.98-6.26,2.42-12.49,4.61-18.95,6.4-1.4.4-3.43.98-4.83,1.31-6.35,1.64-13.16,3.1-19.63,4.21-6.39,1.12-13.5,2.13-19.93,2.81-31.72,3.35-63.91,3.06-95.61-.32,0,0-.16,1.16-.31,2.33v2.36c1.62.18,3.2.33,4.8.47Z"/>
  <path class="cls-1" d="M20.07,177.11c32.2,1.61,64.76.65,96.49-5.09,6.56-1.19,13.46-2.73,19.89-4.45,1.43-.35,3.47-.95,4.9-1.38,6.51-1.86,12.95-4.19,19.2-6.67,37.21-14.64,75.14-30.21,115.96-31.38,13.45-.59,26.96-.12,40.41.85l.08-.87v-.88c-20.22-1.64-40.71-2.14-60.9.39-33.82,4.09-65.4,17.11-96.8,28.96-6.26,2.42-12.49,4.62-18.96,6.4-1.4.4-3.43.98-4.83,1.31-6.35,1.64-13.17,3.1-19.64,4.21-6.39,1.11-13.5,2.12-19.94,2.81-31.73,3.34-63.92,3.05-95.63-.33,0,0-.15,1.13-.3,2.26v2.3c6.69.72,13.36,1.18,20.07,1.55Z"/>
  <path class="cls-1" d="M20.05,273.52c32.23,1.69,64.83.79,96.61-4.88,6.58-1.17,13.5-2.7,19.95-4.41,1.43-.35,3.49-.95,4.92-1.37,6.52-1.84,13.01-4.18,19.27-6.64,37.17-14.52,75.02-29.98,115.75-31.06,13.4-.56,26.86-.05,40.29.94,0,0,.08-.93.16-1.87v-1.88c-20.25-1.59-40.8-2.04-61.02.54-33.89,4.17-65.51,17.28-96.93,29.23-6.25,2.43-12.44,4.63-18.89,6.43-1.39.4-3.42.99-4.82,1.32-6.33,1.65-13.13,3.12-19.58,4.25-6.37,1.13-13.47,2.15-19.9,2.85-31.68,3.41-63.85,3.19-95.53-.12,0,0-.17,1.26-.34,2.53v2.56c6.68.73,13.35,1.21,20.05,1.59Z"/>
  <path class="cls-1" d="M20.05,259.77c32.22,1.67,64.82.76,96.6-4.93,6.57-1.18,13.5-2.71,19.94-4.42,1.43-.35,3.49-.95,4.92-1.37,6.52-1.85,13-4.18,19.26-6.65,37.17-14.54,75.04-30.03,115.78-31.12,13.41-.57,26.88-.07,40.31.92,0,0,.07-.85.15-1.7v-1.71c-20.24-1.6-40.78-2.06-61,.51-33.88,4.15-65.49,17.25-96.92,29.17-6.25,2.43-12.44,4.62-18.9,6.42-1.39.4-3.42.99-4.82,1.32-6.33,1.65-13.13,3.12-19.59,4.24-6.38,1.12-13.48,2.14-19.9,2.84-31.69,3.39-63.86,3.16-95.54-.16,0,0-.17,1.26-.34,2.51v2.55c6.68.73,13.35,1.21,20.05,1.58Z"/>
  <path class="cls-1" d="M20.06,232.24c32.22,1.65,64.8.71,96.57-5,6.57-1.18,13.48-2.72,19.92-4.43,1.43-.35,3.48-.95,4.91-1.38,6.51-1.85,12.98-4.19,19.24-6.66,37.18-14.58,75.07-30.1,115.84-31.23,13.42-.58,26.91-.09,40.35.89,0,0,.06-.7.12-1.4v-1.41c-20.23-1.62-40.76-2.09-60.96.46-33.86,4.13-65.46,17.19-96.88,29.08-6.25,2.42-12.46,4.62-18.92,6.41-1.39.4-3.42.99-4.82,1.32-6.34,1.65-13.14,3.11-19.6,4.22-6.38,1.12-13.49,2.14-19.91,2.82-31.7,3.37-63.87,3.11-95.56-.24,0,0-.17,1.23-.33,2.46v2.5c6.68.73,13.35,1.2,20.06,1.57Z"/>
  <path class="cls-1" d="M20.07,163.31c32.19,1.61,64.74.64,96.47-5.1,6.55-1.19,13.46-2.73,19.88-4.45,1.43-.35,3.47-.95,4.9-1.38,6.5-1.86,12.94-4.19,19.19-6.67,37.21-14.64,75.16-30.23,115.99-31.4,13.46-.6,26.97-.12,40.43.85,0,0,.03-.38.07-.76v-.77c-20.22-1.64-40.7-2.14-60.88.38-33.81,4.08-65.38,17.09-96.78,28.94-6.26,2.42-12.5,4.62-18.97,6.4-1.4.4-3.43.98-4.84,1.31-6.35,1.64-13.17,3.1-19.64,4.21-6.39,1.11-13.51,2.12-19.94,2.81-31.73,3.34-63.93,3.04-95.65-.35,0,0-.15,1.1-.29,2.19v2.22c6.69.72,13.36,1.18,20.07,1.55Z"/>
  <path class="cls-1" d="M20.05,246.01c32.22,1.66,64.81.73,96.58-4.96,6.57-1.18,13.49-2.71,19.93-4.43,1.43-.35,3.48-.95,4.92-1.38,6.52-1.85,12.99-4.19,19.25-6.66,37.18-14.56,75.05-30.07,115.81-31.18,13.42-.57,26.89-.08,40.33.91,0,0,.07-.77.13-1.55v-1.56c-20.24-1.61-40.77-2.08-60.98.48-33.87,4.14-65.48,17.22-96.9,29.13-6.25,2.42-12.45,4.62-18.91,6.42-1.39.4-3.42.99-4.82,1.32-6.33,1.65-13.14,3.11-19.59,4.23-6.38,1.12-13.48,2.14-19.91,2.83-31.69,3.38-63.86,3.14-95.55-.2,0,0-.17,1.25-.34,2.49v2.53c6.68.73,13.35,1.2,20.05,1.57Z"/>
  <path class="cls-1" d="M4.8,203.61c5.08.46,10.17.81,15.27,1.08,32.21,1.63,64.78.67,96.53-5.05,6.56-1.18,13.47-2.72,19.91-4.44,1.43-.35,3.48-.95,4.91-1.38,6.51-1.86,12.96-4.19,19.21-6.67,37.19-14.61,75.1-30.17,115.9-31.32,13.44-.59,26.93-.1,40.38.87,0,0,.05-.56.1-1.12v-1.13c-20.23-1.63-40.73-2.12-60.93.42-33.84,4.1-65.43,17.14-96.85,29.01-6.26,2.42-12.48,4.62-18.94,6.4-1.4.4-3.42.98-4.83,1.32-6.34,1.64-13.15,3.1-19.62,4.22-6.38,1.12-13.5,2.13-19.93,2.81-31.71,3.35-63.89,3.08-95.59-.29,0,0-.16,1.19-.32,2.38v2.42c1.62.18,3.2.33,4.8.47Z"/>
  <path class="cls-1" d="M0,49.7v1.35c3.34.37,6.65.65,9.98.91,27.03,2,54.28,1.92,81.26-.79,11.29-1.17,22.8-2.92,33.88-5.29,3.39-.76,7.78-1.79,11.1-2.69,1.42-.35,3.47-.95,4.88-1.37,6.49-1.85,12.88-4.16,19.12-6.63,37.28-14.64,75.34-30.22,116.26-31.36,13.5-.59,27.03-.1,40.51.88,0,0,0-.07.01-.14v-.14c-70.36-6.35-103.83,9.22-166.8,32.87-4.15,1.37-8.41,2.66-12.63,3.82-2.23.56-4.49,1.14-6.72,1.69-.88.2-5.37,1.19-6.15,1.37-7.65,1.56-15.89,2.94-23.65,3.88-33.39,4.04-67.45,3.84-100.88.32,0,0-.09.67-.18,1.33Z"/>
  <path class="cls-1" d="M9.95,79.68c23.68,1.74,47.49,1.87,71.17.07,14.73-1.12,29.62-3.12,44.04-6.21.82-.19,5.27-1.22,6.19-1.43,2.24-.57,4.52-1.17,6.76-1.75,4.25-1.2,8.54-2.55,12.72-3.96,34.48-12.86,68.47-28.46,105.5-33.23,20.08-2.69,40.45-2.36,60.64-.89,0,0,.01-.12.02-.25v-.25c-70.37-6.38-103.87,9.17-166.87,32.79-4.14,1.36-8.4,2.66-12.62,3.81-2.23.56-4.48,1.14-6.71,1.68-.88.2-5.36,1.19-6.14,1.36-7.64,1.56-15.87,2.93-23.63,3.87-33.38,4.02-67.4,3.81-100.81.27l-.21,1.6v1.62c3.34.37,6.63.65,9.95.9Z"/>
  <path class="cls-1" d="M40.46,67.15c28.36.32,56.96-1.52,84.68-7.44,3.39-.77,7.78-1.79,11.1-2.7,1.42-.35,3.47-.95,4.89-1.37,3.26-.91,6.46-2.01,9.67-3.07,15.76-5.85,31.26-12.3,47.09-17.95,25.16-9.28,51.51-16.09,78.6-17.01,13.49-.59,27.03-.11,40.5.87l.02-.19v-.19c-70.36-6.37-103.85,9.19-166.83,32.83-4.14,1.37-8.4,2.66-12.62,3.82-2.23.56-4.49,1.14-6.71,1.68-.88.2-5.36,1.19-6.15,1.36-7.65,1.56-15.88,2.94-23.64,3.88-33.38,4.02-67.43,3.82-100.85.29,0,0-.1.73-.2,1.47v1.49c13.45,1.41,26.94,2.04,40.46,2.23Z"/>
  <path class="cls-1" d="M317,563v-4.06c-.15,0-.3-.02-.45-.03.13-1.47.29-3.33.45-5.2v-8.15c-.16,0-.32-.02-.48-.03.13-1.48.3-3.51.48-5.55v-7.8c-.17-.01-.34-.02-.51-.03.12-1.42.32-3.66.51-5.9v-7.46c-.18-.01-.36-.02-.54-.03.11-1.26.32-3.75.54-6.23v-7.13c-.19-.01-.38-.02-.57-.04.07-.77.32-3.67.57-6.56v-6.8c-65.35-4.41-100.18,8.92-158.63,33.11-6.19,2.55-12.22,4.83-18.61,6.76-1.37.43-3.38,1.05-4.76,1.41-4.58,1.3-9.83,2.61-14.5,3.6-6.28,1.38-13.33,2.63-19.71,3.56-33.22,4.74-67.2,5.27-100.66,2.47,0,0-.07.52-.14,1.03v1.05c3.34.44,6.65.8,9.98,1.13,30.41,2.86,61.2,3.26,91.61-.06,8.33-.91,17.12-2.23,25.32-3.87,3.72-.73,8.27-1.79,11.91-2.67,4.34-1.13,8.72-2.39,12.99-3.74,34.49-11.99,68.54-26.75,105.25-30.67,17.62-1.95,35.29-1.54,52.99-.1-60.98-2.93-95.38,10.34-151.71,33.76-6.19,2.56-12.21,4.85-18.59,6.79-1.37.43-3.38,1.06-4.75,1.42-4.58,1.3-9.83,2.63-14.5,3.62-6.28,1.39-13.33,2.65-19.7,3.59-33.22,4.8-67.21,5.37-100.68,2.62l-.12.87v.88c3.34.45,6.66.81,10,1.14,31.25,2.99,62.9,3.37,94.14-.2,9.18-1.06,18.8-2.64,27.82-4.59,10.01-2.2,20.03-5.15,29.55-8.74,31.15-11.21,62.37-23.59,95.59-27.1,12.26-1.34,24.54-1.53,36.84-1.03-51.38.06-84.45,13.01-135.63,34.39-6.18,2.57-12.19,4.87-18.58,6.81-1.36.43-3.38,1.06-4.75,1.42-2.8.8-5.85,1.61-8.86,2.35h26.73c2.93-.95,5.83-1.96,8.69-3.03,31.16-11.15,62.38-23.49,95.59-26.94,7.89-.85,15.78-1.22,23.68-1.24-41.87,2.04-72.44,13.39-115.19,31.22h26.2c21.28-7.33,42.86-13.7,65.35-16,3.97-.42,7.95-.72,11.93-.91-24.77,2.39-46.05,8.25-69.44,16.92h42.97c4.82-.85,9.68-1.54,14.57-2.03.2-.02.41-.04.61-.06-4.09.6-8.11,1.3-12.07,2.09h71.26Z"/>
  <path class="cls-1" d="M20.09,121.85c32.17,1.61,64.7.63,96.4-5.11,6.55-1.19,13.44-2.72,19.86-4.45,1.42-.35,3.47-.95,4.9-1.38,6.5-1.86,12.91-4.18,19.16-6.66,37.24-14.66,75.22-30.26,116.09-31.43,13.48-.6,27-.12,40.46.84,0,0,.02-.24.04-.47v-.47c-20.21-1.64-40.67-2.15-60.84.37-33.78,4.08-65.33,17.08-96.71,28.91-6.26,2.42-12.52,4.62-19,6.41-1.4.4-3.43.99-4.84,1.32-6.36,1.64-13.19,3.1-19.67,4.21-6.4,1.11-13.52,2.12-19.96,2.81-31.76,3.34-63.98,3.04-95.72-.35,0,0-.13.97-.26,1.93v1.96c6.69.72,13.38,1.18,20.09,1.55Z"/>
  <path class="cls-1" d="M9.94,93.53c10.15.77,20.33,1.19,30.51,1.31,25.41.28,51.01-1.19,76-5.75,6.54-1.18,13.43-2.72,19.84-4.44,1.42-.35,3.47-.95,4.89-1.38,6.5-1.86,12.9-4.17,19.14-6.65,37.25-14.66,75.27-30.25,116.16-31.42,13.49-.6,27.01-.12,40.48.85,0,0,.01-.16.03-.32v-.32c-20.21-1.64-40.65-2.14-60.82.38-33.76,4.08-65.29,17.08-96.66,28.92-6.26,2.42-12.53,4.63-19.01,6.42-1.39.4-3.45.99-4.85,1.32-6.36,1.65-13.2,3.11-19.68,4.22-5.5.97-11.94,1.88-17.47,2.54-32.59,3.64-65.69,3.42-98.28-.06,0,0-.12.86-.23,1.72v1.74c3.34.37,6.63.64,9.94.9Z"/>
  <path class="cls-1" d="M20.09,135.68c32.17,1.6,64.71.63,96.42-5.11,6.55-1.19,13.45-2.73,19.87-4.45,1.43-.35,3.47-.95,4.9-1.38,6.5-1.86,12.92-4.19,19.17-6.66,37.23-14.66,75.2-30.25,116.06-31.43,13.47-.6,26.99-.12,40.45.84,0,0,.02-.28.05-.56v-.56c-20.21-1.64-40.68-2.15-60.85.37-33.79,4.08-65.35,17.08-96.74,28.92-6.26,2.42-12.51,4.62-18.99,6.41-1.4.4-3.43.98-4.84,1.31-6.36,1.64-13.18,3.1-19.66,4.21-6.4,1.11-13.52,2.12-19.96,2.8-31.75,3.34-63.96,3.04-95.69-.36,0,0-.14,1.01-.27,2.03v2.06c6.69.72,13.37,1.18,20.09,1.55Z"/>
  <path class="cls-1" d="M20.1,108.02c32.16,1.61,64.68.64,96.37-5.1,6.54-1.18,13.44-2.72,19.85-4.44,1.42-.35,3.47-.95,4.89-1.38,6.5-1.86,12.91-4.18,19.15-6.66,37.24-14.66,75.24-30.26,116.12-31.43,13.48-.6,27-.12,40.47.85,0,0,.02-.2.03-.39v-.39c-20.21-1.64-40.66-2.15-60.83.38-33.77,4.08-65.31,17.08-96.69,28.91-6.26,2.42-12.53,4.63-19,6.41-1.39.4-3.45.99-4.85,1.32-6.36,1.64-13.19,3.1-19.68,4.22-5.5.97-11.93,1.88-17.46,2.53-32.58,3.63-65.67,3.41-98.25-.07,0,0-.12.91-.25,1.83v1.85c6.71.72,13.37,1.19,20.1,1.55Z"/>
  <path class="cls-1" d="M4.82,148.43c5.08.45,10.17.8,15.26,1.07,32.18,1.61,64.73.63,96.45-5.11,6.55-1.19,13.45-2.73,19.87-4.45,1.43-.35,3.47-.95,4.9-1.38,6.5-1.86,12.93-4.19,19.18-6.67,37.22-14.65,75.18-30.24,116.02-31.42,13.46-.6,26.98-.12,40.44.84l.06-.66v-.66c-20.21-1.64-40.69-2.15-60.87.38-33.8,4.08-65.37,17.09-96.76,28.93-6.26,2.42-12.51,4.62-18.98,6.4-1.4.4-3.43.98-4.84,1.31-6.35,1.64-13.18,3.1-19.65,4.21-6.39,1.11-13.51,2.12-19.95,2.8-31.74,3.34-63.95,3.04-95.67-.35,0,0-.14,1.06-.28,2.12v2.15c1.63.18,3.22.33,4.82.47Z"/>
  <path class="cls-1" d="M20.07,451.61c32.21,2.03,64.85,1.47,96.71-3.87,6.61-1.11,13.58-2.57,20.06-4.22,1.44-.34,3.51-.92,4.96-1.33,6.56-1.78,13.15-4.07,19.44-6.47,57.76-22.05,91.49-34.43,155.35-28.32,0,0,.2-2.35.41-4.71v-4.73c-27.17-1.93-55.05-1.4-81.65,4.96-29.89,7-57.65,19.44-86.03,30.18-3.13,1.04-6.25,2.14-9.44,3.04-1.38.42-3.39,1.02-4.78,1.37-6.29,1.71-13.05,3.25-19.46,4.44-6.35,1.19-13.42,2.29-19.82,3.05-31.64,3.75-63.83,3.87-95.56.9,0,0-.13.97-.26,1.93v1.96c6.68.81,13.36,1.36,20.07,1.81Z"/>
  <path class="cls-1" d="M9.92,464.46c10.15.91,20.33,1.47,30.52,1.74,25.47.64,51.21-.48,76.36-4.71,6.61-1.1,13.58-2.55,20.07-4.2,1.44-.33,3.52-.91,4.96-1.32,6.56-1.77,13.16-4.06,19.45-6.45,57.76-21.97,91.48-34.31,155.29-28.12,0,0,.21-2.49.43-4.98v-5c-13.5-.89-27.1-1.29-40.74-.62-27.52,1.07-54.61,8.2-80.03,17.75-15.84,5.75-31.28,12.28-46.94,18.21-4.66,1.59-9.43,3.16-14.2,4.42-6.28,1.72-13.04,3.27-19.45,4.46-5.45,1.04-11.84,2.04-17.33,2.77-32.45,4.09-65.49,4.33-98.06,1.32,0,0-.12.91-.25,1.83v1.86c3.33.41,6.61.74,9.92,1.04Z"/>
  <path class="cls-1" d="M9.93,478.09c23.7,2.1,47.53,2.59,71.3,1.14,15.26-.94,30.7-2.77,45.64-5.86,3.71-.76,8.25-1.84,11.88-2.75,4.33-1.16,8.69-2.45,12.94-3.82,34.46-12.24,68.45-27.26,105.21-31.44,19.8-2.34,39.72-1.7,59.64.05,0,0,.23-2.63.45-5.26v-5.29c-65.19-4.86-99.99,8.26-158.46,31.98-6.21,2.51-12.28,4.76-18.69,6.64-1.37.42-3.39,1.03-4.77,1.38-4.59,1.26-9.86,2.55-14.54,3.5-6.29,1.34-13.36,2.54-19.74,3.42-33.22,4.51-67.17,4.81-100.56,1.79,0,0-.12.86-.23,1.72v1.74c3.33.42,6.62.75,9.93,1.05Z"/>
  <path class="cls-1" d="M20.05,301c32.23,1.72,64.84.86,96.64-4.78,6.58-1.17,13.51-2.69,19.97-4.39,1.43-.35,3.49-.94,4.93-1.37,6.53-1.84,13.03-4.17,19.29-6.63,37.16-14.47,75-29.88,115.69-30.91,13.38-.55,26.83-.02,40.24.98,0,0,.1-1.11.19-2.22v-2.24c-20.25-1.57-40.83-1.99-61.06.61-33.91,4.21-65.53,17.36-96.96,29.35-6.25,2.44-12.42,4.64-18.87,6.44-1.39.4-3.41.99-4.81,1.33-6.32,1.66-13.11,3.13-19.56,4.26-6.37,1.13-13.47,2.16-19.88,2.87-31.67,3.44-63.83,3.26-95.52-.01,0,0-.17,1.26-.34,2.53v2.56c6.68.74,13.34,1.23,20.05,1.61Z"/>
  <path class="cls-1" d="M9.97,532.52c30.42,2.82,61.21,3.17,91.62-.19,8.33-.92,17.11-2.25,25.31-3.91,3.72-.74,8.26-1.8,11.9-2.69,4.34-1.13,8.71-2.41,12.98-3.76,34.49-12.04,68.52-26.86,105.24-30.83,19.75-2.22,39.56-1.47,59.41.37,0,0,.28-3.22.56-6.45v-6.49c-65.32-4.51-100.14,8.78-158.59,32.87-6.2,2.54-12.23,4.82-18.63,6.73-1.37.42-3.38,1.05-4.76,1.4-4.58,1.29-9.84,2.6-14.51,3.58-6.28,1.37-13.34,2.61-19.71,3.53-33.22,4.69-67.19,5.17-100.63,2.32l-.16,1.18v1.2c3.34.44,6.64.78,9.97,1.11Z"/>
  <path class="cls-1" d="M4.82,423.05c5.07.51,10.16.91,15.25,1.24,32.22,1.96,64.86,1.33,96.71-4.08,1.47-.22,3.56-.65,5.04-.92,1.44-.29,3.61-.67,5.02-1.01,3.93-.83,8.63-1.95,12.47-2.97,7.38-1.98,14.81-4.46,21.88-7.21,57.77-22.2,91.52-34.65,155.46-28.68,0,0,.18-2.09.36-4.19v-4.21c-27.15-1.98-54.98-1.52-81.56,4.77-29.88,6.93-57.67,19.31-86.06,29.98-3.14,1.03-6.26,2.13-9.45,3.02-1.38.41-3.39,1.01-4.79,1.36-6.29,1.7-13.06,3.22-19.48,4.4-6.35,1.18-13.43,2.26-19.83,3.01-31.65,3.68-63.82,3.73-95.54.69,0,0-.14,1.06-.28,2.11v2.15c1.63.2,3.21.37,4.82.53Z"/>
  <path class="cls-1" d="M9.96,518.93c27.05,2.5,54.35,2.93,81.46.7,11.82-1.02,23.87-2.6,35.48-4.96,3.71-.74,8.26-1.81,11.9-2.7,4.34-1.14,8.71-2.42,12.97-3.78,34.48-12.09,68.5-26.97,105.23-30.99,19.76-2.25,39.6-1.53,59.47.29,0,0,.26-3.07.53-6.14v-6.17c-65.28-4.6-100.1,8.64-158.56,32.64-6.2,2.53-12.24,4.8-18.64,6.71-1.37.42-3.39,1.04-4.76,1.4-4.59,1.28-9.84,2.59-14.52,3.56-6.29,1.37-13.34,2.6-19.72,3.5-33.22,4.65-67.18,5.08-100.61,2.18,0,0-.09.66-.18,1.33v1.35c3.34.43,6.64.77,9.96,1.09Z"/>
  <path class="cls-1" d="M9.95,505.32c27.06,2.46,54.36,2.85,81.47.59,11.82-1.04,23.86-2.63,35.47-5.01,3.71-.75,8.25-1.82,11.89-2.72,4.33-1.15,8.7-2.43,12.96-3.79,34.47-12.14,68.48-27.07,105.22-31.15,19.78-2.28,39.64-1.59,59.53.2,0,0,.25-2.92.5-5.84v-5.87c-65.25-4.69-100.06,8.51-158.53,32.41-6.2,2.52-12.26,4.79-18.66,6.68-1.37.42-3.39,1.04-4.77,1.39-4.59,1.28-9.85,2.57-14.53,3.54-6.29,1.36-13.35,2.58-19.73,3.48-33.22,4.6-67.18,4.98-100.6,2.05l-.2,1.47v1.49c3.33.43,6.63.76,9.95,1.08Z"/>
  <path class="cls-1" d="M9.94,491.71c23.69,2.13,47.52,2.65,71.29,1.23,15.26-.92,30.7-2.73,45.65-5.8,3.71-.75,8.25-1.83,11.88-2.73,4.33-1.15,8.69-2.44,12.95-3.81,34.47-12.19,68.46-27.16,105.22-31.29,19.79-2.31,39.68-1.65,59.58.12,0,0,.24-2.77.48-5.54v-5.58c-65.22-4.78-100.02,8.38-158.5,32.19-6.21,2.52-12.27,4.77-18.67,6.66-1.37.42-3.39,1.04-4.77,1.38-4.59,1.27-9.86,2.56-14.53,3.52-6.29,1.35-13.35,2.56-19.73,3.45-33.22,4.55-67.17,4.9-100.58,1.91l-.21,1.6v1.62c3.33.42,6.62.75,9.94,1.06Z"/>
  <path class="cls-1" d="M20.07,437.95c32.22,1.99,64.85,1.4,96.71-3.98,1.47-.22,3.56-.64,5.04-.92,1.45-.29,3.61-.66,5.03-1,3.93-.83,8.63-1.94,12.47-2.96,7.39-1.98,14.82-4.45,21.89-7.19,57.77-22.12,91.5-34.54,155.4-28.5,0,0,.19-2.22.38-4.44v-4.47c-27.16-1.96-55.01-1.46-81.6,4.86-29.89,6.96-57.66,19.37-86.05,30.08-3.14,1.04-6.25,2.13-9.44,3.03-1.38.42-3.39,1.02-4.78,1.36-6.29,1.71-13.05,3.24-19.47,4.42-6.35,1.19-13.43,2.28-19.83,3.03-31.64,3.71-63.82,3.8-95.55.79,0,0-.14,1.01-.27,2.03v2.06c6.68.8,13.36,1.34,20.07,1.79Z"/>
  <path class="cls-1" d="M20.05,328.45c32.23,1.77,64.85.94,96.66-4.66,6.59-1.16,13.52-2.67,19.98-4.37,1.44-.35,3.49-.94,4.93-1.36,6.53-1.83,13.05-4.16,19.31-6.61,37.16-14.41,74.98-29.77,115.64-30.74,13.36-.53,26.79.01,40.19,1.04l.22-2.6v-2.62c-20.27-1.54-40.86-1.94-61.1.69-33.93,4.26-65.56,17.45-96.99,29.49-6.24,2.44-12.4,4.65-18.84,6.46-1.39.41-3.41,1-4.81,1.33-6.32,1.67-13.1,3.15-19.54,4.29-6.37,1.14-13.46,2.18-19.87,2.89-31.66,3.48-63.83,3.34-95.51.11,0,0-.17,1.25-.33,2.49v2.53c6.68.75,13.34,1.24,20.05,1.64Z"/>
  <path class="cls-1" d="M20.06,410.62c32.22,1.93,64.86,1.27,96.7-4.17,1.47-.22,3.56-.65,5.04-.93,1.44-.29,3.61-.67,5.02-1.01,3.93-.84,8.62-1.95,12.46-2.98,7.38-1.99,14.8-4.47,21.86-7.23,57.77-22.27,91.53-34.76,155.51-28.85,0,0,.17-1.97.34-3.94v-3.96c-27.13-2.01-54.94-1.58-81.52,4.68-29.88,6.9-57.68,19.25-86.08,29.89-3.14,1.03-6.26,2.12-9.46,3.01-1.38.41-3.39,1.01-4.79,1.35-6.3,1.7-13.07,3.21-19.49,4.38-6.36,1.17-13.43,2.25-19.84,2.99-31.65,3.65-63.82,3.67-95.53.59,0,0-.15,1.1-.29,2.19v2.23c6.68.78,13.35,1.31,20.06,1.74Z"/>
  <path class="cls-1" d="M20.05,314.73c32.23,1.74,64.85.9,96.65-4.72,6.58-1.16,13.52-2.68,19.97-4.38,1.43-.35,3.49-.94,4.93-1.37,6.53-1.83,13.04-4.16,19.3-6.62,37.16-14.44,74.99-29.83,115.67-30.83,13.37-.54,26.81,0,40.22,1.01,0,0,.1-1.2.21-2.41v-2.43c-20.26-1.56-40.85-1.97-61.08.65-33.92,4.23-65.55,17.41-96.98,29.42-6.24,2.44-12.41,4.64-18.85,6.45-1.39.41-3.41.99-4.81,1.33-6.32,1.66-13.11,3.14-19.55,4.28-6.37,1.14-13.46,2.17-19.88,2.88-31.67,3.46-63.83,3.3-95.51.05,0,0-.17,1.26-.34,2.51v2.55c6.68.74,13.34,1.23,20.05,1.63Z"/>
  <path class="cls-1" d="M20.05,355.87c32.23,1.81,64.86,1.04,96.68-4.51,1.47-.22,3.55-.66,5.03-.94,1.44-.29,3.6-.68,5.01-1.03,3.92-.85,8.6-1.98,12.44-3.03,7.36-2.02,14.75-4.52,21.8-7.29,57.79-22.52,91.6-35.14,155.73-29.45,0,0,.13-1.51.26-3.02v-3.04c-27.08-2.11-54.81-1.78-81.37,4.38-29.86,6.78-57.71,19.04-86.12,29.56-3.15,1.02-6.28,2.1-9.49,2.98-1.39.41-3.4,1-4.8,1.34-6.31,1.67-13.09,3.17-19.53,4.31-6.36,1.15-13.45,2.2-19.86,2.92-31.66,3.53-63.82,3.44-95.51.25,0,0-.16,1.21-.33,2.43v2.46c6.68.76,13.35,1.26,20.05,1.67Z"/>
  <path class="cls-1" d="M20.05,342.16c32.23,1.79,64.85.99,96.67-4.59,1.47-.23,3.55-.66,5.03-.95,1.44-.3,3.6-.69,5.01-1.03,3.92-.85,8.6-1.99,12.43-3.03,7.36-2.02,14.74-4.52,21.79-7.31,57.8-22.58,91.62-35.22,155.78-29.58,0,0,.12-1.4.24-2.81v-2.83c-27.07-2.13-54.78-1.82-81.34,4.31-29.85,6.76-57.71,18.99-86.13,29.49-3.15,1.02-6.28,2.1-9.49,2.98-1.39.41-3.41,1-4.8,1.33-6.31,1.67-13.1,3.16-19.53,4.3-6.36,1.15-13.45,2.19-19.87,2.91-31.66,3.51-63.82,3.39-95.51.18,0,0-.17,1.23-.33,2.46v2.5c6.68.75,13.35,1.25,20.05,1.65Z"/>
  <path class="cls-1" d="M20.06,396.94c32.23,1.9,64.86,1.21,96.7-4.27,1.47-.22,3.55-.65,5.03-.93,1.44-.29,3.61-.67,5.02-1.01,3.93-.84,8.62-1.96,12.46-3,7.37-2,14.79-4.48,21.85-7.24,57.77-22.34,91.55-34.86,155.57-29.01,0,0,.16-1.85.32-3.7v-3.72c-27.12-2.04-54.91-1.63-81.48,4.6-29.87,6.86-57.69,19.19-86.09,29.8-3.14,1.03-6.27,2.12-9.46,3.01-1.38.41-3.4,1.01-4.79,1.35-6.3,1.69-13.07,3.2-19.5,4.36-6.36,1.17-13.44,2.24-19.84,2.97-31.65,3.62-63.82,3.6-95.52.5,0,0-.15,1.13-.3,2.26v2.3c6.68.78,13.35,1.3,20.06,1.72Z"/>
  <path class="cls-1" d="M20.06,383.26c32.23,1.87,64.86,1.15,96.69-4.35,1.47-.22,3.55-.66,5.03-.93,1.44-.29,3.6-.68,5.02-1.02,3.93-.84,8.61-1.97,12.45-3.01,7.37-2,14.77-4.5,21.83-7.26,57.78-22.4,91.56-34.96,155.62-29.17,0,0,.15-1.73.3-3.46v-3.48c-27.11-2.06-54.88-1.68-81.45,4.52-29.87,6.83-57.69,19.14-86.1,29.72-3.15,1.03-6.27,2.11-9.47,3-1.38.41-3.4,1.01-4.79,1.34-6.3,1.68-13.08,3.19-19.51,4.35-6.36,1.16-13.44,2.22-19.85,2.95-31.65,3.59-63.82,3.55-95.52.41,0,0-.16,1.16-.31,2.33v2.36c6.68.77,13.35,1.29,20.06,1.7Z"/>
  <path class="cls-1" d="M4.79,368.39c5.08.49,10.17.87,15.26,1.18,32.23,1.84,64.86,1.09,96.69-4.44,1.47-.22,3.55-.66,5.03-.94,1.44-.29,3.6-.68,5.02-1.02,3.92-.85,8.61-1.97,12.44-3.02,7.37-2.01,14.76-4.51,21.82-7.28,57.78-22.46,91.58-35.05,155.68-29.31,0,0,.14-1.62.28-3.24v-3.26c-27.09-2.09-54.84-1.73-81.41,4.45-29.86,6.81-57.7,19.08-86.11,29.64-3.15,1.02-6.28,2.11-9.48,2.99-1.39.41-3.4,1-4.8,1.34-6.31,1.68-13.08,3.18-19.52,4.33-6.36,1.16-13.45,2.21-19.86,2.94-31.65,3.56-63.82,3.49-95.51.33l-.32,2.38v2.42c1.62.19,3.2.35,4.79.51Z"/>
</svg>