<?xml version="1.0" encoding="UTF-8"?>
<svg id="Layer_1" data-name="Layer 1" xmlns="http://www.w3.org/2000/svg" viewBox="0 0 400 146">
  <defs>
    <style>
      .cls-1 {
        fill: #f8f7ec;
      }

      .cls-2 {
        fill: #131510;
      }
    </style>
  </defs>
  <rect class="cls-2" width="400" height="146"/>
  <path class="cls-1" d="M357.33,40.17c-8.8,2.52-12.22,7.56-13.79,11.57-2.21.15-4.96.38-7.49.69-1.06.15-2.11.3-3.16.47-.19.03-.36.06-.51.08-26.35,4.23-50.34,14.33-74.74,22.06-44.91,15.01-77.28,23.55-124.07,30.81H42.67c46.01-4.69,85.97-10.08,131.29-19.01,34.49-6.88,73.99-19.68,107.3-30.98,14.87-4.92,30.45-10.61,46.21-13.42h0s0,0,.01,0c.23-.04.47-.08.7-.12,2.87-.52,11.48-2.21,29.15-2.14ZM332.88,65.61c-17.67,3.41-34.41,10.47-51.22,16.34-20.57,7.42-43,15.22-64.29,20.18-5.65,1.31-11.35,2.55-17.07,3.7h49.06c20.76-6.09,40.66-15.04,60.9-22.37,9.09-3.17,18.33-6,27.79-7.51l2.45-11.51c-2.56.3-5.1.67-7.62,1.16ZM291.92,105.84h39.77l3.51-16.5c-1.06.29-2.11.59-3.15.91-8.81,2.66-17.07,6.2-25.44,9.62-4.87,2.07-9.77,4.05-14.68,5.96Z"/>
</svg>