<?xml version="1.0" encoding="UTF-8"?>
<svg id="Layer_1" data-name="Layer 1" xmlns="http://www.w3.org/2000/svg" viewBox="0 0 400 146">
  <defs>
    <style>
      .cls-1 {
        fill: #f8f7ec;
      }

      .cls-2 {
        fill: #131510;
      }
    </style>
  </defs>
  <rect class="cls-1" width="400" height="146"/>
  <g>
    <path class="cls-2" d="M37.5,106.22l7.58-.77c50.51-5.15,89.76-10.83,131.26-19.01,34.13-6.8,73.37-19.47,107.25-30.97,2.31-.76,4.63-1.54,6.97-2.33,12.75-4.29,25.94-8.72,39.28-11.1l.74-.13.31-.06c3.12-.57,11.41-2.09,27.78-2.09.37,0,.75,0,1.13,0h2.72s-2.61.76-2.61.76c-6.9,1.97-11.32,5.68-13.53,11.34l-.09.23-.25.02c-2.84.2-5.35.43-7.47.69-1.13.16-2.16.31-3.15.46-.2.03-.37.06-.51.08-19.11,3.06-37.2,9.31-54.7,15.34-6.54,2.26-13.3,4.59-19.98,6.7-47.65,15.93-80.13,23.99-124.12,30.82h-.03s-98.55,0-98.55,0Z"/>
    <path class="cls-2" d="M198.88,106.22l3.79-.77c5.76-1.17,11.5-2.41,17.06-3.7,21.67-5.05,44.53-13.06,64.25-20.17,3.91-1.37,7.88-2.82,11.72-4.23,12.77-4.68,25.97-9.51,39.56-12.13,2.42-.47,4.92-.85,7.65-1.16l.54-.06-2.62,12.29-.26.04c-10.1,1.61-19.68,4.69-27.72,7.49-7.18,2.6-14.45,5.45-21.48,8.21-12.8,5.03-26.04,10.23-39.44,14.16l-.05.02h-52.98Z"/>
    <path class="cls-2" d="M292.3,106.22l1.92-.75c4.9-1.91,9.84-3.91,14.67-5.96.98-.4,1.96-.8,2.93-1.2,7.25-2.99,14.75-6.07,22.55-8.43,1.01-.31,2.08-.62,3.17-.91l.61-.16-3.71,17.42h-42.15Z"/>
  </g>
</svg>