<?xml version="1.0" encoding="UTF-8"?>
<svg id="Layer_1" data-name="Layer 1" xmlns="http://www.w3.org/2000/svg" viewBox="0 0 456 162">
  <defs>
    <style>
      .cls-1 {
        fill: #131510;
      }
    </style>
  </defs>
  <path class="cls-1" d="M43,118.82l8.63-.88c57.5-5.86,102.19-12.33,149.43-21.64,38.86-7.75,83.53-22.17,122.1-35.26,2.63-.87,5.27-1.76,7.93-2.65,14.52-4.88,29.53-9.93,44.71-12.63l.84-.14.35-.06c3.55-.65,12.99-2.38,31.63-2.38.42,0,.85,0,1.28,0h3.09s-2.97.86-2.97.86c-7.85,2.25-12.89,6.47-15.41,12.91l-.1.26-.28.02c-3.23.22-6.09.49-8.5.78-1.28.18-2.46.35-3.59.53-.22.04-.42.07-.59.09-21.76,3.49-42.36,10.6-62.28,17.47-7.45,2.57-15.15,5.22-22.74,7.63-54.25,18.13-91.23,27.32-141.31,35.09h-.03s-112.2,0-112.2,0Z"/>
  <path class="cls-1" d="M226.73,118.82l4.31-.87c6.56-1.33,13.1-2.75,19.42-4.21,24.67-5.75,50.69-14.87,73.15-22.96,4.45-1.56,8.97-3.21,13.34-4.81,14.53-5.32,29.56-10.83,45.03-13.81,2.76-.53,5.6-.96,8.7-1.32l.61-.07-2.98,14-.3.05c-11.5,1.84-22.41,5.34-31.56,8.53-8.17,2.96-16.45,6.21-24.45,9.35-14.58,5.73-29.65,11.64-44.9,16.12l-.06.02h-60.32Z"/>
  <path class="cls-1" d="M333.08,118.82l2.19-.85c5.58-2.17,11.2-4.45,16.71-6.79,1.12-.46,2.23-.91,3.34-1.37,8.26-3.4,16.79-6.92,25.67-9.6,1.15-.36,2.37-.71,3.61-1.04l.7-.19-4.22,19.83h-47.98Z"/>
</svg>