<?xml version="1.0" encoding="UTF-8"?>
<svg id="Layer_1" data-name="Layer 1" xmlns="http://www.w3.org/2000/svg" viewBox="0 0 456 162">
  <defs>
    <style>
      .cls-1 {
        fill: #d8ff77;
      }
    </style>
  </defs>
  <path class="cls-1" d="M407.12,43.62c-10.01,2.87-13.91,8.61-15.69,13.17-2.52.17-5.65.43-8.53.79-1.2.17-2.41.34-3.6.53-.22.04-.41.07-.58.09-30,4.81-57.31,16.31-85.09,25.11-51.13,17.09-87.98,26.81-141.25,35.07H48.88c52.38-5.34,97.87-11.48,149.47-21.64,39.27-7.83,84.24-22.41,122.16-35.27,16.93-5.6,34.67-12.08,52.61-15.28h0s.01,0,.02,0c.26-.05.53-.09.8-.14,3.27-.59,13.06-2.52,33.19-2.43ZM379.28,72.59c-20.11,3.88-39.18,11.92-58.31,18.6-23.42,8.45-48.96,17.33-73.2,22.98-6.43,1.49-12.92,2.9-19.43,4.22h55.85c23.63-6.93,46.29-17.13,69.33-25.47,10.35-3.6,20.87-6.83,31.64-8.55l2.79-13.1c-2.91.34-5.81.76-8.67,1.32ZM332.65,118.38h45.27l4-18.78c-1.21.32-2.41.67-3.59,1.03-10.03,3.03-19.44,7.05-28.96,10.96-5.55,2.35-11.12,4.61-16.72,6.79Z"/>
</svg>