<?xml version="1.0" encoding="UTF-8"?>
<svg id="Layer_1" data-name="Layer 1" xmlns="http://www.w3.org/2000/svg" viewBox="0 0 156 145.5">
  <defs>
    <style>
      .cls-1 {
        fill: #d8ff77;
      }

      .cls-2 {
        fill: #131510;
      }
    </style>
  </defs>
  <rect class="cls-2" y="-.25" width="156" height="146"/>
  <path class="cls-1" d="M53.42,102l1.34-6.29-.64-.03c-7.1-.35-13.65-1.02-19.54-1.99,14.87-2.04,22.95-11.22,24.04-16.17l7.35-34.53h26.8c12.5,0,19.96,5.27,19.96,14.09,0,8.01-5.33,11.62-9.8,13.24l-1.19.43,1.13.56c1.21.6,7.23,4.01,7.23,11.87,0,11.26-9.71,18.82-24.16,18.82h-32.53ZM75.82,90.64h4.44c5.17,0,8.25-2.99,8.25-7.99,0-3.74-2.09-5.8-5.88-5.8h-3.85l-2.95,13.78ZM81.08,66.21h4c4.65,0,7.11-2.4,7.11-6.94,0-3.17-1.9-4.92-5.36-4.92h-3.24l-2.51,11.86Z"/>
</svg>