<?xml version="1.0" encoding="UTF-8"?>
<svg id="Layer_1" data-name="Layer 1" xmlns="http://www.w3.org/2000/svg" viewBox="0 0 156 145.5">
  <defs>
    <style>
      .cls-1 {
        fill: #f8f7ec;
      }

      .cls-2 {
        fill: #131510;
      }
    </style>
  </defs>
  <rect class="cls-1" width="156" height="146"/>
  <path class="cls-2" d="M103.06,71.12c4.99-1.81,9.98-5.76,9.98-13.5,0-9.29-7.91-14.36-20.13-14.36h-26.75l-7.3,34.32s0,0,0,0c-1.05,4.78-9.99,15.04-27.04,15.81,7.53,1.5,15.55,2.29,23.1,2.66l-1.32,6.21h32.6c14.54,0,24.25-7.74,24.25-19.01,0-6.97-4.64-10.75-7.4-12.13ZM80.61,90.04h-3.7l2.67-12.47h3.35c3.44,0,5.25,1.81,5.25,5.16,0,5.5-3.87,7.31-7.57,7.31ZM85.34,66.04h-3.27l2.24-10.58h2.75c2.92,0,4.73,1.29,4.73,4.3,0,3.96-1.98,6.28-6.45,6.28Z"/>
</svg>