<?xml version="1.0" encoding="UTF-8"?>
<svg id="Layer_1" data-name="Layer 1" xmlns="http://www.w3.org/2000/svg" viewBox="0 0 400 195">
  <defs>
    <style>
      .cls-1 {
        fill: #d8ff77;
      }
    </style>
  </defs>
  <g>
    <path class="cls-1" d="M253.02,106.38c-11.23,0-24.61-4.24-24.61-24.44,0-2.55.22-5.16.65-7.75.11-.67.24-1.35.38-2.02.7-.63,5.42-3.57,9.24-5.95,9.62-5.99,9.61-6.03,9.44-6.62l-.11-.39h-.44c-.13-.01-.29.02-.69.19-1.13.48-2.93,1.26-4.97,2.14-3.67,1.59-8.12,3.51-10.79,4.63,3.15-8.87,11.19-22.44,30.91-22.44,8.86,0,15.5,2.22,19.74,6.6,4.66,4.81,5.24,11.12,5.15,14.56h-20.95c.23-2.84.1-5.01-1.1-6.33-.77-.85-1.9-1.26-3.47-1.26-7.35,0-11.04,17.72-11.04,27.64,0,6.69,3.05,7.69,4.87,7.69,4.18,0,5.7-2.96,6.91-6.35h21.35l4.55-21.38,3.12-14.66c6.93-1.62,14.32-2.98,21.99-4.05l-4.32,20.06h10.46l4.51-20.98c2.04-.3,12.68-1.69,32.69-1.83-11.39,3.18-13.27,10.86-14.13,14.41l-.07.3-9.93,46.65h-21.22l4.94-23.48h-10.46l-4.94,23.48h-21.13l3.02-14.19-1.02-.34c-4.9,10.55-14.76,16.12-28.53,16.12Z"/>
    <polygon class="cls-1" points="46.82 70.67 47.88 65.66 53.35 68.11 54.12 64.47 48.65 62.02 49.72 56.99 64.54 63.58 63.47 68.62 57.33 65.9 56.56 69.54 62.7 72.26 61.64 77.27 46.82 70.67"/>
    <polygon class="cls-1" points="50.49 53.39 52.2 45.33 55.38 45.33 54.4 49.97 57.42 51.29 58.69 45.33 61.87 45.33 60.33 52.61 63.42 53.98 65.25 45.33 68.42 45.33 65.31 59.99 50.49 53.39"/>
    <path class="cls-1" d="M43.5,86.31l2.72-12.81,2.91,1.29-.83,3.89,10.55,4.7c-.97.98-2.42,2.25-4.44,3.47l-7.16-3.19-.84,3.94-2.91-1.29Z"/>
    <path class="cls-1" d="M81.54,99.1c-6.11,0-12.21-.21-18.13-.61-.87-.04-1.75-.12-2.61-.19-.59-.05-1.19-.1-1.79-.15-5.03-.44-10.02-1.03-14.9-1.76,14.37-1.85,22.3-9.24,23.84-16.27l7.4-34.79h27.01c12.59,0,20.11,5.31,20.11,14.2,0,8.07-5.37,11.72-9.88,13.35l-1.19.43,1.13.56c1.22.61,7.29,4.05,7.29,11.96,0,4.27-1.43,8.17-4.14,11.28-11.64,1.32-23.12,1.99-34.15,1.99h0ZM85.28,93.34h4.47c5.2,0,8.31-3.01,8.31-8.04,0-3.76-2.1-5.84-5.93-5.84h-3.88l-2.97,13.88ZM90.58,68.71h4.02c4.69,0,7.16-2.42,7.16-6.98,0-3.2-1.92-4.96-5.4-4.96h-3.26l-2.52,11.94Z"/>
    <path class="cls-1" d="M133.23,45.33h44.26l-2.95,13.92h-24.19l-1.81,8.76h23.21l-3.03,13.92h-23.22l-2.31,10.93c-7.01,1.35-14,2.5-20.81,3.42l10.84-50.95Z"/>
    <path class="cls-1" d="M124.85,106.38c41.14-8.75,63.57-17.31,67.78-19,11.53-4.69,22.58-9.24,31.12-13.46l.96,30.87h-20.94l.44-10.06h-13.12l-4.39,11.65h-61.85Z"/>
    <path class="cls-1" d="M192.79,45.33h30.1l.73,23.83c-6.25,2.43-12.52,4.74-18.65,6.87l.1-2.01c.26-5.2.59-11.67.97-16.65l.04-.58h-1.87l-.12.39c-2,6.7-4.19,13-6.3,19.09l-.86,2.48c-7.43,2.44-14.88,4.69-22.16,6.7l18.01-40.11Z"/>
  </g>
  <g>
    <path class="cls-1" d="M115.99,122.36h3.02l-2.01,9.36h9.74l2.01-9.36h3.04l-4.75,22.42h-3.04l2.19-10.5h-9.74l-2.19,10.5h-3.02l4.75-22.42Z"/>
    <path class="cls-1" d="M145.2,140.06c-.45,2.13-.79,3.88-.94,4.72h-2.85c.07-.48.23-1.64.39-2.37-1.1,1.66-2.66,2.66-5.03,2.66-2.7,0-4.74-1.8-3.83-6.06l2.29-10.79h2.91l-2.21,10.38c-.46,2.26-.17,3.97,2.11,3.97s3.93-1.42,4.78-5.3l1.95-9.06h2.96l-2.52,11.84Z"/>
    <path class="cls-1" d="M166.53,121.1l-4.09,19.31c-.37,1.66-.71,3.47-.87,4.37h-2.85c.03-.38.18-1.34.38-2.31-1.06,1.6-2.42,2.62-4.97,2.62-3.23,0-4.98-2.33-4.98-6.27,0-4.63,2.68-10.88,8.31-10.88,2.63,0,3.86,1.34,4.18,2.37l1.95-9.2h2.93ZM152.26,138.48c0,2.83,1.17,4.19,3.03,4.19,2.99,0,4.4-2.68,5.2-6.46.83-3.91-.09-5.8-2.83-5.8-3.72,0-5.41,4.92-5.41,8.07Z"/>
    <path class="cls-1" d="M184,121.1l-4.09,19.31c-.37,1.66-.71,3.47-.87,4.37h-2.85c.03-.38.18-1.34.38-2.31-1.06,1.6-2.42,2.62-4.97,2.62-3.23,0-4.98-2.33-4.98-6.27,0-4.63,2.68-10.88,8.31-10.88,2.63,0,3.86,1.34,4.18,2.37l1.95-9.2h2.93ZM169.73,138.48c0,2.83,1.17,4.19,3.03,4.19,2.99,0,4.4-2.68,5.2-6.46.83-3.91-.09-5.8-2.83-5.8-3.72,0-5.41,4.92-5.41,8.07Z"/>
    <path class="cls-1" d="M187.15,128.23h2.93l-3.51,16.56h-2.93l3.51-16.56ZM188.64,121.1h2.93l-.75,3.61h-2.93l.75-3.61Z"/>
    <path class="cls-1" d="M193.66,133.41c.73-3.44.93-4.54,1.06-5.18h2.87c-.07.47-.24,1.5-.43,2.48.9-1.37,2.32-2.77,4.99-2.77,3.1,0,4.97,2.07,4.09,6.19l-2.25,10.66h-2.96l2.15-10.2c.46-2.18.19-4.08-2.24-4.08-2.67,0-4.15,2.06-4.87,5.46l-1.86,8.82h-2.93l2.4-11.38Z"/>
    <path class="cls-1" d="M221.39,143.73c-1.06,4.91-2.82,7.84-8.1,7.84-4.82,0-5.9-2.89-5.79-5.19h2.84c.07,1.94,1.16,2.86,3.23,2.86,3.14,0,4.11-1.99,4.99-5.65l.37-1.5c-1.23,1.86-2.87,2.58-4.94,2.58-3.18,0-4.99-2.31-4.99-6.2,0-4.51,2.82-10.53,8.15-10.53,2.62,0,3.96,1.34,4.21,2.59.19-.91.45-1.86.58-2.3h2.86c-.24.93-.63,2.57-1.11,4.84l-2.3,10.66ZM212.1,138.21c0,2.33.81,3.98,3.02,3.98,2.93,0,4.43-2.74,5.09-5.77.64-3,.53-5.98-2.83-5.98-3.61,0-5.28,4.76-5.28,7.77Z"/>
    <path class="cls-1" d="M229.31,137.1c-.1.48-.18,1.09-.18,1.74,0,2.21.85,3.87,3.18,3.87,2.55,0,3.37-1.72,3.94-2.77h2.95c-.9,2.32-2.72,5.15-7.18,5.15-4.17,0-5.82-2.68-5.82-6.37,0-4.36,2.44-10.79,8.52-10.79,3.94,0,5.63,2.61,5.63,5.77,0,.98-.17,2.12-.48,3.39h-10.55ZM237.35,135.02c.1-.48.15-.85.15-1.37,0-2.03-.91-3.4-3.11-3.4-2.59,0-4.05,2.43-4.63,4.78h7.59Z"/>
    <path class="cls-1" d="M254.91,138.13l-3.48,6.65h-3.15c3.7-7.07,7.36-14.06,11.75-22.42h3.85l2.56,22.42h-3.01l-.77-6.65h-7.75ZM262.52,135.58c-.56-5.54-1.03-9.03-1.04-10.73h-.05c-1.15,2.55-2.95,6.14-5.36,10.73h6.45Z"/>
    <path class="cls-1" d="M271.73,133.83c.55-2.65.91-4.47,1.1-5.6h2.82c-.03.45-.3,2.04-.56,3.24,1.25-2.21,3.19-3.5,5.88-3.5l-.67,3.06c-3.5.1-5.52,2.11-6.3,5.82l-1.66,7.94h-2.93l2.32-10.96Z"/>
    <path class="cls-1" d="M284.05,137.1c-.1.48-.18,1.09-.18,1.74,0,2.21.85,3.87,3.18,3.87,2.55,0,3.37-1.72,3.94-2.77h2.95c-.9,2.32-2.72,5.15-7.18,5.15-4.17,0-5.82-2.68-5.82-6.37,0-4.36,2.44-10.79,8.52-10.79,3.94,0,5.63,2.61,5.63,5.77,0,.98-.17,2.12-.48,3.39h-10.55ZM292.09,135.02c.1-.48.15-.85.15-1.37,0-2.03-.91-3.4-3.11-3.4-2.59,0-4.05,2.43-4.63,4.78h7.59Z"/>
    <path class="cls-1" d="M299.04,133.41c.73-3.44.93-4.54,1.06-5.18h2.87c-.07.47-.24,1.5-.43,2.48.9-1.37,2.32-2.77,4.99-2.77,3.1,0,4.97,2.07,4.09,6.19l-2.25,10.66h-2.96l2.15-10.2c.46-2.18.19-4.08-2.24-4.08-2.67,0-4.15,2.06-4.87,5.46l-1.86,8.82h-2.93l2.4-11.38Z"/>
    <path class="cls-1" d="M326.23,141c-.27,1.29-.63,3-.74,3.78h-2.82c.07-.58.15-1.14.35-2.09-.89,1.32-2.24,2.39-4.88,2.39-3,0-4.41-2.04-4.41-4.39,0-3.44,2.52-5.48,7.15-5.87,1.27-.12,2.15-.16,3.81-.16l.19-.83c.44-1.95.13-3.69-2.68-3.69-2.33,0-3.04,1.35-3.47,2.62h-2.92c.59-2.51,2.23-4.81,6.65-4.81,3.8,0,6.22,1.68,5.23,6.25l-1.46,6.82ZM324.27,136.75c-1.16-.02-2.19.02-3.23.13-2.4.23-4.27,1.19-4.27,3.42,0,1.38.75,2.43,2.51,2.43,3.21,0,4.27-2.67,4.83-5.26l.15-.72Z"/>
  </g>
</svg>