<?xml version="1.0" encoding="UTF-8"?>
<svg id="Layer_1" data-name="Layer 1" xmlns="http://www.w3.org/2000/svg" viewBox="0 0 400 195">
  <defs>
    <style>
      .cls-1 {
        fill: #131510;
      }
    </style>
  </defs>
  <g>
    <path class="cls-1" d="M111.11,122h3.72l-1.9,8.82h8.44l1.9-8.82h3.74l-4.61,21.75h-3.74l2.06-9.82h-8.44l-2.06,9.82h-3.72l4.61-21.75Z"/>
    <path class="cls-1" d="M140.48,139.01c-.47,2.24-.79,3.89-.94,4.74h-3.52c.06-.5.2-1.43.31-1.99-1.19,1.61-2.63,2.28-4.77,2.28-2.9,0-4.57-2.13-3.75-6.01l2.24-10.55h3.6l-2.15,10.15c-.41,1.95-.11,3.42,1.81,3.42s3.34-1.2,4.08-4.58l1.92-8.98h3.64l-2.46,11.54Z"/>
    <path class="cls-1" d="M161.85,120.72l-3.94,18.6c-.4,1.79-.72,3.52-.89,4.44h-3.52c.03-.36.17-1.26.32-1.98-1.04,1.45-2.3,2.28-4.7,2.28-3.1,0-4.93-2.23-4.93-6.21,0-4.63,2.7-10.67,8.18-10.67,2.49,0,3.71,1.17,4.05,2.07l1.81-8.53h3.62ZM148.01,137.5c0,2.48.98,3.67,2.65,3.67,2.75,0,3.9-2.54,4.56-5.68.71-3.42.2-5.33-2.41-5.33-3.31,0-4.8,4.48-4.8,7.34Z"/>
    <path class="cls-1" d="M179.48,120.72l-3.94,18.6c-.4,1.79-.72,3.52-.89,4.44h-3.52c.03-.36.17-1.26.32-1.98-1.04,1.45-2.3,2.28-4.7,2.28-3.1,0-4.93-2.23-4.93-6.21,0-4.63,2.7-10.67,8.18-10.67,2.49,0,3.71,1.17,4.05,2.07l1.81-8.53h3.62ZM165.64,137.5c0,2.48.98,3.67,2.65,3.67,2.75,0,3.9-2.54,4.56-5.68.71-3.42.2-5.33-2.41-5.33-3.31,0-4.8,4.48-4.8,7.34Z"/>
    <path class="cls-1" d="M182.31,127.48h3.62l-3.44,16.27h-3.62l3.44-16.27ZM183.72,120.72h3.62l-.79,3.77h-3.62l.79-3.77Z"/>
    <path class="cls-1" d="M189.11,132.56c.72-3.37.9-4.41,1.02-5.08h3.55c-.05.39-.18,1.28-.36,2.21.86-1.24,2.22-2.51,4.71-2.51,3.21,0,4.87,2.15,4.04,5.99l-2.23,10.58h-3.64l2.09-9.92c.42-1.95.22-3.55-1.94-3.55s-3.44,1.5-4.1,4.57l-1.88,8.9h-3.62l2.37-11.19Z"/>
    <path class="cls-1" d="M217.46,142.55c-1,4.63-2.63,7.78-8.3,7.78-5,0-6.11-2.93-5.99-5.27h3.49c.06,1.62.95,2.47,2.83,2.47,2.86,0,3.67-1.72,4.45-5.02l.28-1.11c-1.16,1.62-2.75,2.18-4.59,2.18-3.13,0-5.03-2.26-5.03-6.17,0-4.45,2.79-10.22,8.01-10.22,2.47,0,3.83,1.2,4.11,2.31.19-.87.4-1.61.52-2.02h3.55c-.26.99-.64,2.59-1.12,4.84l-2.2,10.24ZM208.42,137.05c0,2.07.73,3.54,2.7,3.54,2.57,0,3.84-2.29,4.43-5.02.57-2.64.53-5.4-2.48-5.4-3.27,0-4.65,4.3-4.65,6.88Z"/>
    <path class="cls-1" d="M225.64,136.41c-.07.35-.16.87-.16,1.44,0,1.81.65,3.33,2.71,3.33s2.84-1.37,3.36-2.35h3.63c-1.02,2.74-2.97,5.21-7.3,5.21s-6-2.62-6-6.41,2.28-10.45,8.58-10.45c4,0,5.81,2.58,5.81,5.74,0,.92-.15,2.04-.51,3.5h-10.12ZM232.67,134.01c.09-.43.14-.78.14-1.22,0-1.64-.73-2.86-2.67-2.86-2.33,0-3.49,2.23-3.94,4.08h6.48Z"/>
    <path class="cls-1" d="M250.57,137.97l-2.95,5.78h-3.86c3.49-6.79,6.94-13.54,11.21-21.75h4.79l2.29,21.75h-3.69l-.63-5.78h-7.17ZM257.64,134.88c-.43-4.82-.82-8.09-.84-9.94h-.04c-1.07,2.43-2.73,5.91-4.82,9.94h5.7Z"/>
    <path class="cls-1" d="M267.03,132.98c.55-2.65.9-4.36,1.09-5.51h3.49c-.03.48-.27,1.93-.51,3.04,1.14-1.99,2.83-3.3,5.6-3.3l-.81,3.74c-3.31,0-5.16,1.65-5.92,5.24l-1.59,7.55h-3.62l2.28-10.77Z"/>
    <path class="cls-1" d="M280.48,136.41c-.07.35-.16.87-.16,1.44,0,1.81.65,3.33,2.71,3.33s2.84-1.37,3.36-2.35h3.63c-1.02,2.74-2.97,5.21-7.3,5.21s-6-2.62-6-6.41,2.28-10.45,8.58-10.45c4,0,5.81,2.58,5.81,5.74,0,.92-.15,2.04-.51,3.5h-10.12ZM287.5,134.01c.09-.43.14-.78.14-1.22,0-1.64-.73-2.86-2.67-2.86-2.33,0-3.49,2.23-3.94,4.08h6.48Z"/>
    <path class="cls-1" d="M294.76,132.56c.72-3.37.9-4.41,1.02-5.08h3.55c-.05.39-.18,1.28-.36,2.21.86-1.24,2.22-2.51,4.71-2.51,3.21,0,4.87,2.15,4.04,5.99l-2.23,10.58h-3.64l2.09-9.92c.42-1.95.22-3.55-1.94-3.55s-3.44,1.5-4.1,4.57l-1.88,8.9h-3.62l2.37-11.19Z"/>
    <path class="cls-1" d="M322.48,139.94c-.3,1.46-.64,3.05-.75,3.81h-3.49c.05-.5.12-1,.29-1.8-.96,1.29-2.27,2.09-4.58,2.09-2.81,0-4.36-1.86-4.36-4.35,0-3.55,2.62-5.51,7.15-5.89,1.16-.1,2-.16,3.51-.16l.14-.62c.42-1.8.13-3.26-2.27-3.26-2.06,0-2.64,1.25-2.98,2.27h-3.57c.57-2.51,2.17-4.86,6.84-4.86,3.99,0,6.46,1.71,5.45,6.4l-1.36,6.37ZM319.76,136.1c-1.01,0-1.89,0-2.83.13-1.95.21-3.61.98-3.61,2.96,0,1.18.63,2.06,2.15,2.06,2.82,0,3.67-2.33,4.17-4.64l.11-.5Z"/>
  </g>
  <g>
    <path class="cls-1" d="M319.12,45.63l-4.38,20.36h-9.11l4.22-19.62c-7.3,1-14.91,2.35-22.53,4.14l-3.16,14.87c.3-9.32-4.4-21.28-24.75-21.28-17.64,0-27.02,11.18-30.96,23.29,3.46-1.39,13.02-5.58,16.42-7.03,4.01-1.71-17.53,11.04-17.67,11.7-.15.71-.28,1.42-.4,2.12-.43,2.62-.64,5.2-.64,7.63,0,13.92,6.61,24.31,24.48,24.31,14.44,0,23.67-6.13,28.25-16l-3.08,14.45h21.65l2.57-12.2,2.24-10.65h9.11l-4.81,22.85h21.73l9.75-45.81c.89-3.62,2.79-13.13,18.94-14.98-25.87-.12-37.88,1.85-37.88,1.85ZM259.15,85.49c-1.2,3.44-2.49,6.19-6.36,6.19-2.92,0-4.21-2.75-4.21-6.96,0-9.62,3.52-26.37,10.22-26.37,3.95,0,4.3,2.92,3.87,7.39h21.41l-4.21,19.76h-20.73Z"/>
    <polygon class="cls-1" points="66.01 72.06 60.04 69.42 60.57 66.92 66.54 69.57 67.81 63.61 52.4 56.75 51.13 62.71 56.45 65.09 55.93 67.58 50.6 65.2 49.35 71.13 64.76 77.99 66.01 72.06"/>
    <polygon class="cls-1" points="71.62 45.63 67.47 45.63 65.73 53.83 63.7 52.94 65.26 45.63 61.08 45.63 59.89 51.22 57.93 50.36 58.94 45.63 54.76 45.63 52.92 54.31 68.33 61.17 71.62 45.63"/>
    <path class="cls-1" d="M50.75,84.21l6.63,2.95c2.28-1.35,3.99-2.84,5.18-4.16l-10.56-4.7.8-3.79-3.82-1.7-2.87,13.53,3.82,1.7.81-3.83Z"/>
    <path class="cls-1" d="M114.15,73.46c4.98-1.8,9.97-5.76,9.97-13.49,0-9.28-7.9-14.35-20.1-14.35h-26.72l-7.3,34.28s0,0,0,0c-1.51,6.87-9.98,15.02-27,15.79,6.21,1.06,12.47,1.85,18.78,2.4,1.44.1,2.87.26,4.28.33,16.88,1.16,34.02.59,51.18-1.37,2.76-3.1,4.3-7.01,4.3-11.48,0-6.96-4.64-10.74-7.39-12.11ZM91.73,92.36h-3.69l2.66-12.46h3.35c3.44,0,5.24,1.8,5.24,5.15,0,5.5-3.87,7.3-7.56,7.3ZM96.46,68.39h-3.26l2.23-10.57h2.75c2.92,0,4.73,1.29,4.73,4.3,0,3.95-1.98,6.27-6.44,6.27Z"/>
    <path class="cls-1" d="M144.2,92.87l2.23-10.56h22.59l3.18-14.6h-22.59l1.55-7.47h23.54l3.09-14.6h-44.16l-10.8,50.74c7.13-.94,14.26-2.11,21.37-3.49Z"/>
    <path class="cls-1" d="M191.68,86.59c-3.58,1.43-27.28,10.57-70.88,19.51h65.67l4.28-11.34h11.86l-.43,9.79h21.48l-.98-31.42c-8.17,4.09-18.79,8.5-30.99,13.45Z"/>
    <path class="cls-1" d="M196.62,79.04h-.12c2.41-6.96,4.81-13.74,7.04-21.22h.86c-.44,5.82-.82,13.9-1.08,18.96,6.49-2.24,12.92-4.61,19.26-7.08l-.74-24.08h-30.15l-18.13,40.37c7.75-2.12,15.45-4.44,23.06-6.95Z"/>
  </g>
</svg>