<?xml version="1.0" encoding="UTF-8"?>
<svg id="Layer_1" data-name="Layer 1" xmlns="http://www.w3.org/2000/svg" viewBox="0 0 400 195">
  <defs>
    <style>
      .cls-1 {
        fill: #131510;
      }
    </style>
  </defs>
  <g>
    <path class="cls-1" d="M178.07,143.96l-2.27-21.76h3.73l.82,10.17c.24,2.94.56,5.91.54,8.19h.06c.85-2.08,2.54-5.28,3.99-8.11l5.27-10.25h3.98l-11.7,21.76h-4.44Z"/>
    <path class="cls-1" d="M206.31,133.65c0,4.75-2.47,10.6-8.74,10.6-4.37,0-6.23-2.75-6.23-6.49,0-4.27,2.5-10.39,8.85-10.39,4.18,0,6.13,2.68,6.13,6.27ZM195.1,137.73c0,2.24.8,3.6,2.81,3.6,3.4,0,4.72-4.74,4.72-7.62,0-2.26-.87-3.4-2.83-3.4-3.31,0-4.71,4.41-4.71,7.42Z"/>
    <path class="cls-1" d="M207.72,143.96l4.86-23.05h3.62l-4.86,23.05h-3.62Z"/>
    <path class="cls-1" d="M215.58,143.96l4.86-23.05h3.62l-4.86,23.05h-3.62Z"/>
    <path class="cls-1" d="M227.73,136.62c-.07.35-.16.87-.16,1.44,0,1.81.65,3.33,2.71,3.33s2.84-1.37,3.36-2.35h3.63c-1.02,2.74-2.97,5.21-7.31,5.21s-6-2.62-6-6.42,2.28-10.46,8.58-10.46c4,0,5.81,2.58,5.81,5.74,0,.92-.15,2.05-.51,3.5h-10.13ZM234.76,134.21c.09-.43.14-.79.14-1.22,0-1.64-.73-2.86-2.67-2.86-2.33,0-3.49,2.23-3.94,4.08h6.48Z"/>
    <path class="cls-1" d="M244.6,127.68c.52,6.4.98,11.2,1.01,12.88h.03c.8-1.83,3.11-7.15,5.97-12.88h3.82l-8.95,17.47c-2.51,4.87-4.03,5.39-7.24,5.39-.3,0-1.45-.08-1.88-.17l.64-3.06c.37.06.93.11,1.41.11,1.67,0,2.43-.98,3.48-3.13l-1.95-16.63h3.67Z"/>
    <path class="cls-1" d="M281.27,137.69c-1.17,3.44-3.6,6.58-9.21,6.58-5.21,0-7.69-3.32-7.69-8.54,0-5.69,3.2-13.83,10.98-13.83,5.25,0,7.32,3.41,7.23,7.1h-3.59c-.16-2.04-.93-4.08-4.03-4.08-4.64,0-6.7,6.19-6.7,10.53,0,3.65,1.3,5.84,4.24,5.84,2.71,0,4.03-1.38,5.02-3.59h3.76Z"/>
    <path class="cls-1" d="M283.04,143.96l4.86-23.05h3.62l-4.86,23.05h-3.62Z"/>
    <path class="cls-1" d="M304.54,139.22c-.47,2.24-.79,3.89-.94,4.74h-3.53c.06-.5.2-1.43.31-1.99-1.19,1.62-2.64,2.28-4.78,2.28-2.9,0-4.58-2.13-3.75-6.01l2.24-10.55h3.6l-2.15,10.15c-.41,1.95-.11,3.42,1.81,3.42s3.34-1.2,4.08-4.59l1.93-8.99h3.64l-2.46,11.54Z"/>
    <path class="cls-1" d="M312.6,120.91h3.62l-1.87,8.85c.88-1.2,2.22-2.39,4.79-2.39,3.09,0,4.8,2.39,4.8,5.64,0,4.59-2.25,11.22-8.29,11.22-2.47,0-3.52-1.12-3.95-2.25-.1.5-.33,1.48-.49,1.97h-3.56c.22-.97.69-3.07,1.07-4.83l3.86-18.21ZM320.19,133.71c0-2.25-.95-3.35-2.69-3.35-2.67,0-4.06,2.72-4.63,5.41-.64,3.02-.36,5.54,2.46,5.54,3.43,0,4.86-4.86,4.86-7.6Z"/>
  </g>
  <g>
    <path class="cls-1" d="M319.1,45.78l-4.38,20.37h-9.11l4.23-19.63c-7.3,1-14.92,2.35-22.54,4.14l-3.17,14.87c.3-9.32-4.4-21.29-24.76-21.29-17.65,0-27.04,11.19-30.98,23.31,3.46-1.4,13.03-5.58,16.43-7.03,4.02-1.71-17.54,11.05-17.68,11.71-.15.71-.28,1.42-.4,2.12-.43,2.62-.64,5.2-.64,7.63,0,13.92,6.62,24.32,24.5,24.32,14.45,0,23.68-6.13,28.26-16l-3.08,14.46h21.66l2.57-12.21,2.24-10.66h9.11l-4.81,22.86h21.75l9.75-45.83c.9-3.63,2.8-13.13,18.95-14.99-25.88-.12-37.9,1.85-37.9,1.85ZM259.1,85.66c-1.2,3.44-2.49,6.19-6.36,6.19-2.92,0-4.21-2.75-4.21-6.96,0-9.63,3.52-26.39,10.23-26.39,3.95,0,4.3,2.92,3.87,7.39h21.42l-4.21,19.77h-20.74Z"/>
    <polygon class="cls-1" points="65.87 72.23 59.89 69.58 60.41 67.09 66.4 69.74 67.66 63.78 52.24 56.92 50.98 62.87 56.3 65.26 55.77 67.75 50.45 65.37 49.19 71.3 64.61 78.16 65.87 72.23"/>
    <polygon class="cls-1" points="71.48 45.78 67.32 45.78 65.58 53.99 63.56 53.1 65.11 45.78 60.93 45.78 59.74 51.38 57.78 50.52 58.79 45.78 54.6 45.78 52.76 54.47 68.18 61.33 71.48 45.78"/>
    <path class="cls-1" d="M50.59,84.39l6.63,2.95c2.28-1.35,3.99-2.84,5.18-4.16l-10.56-4.71.8-3.79-3.82-1.7-2.87,13.53,3.82,1.7.81-3.84Z"/>
    <path class="cls-1" d="M114.03,73.63c4.99-1.81,9.97-5.76,9.97-13.49,0-9.28-7.91-14.35-20.11-14.35h-26.73l-7.3,34.29s0,0,0,0c-1.51,6.87-9.99,15.03-27.02,15.8,6.21,1.06,12.48,1.85,18.79,2.4,1.44.1,2.87.26,4.29.33,16.88,1.16,34.04.59,51.21-1.37,2.76-3.1,4.3-7.01,4.3-11.49,0-6.96-4.64-10.74-7.39-12.12ZM91.6,92.54h-3.7l2.66-12.46h3.35c3.44,0,5.24,1.8,5.24,5.16,0,5.5-3.87,7.31-7.56,7.31ZM96.32,68.56h-3.27l2.23-10.57h2.75c2.92,0,4.73,1.29,4.73,4.3,0,3.95-1.98,6.27-6.45,6.27Z"/>
    <path class="cls-1" d="M144.09,93.05l2.23-10.57h22.6l3.18-14.61h-22.6l1.55-7.48h23.55l3.09-14.61h-44.18l-10.8,50.77c7.14-.94,14.27-2.11,21.38-3.5Z"/>
    <path class="cls-1" d="M191.6,86.77c-3.58,1.43-27.3,10.57-70.92,19.52h65.7l4.28-11.35h11.86l-.43,9.8h21.49l-.98-31.43c-8.17,4.09-18.8,8.5-31,13.46Z"/>
    <path class="cls-1" d="M196.54,79.22h-.12c2.41-6.96,4.81-13.75,7.05-21.23h.86c-.44,5.82-.82,13.91-1.08,18.97,6.5-2.24,12.92-4.61,19.27-7.09l-.74-24.09h-30.17l-18.14,40.39c7.76-2.12,15.46-4.45,23.07-6.96Z"/>
  </g>
</svg>