<?xml version="1.0" encoding="UTF-8"?>
<svg id="Layer_1" data-name="Layer 1" xmlns="http://www.w3.org/2000/svg" viewBox="0 0 400 195">
  <defs>
    <style>
      .cls-1 {
        fill: #d8ff77;
      }
    </style>
  </defs>
  <g>
    <path class="cls-1" d="M253.34,106.43c-11.3,0-24.76-4.27-24.76-24.58,0-2.56.22-5.19.65-7.8.11-.68.24-1.36.38-2.04.71-.63,5.46-3.59,9.3-5.98,9.68-6.03,9.67-6.07,9.5-6.66l-.11-.4h-.44c-.13-.01-.29.02-.69.19-1.14.49-2.95,1.27-5,2.16-3.69,1.6-8.16,3.53-10.86,4.65,3.17-8.93,11.26-22.57,31.1-22.57,8.91,0,15.6,2.23,19.86,6.64,4.69,4.84,5.27,11.19,5.18,14.65h-21.07c.24-2.86.1-5.04-1.11-6.37-.78-.85-1.92-1.27-3.49-1.27-7.4,0-11.11,17.83-11.11,27.81,0,6.73,3.07,7.74,4.9,7.74,4.21,0,5.73-2.98,6.96-6.39h21.48l4.58-21.51,3.14-14.75c6.97-1.63,14.41-3,22.13-4.08l-4.34,20.18h10.53l4.54-21.11c2.05-.3,12.76-1.7,32.89-1.84-11.46,3.2-13.35,10.93-14.22,14.5l-.07.3-9.99,46.93h-21.35l4.97-23.62h-10.53l-4.97,23.62h-21.26l3.04-14.28-1.03-.34c-4.93,10.61-14.85,16.22-28.7,16.22Z"/>
    <polygon class="cls-1" points="45.88 70.51 46.95 65.47 52.45 67.93 53.23 64.26 47.73 61.8 48.8 56.74 63.72 63.38 62.64 68.44 56.46 65.7 55.68 69.37 61.86 72.11 60.79 77.14 45.88 70.51"/>
    <polygon class="cls-1" points="49.57 53.12 51.29 45.01 54.5 45.01 53.51 49.67 56.55 51.01 57.83 45.01 61.03 45.01 59.47 52.34 62.58 53.72 64.43 45.01 67.61 45.01 64.48 59.76 49.57 53.12"/>
    <path class="cls-1" d="M42.54,86.24l2.74-12.89,2.93,1.3-.83,3.91,10.61,4.73c-.97.99-2.43,2.26-4.47,3.5l-7.21-3.21-.84,3.96-2.93-1.3Z"/>
    <path class="cls-1" d="M80.81,99.11c-6.15,0-12.29-.21-18.24-.62-.88-.04-1.76-.12-2.62-.2-.6-.05-1.2-.1-1.8-.15-5.06-.44-10.08-1.03-14.99-1.77,14.46-1.86,22.43-9.29,23.99-16.37l7.45-35h27.18c12.67,0,20.23,5.34,20.23,14.28,0,8.12-5.41,11.79-9.94,13.43l-1.19.43,1.14.57c1.23.61,7.34,4.07,7.34,12.03,0,4.3-1.44,8.22-4.17,11.35-11.71,1.33-23.27,2.01-34.36,2.01h0ZM84.58,93.31h4.49c5.23,0,8.36-3.03,8.36-8.09,0-3.79-2.12-5.87-5.96-5.87h-3.9l-2.99,13.97ZM89.91,68.54h4.05c4.71,0,7.21-2.43,7.21-7.03,0-3.21-1.93-4.99-5.43-4.99h-3.28l-2.54,12.01Z"/>
    <path class="cls-1" d="M132.82,45.01h44.53l-2.97,14h-24.33l-1.82,8.82h23.35l-3.05,14h-23.36l-2.32,11c-7.05,1.36-14.09,2.52-20.94,3.44l10.91-51.26Z"/>
    <path class="cls-1" d="M124.4,106.43c41.39-8.8,63.96-17.42,68.19-19.11,11.6-4.71,22.71-9.3,31.31-13.55l.97,31.06h-21.07l.44-10.12h-13.2l-4.42,11.72h-62.22Z"/>
    <path class="cls-1" d="M192.75,45.01h30.29l.73,23.97c-6.29,2.44-12.59,4.77-18.76,6.91l.1-2.03c.26-5.23.59-11.74.97-16.75l.04-.59h-1.88l-.12.39c-2.02,6.74-4.21,13.08-6.34,19.21l-.86,2.5c-7.48,2.46-14.97,4.72-22.29,6.74l18.12-40.35Z"/>
  </g>
  <g>
    <path class="cls-1" d="M183.09,145.07l-2.44-22.56h3.06l1.01,10.95c.29,3.11.65,6.56.68,8.78h.07c.84-2,2.82-5.63,4.44-8.74l5.81-10.99h3.26l-12.25,22.56h-3.64Z"/>
    <path class="cls-1" d="M211.02,134.44c0,4.83-2.47,10.92-8.71,10.92-4.25,0-6.11-2.79-6.11-6.57,0-4.46,2.59-10.67,8.83-10.67,4.02,0,5.99,2.62,5.99,6.32ZM199.28,138.72c0,2.49.92,4.19,3.33,4.19,3.84,0,5.4-5.05,5.4-8.39,0-2.54-1.02-3.96-3.31-3.96-3.76,0-5.42,4.79-5.42,8.16Z"/>
    <path class="cls-1" d="M212.67,145.07l5.02-23.83h2.94l-5.02,23.83h-2.94Z"/>
    <path class="cls-1" d="M220.29,145.07l5.02-23.83h2.94l-5.02,23.83h-2.94Z"/>
    <path class="cls-1" d="M231.46,137.34c-.1.48-.18,1.1-.18,1.75,0,2.23.85,3.9,3.2,3.9,2.56,0,3.39-1.73,3.97-2.78h2.96c-.9,2.33-2.74,5.18-7.22,5.18-4.19,0-5.86-2.7-5.86-6.4,0-4.39,2.46-10.86,8.57-10.86,3.96,0,5.66,2.63,5.66,5.8,0,.99-.17,2.13-.48,3.42h-10.61ZM239.54,135.25c.1-.48.15-.86.15-1.38,0-2.04-.91-3.42-3.13-3.42-2.61,0-4.08,2.45-4.66,4.8h7.63Z"/>
    <path class="cls-1" d="M248.32,128.41c.7,6.77,1.34,12.15,1.41,13.84h.03c.82-1.8,3.14-6.87,6.67-13.84h3.12l-9.18,17.82c-2.56,4.98-4.05,5.66-7.22,5.66-.33,0-1.47-.1-1.85-.18l.53-2.56c.35.07.93.13,1.52.13,1.88,0,2.76-1.07,4.16-3.84l-2.17-17.04h2.97Z"/>
    <path class="cls-1" d="M285.96,138.77c-1.25,3.47-3.73,6.63-9.24,6.63-5.2,0-7.73-3.38-7.73-8.82,0-5.89,3.3-14.38,11.14-14.38,5.15,0,7.32,3.3,7.28,7.23h-2.95c-.18-2.61-1.33-4.7-4.63-4.7-5.19,0-7.64,6.78-7.64,11.64,0,3.96,1.5,6.52,4.87,6.52,2.98,0,4.6-1.46,5.83-4.12h3.09Z"/>
    <path class="cls-1" d="M288.13,145.07l5.02-23.83h2.94l-5.02,23.83h-2.94Z"/>
    <path class="cls-1" d="M309.05,140.32c-.45,2.14-.8,3.91-.94,4.75h-2.87c.07-.49.24-1.65.39-2.38-1.11,1.67-2.67,2.68-5.06,2.68-2.71,0-4.77-1.81-3.86-6.1l2.31-10.85h2.93l-2.22,10.45c-.47,2.27-.18,4,2.12,4s3.95-1.42,4.8-5.33l1.96-9.11h2.98l-2.53,11.91Z"/>
    <path class="cls-1" d="M317.65,121.25h2.94l-2.01,9.57c.98-1.4,2.45-2.69,5.1-2.69,3.07,0,4.9,2.27,4.9,5.78,0,4.5-2.22,11.46-8.42,11.46-2.55,0-3.73-1.2-4.15-2.6-.12.57-.4,1.76-.57,2.31h-2.88c.19-.86.62-2.79,1.05-4.77l4.03-19.06ZM325.5,134.43c0-2.6-1.14-3.81-3.02-3.81-3.03,0-4.69,3.02-5.32,6.02-.67,3.19-.44,6.29,2.86,6.29,3.85,0,5.49-5.36,5.49-8.5Z"/>
  </g>
</svg>