<?xml version="1.0" encoding="UTF-8"?>
<svg id="Layer_1" data-name="Layer 1" xmlns="http://www.w3.org/2000/svg" viewBox="0 0 400 230">
  <defs>
    <style>
      .cls-1 {
        fill: #d8ff77;
      }
    </style>
  </defs>
  <g>
    <path class="cls-1" d="M99.06,157.38h2.93l-1.95,9.07h9.45l1.95-9.07h2.95l-4.61,21.75h-2.95l2.13-10.18h-9.45l-2.13,10.18h-2.93l4.61-21.75Z"/>
    <path class="cls-1" d="M127.4,174.55c-.44,2.07-.77,3.77-.91,4.58h-2.76c.06-.47.23-1.59.38-2.3-1.07,1.61-2.58,2.58-4.88,2.58-2.62,0-4.6-1.74-3.72-5.88l2.22-10.46h2.82l-2.14,10.07c-.45,2.19-.17,3.85,2.05,3.85s3.81-1.37,4.63-5.14l1.89-8.79h2.87l-2.44,11.48Z"/>
    <path class="cls-1" d="M148.08,156.16l-3.97,18.73c-.36,1.61-.69,3.36-.84,4.24h-2.76c.03-.36.17-1.3.37-2.24-1.02,1.55-2.34,2.54-4.82,2.54-3.13,0-4.83-2.26-4.83-6.09,0-4.49,2.6-10.55,8.06-10.55,2.55,0,3.75,1.3,4.06,2.3l1.89-8.93h2.84ZM134.24,173.02c0,2.75,1.13,4.07,2.94,4.07,2.9,0,4.27-2.6,5.05-6.26.81-3.79-.08-5.63-2.74-5.63-3.61,0-5.24,4.77-5.24,7.82Z"/>
    <path class="cls-1" d="M165.02,156.16l-3.97,18.73c-.36,1.61-.69,3.36-.84,4.24h-2.76c.03-.36.17-1.3.37-2.24-1.02,1.55-2.34,2.54-4.82,2.54-3.13,0-4.83-2.26-4.83-6.09,0-4.49,2.6-10.55,8.06-10.55,2.55,0,3.75,1.3,4.06,2.3l1.89-8.93h2.84ZM151.18,173.02c0,2.75,1.13,4.07,2.94,4.07,2.9,0,4.27-2.6,5.05-6.26.81-3.79-.08-5.63-2.74-5.63-3.61,0-5.24,4.77-5.24,7.82Z"/>
    <path class="cls-1" d="M168.08,163.07h2.84l-3.4,16.06h-2.84l3.4-16.06ZM169.53,156.16h2.84l-.73,3.5h-2.84l.73-3.5Z"/>
    <path class="cls-1" d="M174.39,168.09c.71-3.34.9-4.4,1.03-5.02h2.78c-.07.45-.23,1.45-.42,2.4.87-1.32,2.25-2.68,4.84-2.68,3.01,0,4.82,2.01,3.96,6l-2.19,10.34h-2.87l2.08-9.89c.45-2.11.18-3.96-2.17-3.96-2.59,0-4.02,2-4.72,5.29l-1.8,8.56h-2.84l2.33-11.04Z"/>
    <path class="cls-1" d="M201.29,178.1c-1.03,4.76-2.73,7.61-7.86,7.61-4.67,0-5.72-2.8-5.61-5.04h2.75c.06,1.88,1.12,2.77,3.13,2.77,3.05,0,3.99-1.93,4.84-5.48l.36-1.45c-1.19,1.8-2.79,2.51-4.79,2.51-3.09,0-4.84-2.24-4.84-6.02,0-4.37,2.74-10.21,7.9-10.21,2.54,0,3.84,1.3,4.08,2.52.19-.89.43-1.8.56-2.23h2.78c-.23.9-.61,2.49-1.08,4.69l-2.23,10.34ZM192.29,172.75c0,2.26.78,3.86,2.93,3.86,2.85,0,4.3-2.66,4.94-5.6.62-2.91.52-5.8-2.75-5.8-3.5,0-5.12,4.62-5.12,7.54Z"/>
    <path class="cls-1" d="M208.98,171.67c-.1.46-.18,1.06-.18,1.69,0,2.15.82,3.76,3.08,3.76,2.47,0,3.27-1.66,3.83-2.68h2.86c-.87,2.25-2.64,5-6.96,5-4.04,0-5.65-2.6-5.65-6.18,0-4.23,2.37-10.47,8.26-10.47,3.82,0,5.46,2.53,5.46,5.59,0,.95-.16,2.05-.46,3.29h-10.23ZM216.78,169.66c.09-.46.14-.83.14-1.33,0-1.97-.88-3.3-3.01-3.3-2.51,0-3.93,2.36-4.49,4.63h7.36Z"/>
    <path class="cls-1" d="M233.81,172.68l-3.38,6.45h-3.06c3.58-6.86,7.14-13.64,11.4-21.75h3.74l2.48,21.75h-2.92l-.75-6.45h-7.51ZM241.19,170.2c-.54-5.37-1-8.76-1.01-10.41h-.05c-1.11,2.47-2.87,5.96-5.2,10.41h6.26Z"/>
    <path class="cls-1" d="M250.12,168.5c.53-2.58.88-4.34,1.07-5.43h2.73c-.03.43-.29,1.98-.54,3.14,1.21-2.14,3.09-3.4,5.7-3.4l-.65,2.97c-3.39.09-5.35,2.05-6.11,5.65l-1.61,7.7h-2.84l2.25-10.63Z"/>
    <path class="cls-1" d="M262.07,171.67c-.1.46-.18,1.06-.18,1.69,0,2.15.82,3.76,3.08,3.76,2.47,0,3.27-1.66,3.83-2.68h2.86c-.87,2.25-2.64,5-6.96,5-4.04,0-5.65-2.6-5.65-6.18,0-4.23,2.37-10.47,8.26-10.47,3.82,0,5.46,2.53,5.46,5.59,0,.95-.16,2.05-.46,3.29h-10.23ZM269.87,169.66c.09-.46.14-.83.14-1.33,0-1.97-.88-3.3-3.01-3.3-2.51,0-3.93,2.36-4.49,4.63h7.36Z"/>
    <path class="cls-1" d="M276.61,168.09c.71-3.34.9-4.4,1.03-5.02h2.78c-.07.45-.23,1.45-.42,2.4.87-1.32,2.25-2.68,4.84-2.68,3.01,0,4.82,2.01,3.96,6l-2.19,10.34h-2.87l2.08-9.89c.45-2.11.18-3.96-2.17-3.96-2.59,0-4.02,2-4.72,5.29l-1.8,8.56h-2.84l2.33-11.04Z"/>
    <path class="cls-1" d="M302.98,175.46c-.26,1.26-.61,2.91-.72,3.67h-2.73c.07-.57.15-1.11.34-2.03-.87,1.28-2.18,2.31-4.73,2.31-2.91,0-4.28-1.98-4.28-4.26,0-3.34,2.45-5.31,6.94-5.69,1.23-.11,2.08-.16,3.7-.16l.18-.81c.43-1.9.13-3.58-2.6-3.58-2.26,0-2.95,1.3-3.37,2.54h-2.83c.57-2.43,2.16-4.67,6.45-4.67,3.68,0,6.03,1.63,5.08,6.06l-1.41,6.61ZM301.08,171.34c-1.13-.02-2.13.02-3.13.13-2.33.22-4.14,1.15-4.14,3.32,0,1.34.73,2.36,2.43,2.36,3.12,0,4.14-2.59,4.69-5.11l.15-.7Z"/>
  </g>
  <path class="cls-1" d="M251.13,141.09c-10.89,0-23.87-4.11-23.87-23.7,0-2.47.21-5,.63-7.52.11-.65.23-1.31.37-1.96.68-.61,5.26-3.46,8.97-5.77,9.33-5.81,9.32-5.85,9.16-6.41l-.11-.38h-.43c-.13-.01-.28.02-.67.18-1.1.47-2.84,1.22-4.81,2.07-3.56,1.54-7.88,3.41-10.48,4.49,3.05-8.61,10.86-21.76,29.98-21.76,8.59,0,15.03,2.15,19.15,6.4,4.52,4.66,5.08,10.79,4.99,14.12h-20.32c.23-2.75.1-4.86-1.07-6.14-.75-.82-1.85-1.22-3.36-1.22-7.13,0-10.71,17.19-10.71,26.81,0,6.49,2.96,7.46,4.72,7.46,4.06,0,5.53-2.87,6.71-6.16h20.71l7.44-34.96c6.72-1.57,13.89-2.89,21.33-3.93l-4.19,19.46h10.15l4.38-20.35c1.98-.29,12.3-1.64,31.71-1.78-11.05,3.08-12.87,10.54-13.71,13.98l-.07.29-9.63,45.25h-20.59l4.79-22.77h-10.15l-4.79,22.77h-20.5l2.93-13.76-.99-.33c-4.75,10.23-14.32,15.64-27.67,15.64Z"/>
  <path class="cls-1" d="M84.8,134.03c-5.93,0-11.85-.2-17.58-.6-.85-.04-1.7-.12-2.53-.19-.58-.05-1.15-.1-1.73-.14-4.87-.42-9.72-.99-14.45-1.71,13.94-1.8,21.63-8.96,23.12-15.78l7.18-33.74h26.2c12.21,0,19.51,5.15,19.51,13.77,0,7.83-5.21,11.36-9.58,12.95l-1.15.42,1.1.55c1.18.59,7.07,3.92,7.07,11.6,0,4.14-1.39,7.92-4.02,10.94-11.28,1.28-22.43,1.93-33.12,1.93h0ZM88.43,128.44h4.33c5.05,0,8.06-2.92,8.06-7.8,0-3.65-2.04-5.66-5.75-5.66h-3.76l-2.88,13.46ZM93.57,104.56h3.9c4.54,0,6.95-2.34,6.95-6.77,0-3.1-1.86-4.81-5.23-4.81h-3.17l-2.45,11.58Z"/>
  <path class="cls-1" d="M134.94,81.87h42.93l-2.86,13.5h-23.46l-1.76,8.5h22.51l-2.94,13.5h-22.52l-2.24,10.6c-6.79,1.31-13.58,2.43-20.18,3.31l10.52-49.42Z"/>
  <path class="cls-1" d="M126.82,141.09c39.89-8.48,61.65-16.79,65.74-18.43,11.18-4.55,21.9-8.97,30.18-13.06l.93,29.95h-20.31l.43-9.76h-12.73l-4.26,11.3h-59.99Z"/>
  <path class="cls-1" d="M192.71,81.87h29.2l.71,23.11c-6.06,2.36-12.14,4.59-18.09,6.66l.1-1.94c.25-5.05.57-11.33.94-16.16l.04-.57h-1.82l-.11.38c-1.94,6.5-4.06,12.6-6.11,18.5l-.84,2.42c-7.22,2.37-14.44,4.56-21.49,6.5l17.47-38.9Z"/>
  <polygon class="cls-1" points="183.9 64.88 187.37 48.6 182.23 48.6 183.14 44.29 200.2 44.29 199.29 48.6 194.21 48.6 190.74 64.88 183.9 64.88"/>
  <polygon class="cls-1" points="210.46 64.88 212.23 56.49 207.81 56.49 206.04 64.88 199.17 64.88 203.55 44.29 210.42 44.29 208.82 51.77 213.24 51.77 214.84 44.29 221.75 44.29 217.37 64.88 210.46 64.88"/>
  <polygon class="cls-1" points="221.73 64.88 226.11 44.29 241.25 44.29 240.34 48.6 231.69 48.6 230.9 52.4 239.19 52.4 238.26 56.71 229.96 56.71 229.14 60.6 238.81 60.6 237.44 64.88 221.73 64.88"/>
</svg>