<?xml version="1.0" encoding="UTF-8"?>
<svg id="Layer_1" data-name="Layer 1" xmlns="http://www.w3.org/2000/svg" viewBox="0 0 400 230">
  <defs>
    <style>
      .cls-1 {
        fill: #131510;
      }
    </style>
  </defs>
  <g>
    <path class="cls-1" d="M96.14,158.05h3.72l-1.9,8.83h8.45l1.9-8.83h3.74l-4.61,21.76h-3.74l2.06-9.83h-8.45l-2.06,9.83h-3.72l4.61-21.76Z"/>
    <path class="cls-1" d="M125.52,175.07c-.47,2.24-.79,3.89-.94,4.74h-3.53c.06-.5.2-1.43.31-1.99-1.19,1.62-2.64,2.28-4.78,2.28-2.9,0-4.58-2.13-3.75-6.01l2.24-10.55h3.6l-2.15,10.15c-.41,1.95-.11,3.42,1.81,3.42s3.34-1.2,4.08-4.59l1.93-8.99h3.64l-2.46,11.54Z"/>
    <path class="cls-1" d="M146.89,156.77l-3.94,18.61c-.4,1.79-.72,3.53-.89,4.44h-3.53c.03-.36.17-1.26.32-1.98-1.04,1.45-2.31,2.29-4.7,2.29-3.1,0-4.93-2.23-4.93-6.21,0-4.63,2.71-10.67,8.18-10.67,2.49,0,3.71,1.17,4.05,2.07l1.81-8.53h3.62ZM133.05,173.55c0,2.49.98,3.67,2.65,3.67,2.75,0,3.91-2.55,4.56-5.68.72-3.42.2-5.33-2.41-5.33-3.31,0-4.8,4.49-4.8,7.34Z"/>
    <path class="cls-1" d="M164.53,156.77l-3.94,18.61c-.4,1.79-.72,3.53-.89,4.44h-3.53c.03-.36.17-1.26.32-1.98-1.04,1.45-2.31,2.29-4.7,2.29-3.1,0-4.93-2.23-4.93-6.21,0-4.63,2.71-10.67,8.18-10.67,2.49,0,3.71,1.17,4.05,2.07l1.81-8.53h3.62ZM150.69,173.55c0,2.49.98,3.67,2.65,3.67,2.75,0,3.91-2.55,4.56-5.68.72-3.42.2-5.33-2.41-5.33-3.31,0-4.8,4.49-4.8,7.34Z"/>
    <path class="cls-1" d="M167.36,163.53h3.62l-3.45,16.28h-3.62l3.45-16.28ZM168.77,156.77h3.62l-.79,3.77h-3.62l.79-3.77Z"/>
    <path class="cls-1" d="M174.17,168.61c.72-3.37.9-4.41,1.02-5.08h3.55c-.05.39-.18,1.29-.36,2.21.86-1.24,2.22-2.51,4.71-2.51,3.22,0,4.87,2.15,4.04,5.99l-2.23,10.59h-3.64l2.09-9.92c.42-1.95.22-3.55-1.94-3.55s-3.44,1.5-4.1,4.57l-1.88,8.9h-3.62l2.37-11.2Z"/>
    <path class="cls-1" d="M202.53,178.62c-1,4.64-2.63,7.78-8.3,7.78-5.01,0-6.11-2.93-5.99-5.28h3.49c.06,1.62.95,2.47,2.83,2.47,2.87,0,3.67-1.72,4.45-5.02l.28-1.11c-1.16,1.62-2.75,2.18-4.59,2.18-3.13,0-5.03-2.26-5.03-6.17,0-4.45,2.79-10.23,8.01-10.23,2.47,0,3.83,1.2,4.11,2.31.19-.87.4-1.61.52-2.02h3.55c-.26.99-.64,2.59-1.12,4.84l-2.2,10.24ZM193.49,173.11c0,2.07.73,3.54,2.7,3.54,2.57,0,3.84-2.29,4.43-5.03.57-2.64.53-5.4-2.48-5.4-3.27,0-4.65,4.3-4.65,6.88Z"/>
    <path class="cls-1" d="M210.72,172.47c-.07.35-.16.87-.16,1.44,0,1.81.65,3.33,2.71,3.33s2.84-1.37,3.36-2.35h3.63c-1.02,2.74-2.97,5.21-7.31,5.21s-6-2.62-6-6.42,2.28-10.45,8.58-10.45c4,0,5.81,2.58,5.81,5.74,0,.92-.15,2.05-.51,3.5h-10.12ZM217.74,170.06c.09-.43.14-.79.14-1.22,0-1.64-.73-2.86-2.67-2.86-2.33,0-3.49,2.23-3.94,4.08h6.48Z"/>
    <path class="cls-1" d="M235.66,174.03l-2.95,5.78h-3.86c3.49-6.8,6.95-13.55,11.21-21.76h4.79l2.3,21.76h-3.7l-.63-5.78h-7.17ZM242.73,170.93c-.43-4.82-.82-8.1-.84-9.95h-.04c-1.07,2.43-2.74,5.91-4.82,9.95h5.71Z"/>
    <path class="cls-1" d="M252.13,169.04c.55-2.65.9-4.36,1.09-5.51h3.49c-.03.48-.27,1.93-.51,3.05,1.14-1.99,2.83-3.3,5.6-3.3l-.82,3.74c-3.31,0-5.16,1.65-5.92,5.24l-1.59,7.56h-3.62l2.28-10.77Z"/>
    <path class="cls-1" d="M265.57,172.47c-.07.35-.16.87-.16,1.44,0,1.81.65,3.33,2.71,3.33s2.84-1.37,3.36-2.35h3.63c-1.02,2.74-2.97,5.21-7.31,5.21s-6-2.62-6-6.42,2.28-10.45,8.58-10.45c4,0,5.81,2.58,5.81,5.74,0,.92-.15,2.05-.51,3.5h-10.12ZM272.6,170.06c.09-.43.14-.79.14-1.22,0-1.64-.73-2.86-2.67-2.86-2.33,0-3.49,2.23-3.94,4.08h6.48Z"/>
    <path class="cls-1" d="M279.86,168.61c.72-3.37.9-4.41,1.02-5.08h3.55c-.05.39-.18,1.29-.36,2.21.86-1.24,2.22-2.51,4.71-2.51,3.22,0,4.87,2.15,4.04,5.99l-2.23,10.59h-3.64l2.09-9.92c.42-1.95.22-3.55-1.94-3.55s-3.44,1.5-4.1,4.57l-1.88,8.9h-3.62l2.37-11.2Z"/>
    <path class="cls-1" d="M307.6,176c-.3,1.46-.64,3.05-.75,3.81h-3.49c.05-.5.12-1,.29-1.8-.96,1.29-2.27,2.09-4.58,2.09-2.82,0-4.36-1.86-4.36-4.35,0-3.55,2.62-5.51,7.15-5.89,1.16-.1,2-.16,3.51-.16l.14-.62c.42-1.8.13-3.26-2.28-3.26-2.06,0-2.64,1.25-2.99,2.27h-3.58c.57-2.51,2.18-4.86,6.84-4.86,3.99,0,6.47,1.71,5.46,6.4l-1.36,6.37ZM304.88,172.16c-1.01,0-1.89,0-2.83.13-1.95.21-3.61.98-3.61,2.96,0,1.18.63,2.06,2.16,2.06,2.82,0,3.67-2.33,4.17-4.64l.11-.5Z"/>
  </g>
  <g>
    <path class="cls-1" d="M319.1,81.64l-4.38,20.37h-9.11l4.22-19.63c-7.3,1-14.92,2.35-22.54,4.14l-3.17,14.87c.3-9.32-4.4-21.29-24.76-21.29-17.65,0-27.04,11.18-30.97,23.31,3.46-1.4,13.02-5.58,16.43-7.03,4.02-1.71-17.54,11.04-17.68,11.71-.15.71-.28,1.42-.4,2.12-.43,2.62-.64,5.2-.64,7.63,0,13.92,6.62,24.32,24.49,24.32,14.45,0,23.68-6.13,28.26-16l-3.08,14.46h21.66l2.57-12.2,2.24-10.66h9.11l-4.81,22.86h21.74l9.75-45.83c.9-3.63,2.8-13.13,18.95-14.98-25.88-.12-37.9,1.85-37.9,1.85ZM259.11,121.52c-1.2,3.44-2.49,6.19-6.36,6.19-2.92,0-4.21-2.75-4.21-6.96,0-9.63,3.52-26.39,10.23-26.39,3.95,0,4.3,2.92,3.87,7.39h21.42l-4.21,19.77h-20.74Z"/>
    <path class="cls-1" d="M114.04,109.49c4.99-1.8,9.97-5.76,9.97-13.49,0-9.28-7.91-14.35-20.11-14.35h-26.73l-7.3,34.29s0,0,0,0c-1.51,6.87-9.99,15.03-27.02,15.8,6.21,1.06,12.48,1.85,18.79,2.4,1.44.1,2.87.26,4.29.33,16.88,1.16,34.04.59,51.2-1.37,2.76-3.1,4.3-7.01,4.3-11.49,0-6.96-4.64-10.74-7.39-12.12ZM91.61,128.4h-3.7l2.66-12.46h3.35c3.44,0,5.24,1.8,5.24,5.16,0,5.5-3.87,7.31-7.56,7.31ZM96.34,104.42h-3.27l2.23-10.57h2.75c2.92,0,4.73,1.29,4.73,4.3,0,3.95-1.98,6.27-6.45,6.27Z"/>
    <path class="cls-1" d="M144.11,128.91l2.23-10.57h22.6l3.18-14.61h-22.6l1.55-7.48h23.55l3.09-14.61h-44.18l-10.8,50.76c7.14-.94,14.27-2.11,21.38-3.5Z"/>
    <path class="cls-1" d="M191.61,122.63c-3.58,1.43-27.3,10.57-70.91,19.52h65.7l4.28-11.35h11.86l-.43,9.8h21.49l-.98-31.43c-8.17,4.09-18.8,8.5-31,13.46Z"/>
    <path class="cls-1" d="M196.55,115.07h-.12c2.41-6.96,4.81-13.75,7.05-21.23h.86c-.44,5.82-.82,13.91-1.08,18.97,6.49-2.24,12.92-4.61,19.27-7.09l-.74-24.09h-30.17l-18.13,40.39c7.76-2.12,15.46-4.45,23.07-6.96Z"/>
  </g>
  <g>
    <path class="cls-1" d="M185.94,49.29h-5.16l1.14-5.38h18.21l-1.14,5.38h-5.1l-3.48,16.34h-7.95l3.48-16.34Z"/>
    <path class="cls-1" d="M202.41,43.91h7.98l-1.62,7.51h3.36l1.62-7.51h8.01l-4.62,21.73h-8.01l1.77-8.42h-3.36l-1.77,8.42h-7.98l4.62-21.73Z"/>
    <path class="cls-1" d="M238.11,57.43h-8.33l-.6,2.85h9.79l-1.71,5.35h-16.82l4.62-21.73h16.28l-1.14,5.38h-8.68l-.57,2.76h8.33l-1.17,5.38Z"/>
  </g>
</svg>