<?xml version="1.0" encoding="utf-8"?>
<!-- Generator: Adobe Illustrator 23.0.6, SVG Export Plug-In . SVG Version: 6.00 Build 0)  -->
<svg version="1.1" id="Layer_1" xmlns="http://www.w3.org/2000/svg" xmlns:xlink="http://www.w3.org/1999/xlink" x="0px" y="0px"
	 viewBox="0 0 650 150" style="enable-background:new 0 0 650 150;" xml:space="preserve">
<style type="text/css">
	.st0{fill:#FFFFFF;}
	.st1{fill:#0072B6;}
	.st2{fill-rule:evenodd;clip-rule:evenodd;fill:#FFFFFF;}
	.st3{fill-rule:evenodd;clip-rule:evenodd;fill:#FFCF1F;}
	.st4{opacity:0.75;fill:#FFFFFF;enable-background:new    ;}
	.st5{opacity:0.65;fill:#FFFFFF;enable-background:new    ;}
	.st6{fill:#4E94DA;}
	.st7{fill:#FBC716;}
</style>
<g id="Svensk_Volleyboll">
	<g id="logo_1_">
		<path class="st0" d="M599,71l-8.5-71H0v150h576.5C591.8,99.9,599,71,599,71z"/>
		<g>
			<path class="st1" d="M114.1,117.4c0,2.8-2.3,5.2-5.2,5.2l-56.2-1.4c-2.8,0-5.2-2.3-5.2-4.7L44,34.8c0-3.3,2.3-5.6,5.2-5.6
				l62.7-2.2c2.8,0,5.2,2.3,5.2,5.2L114.1,117.4L114.1,117.4z"/>
			<path class="st2" d="M84.7,39.8C70.4,37.3,55.8,52,81.4,60.7c5.9,2,17.5-8.9,17.8-10.3s-4.5-7.4-6.6-7.9
				c-6.4-1.5-10.2,11.4-15.4,11.3C74.7,47.6,81.6,43.2,84.7,39.8L84.7,39.8z"/>
			<path class="st3" d="M101.1,54.1c-0.1,0-0.3,0-0.4,0.2c-4.9,5.9-8.6,7.9-15.8,10.7c0.6,7-1.8,13.1-4.5,18
				c12.4,1.1,12.5-9.4,12.7-17.7c4.2,1.8,2,10.5,0.7,13.4c8.3-3.6,11.8-18.3,7.7-24.5C101.4,54.1,101.2,54.1,101.1,54.1L101.1,54.1z
				"/>
			<path class="st2" d="M63.3,47.8c-2,1.4-4.3,5.8-5,9.7c-0.2,1.3,0.2,1.9,0.4,2.3c2.5,4.5,7.5,9.1,14.9,11.8
				c-2.3,6.6-13.5-2.8-16.2-7.8c0.9,9.8,6.5,16.6,18.4,18.6c0.4,0.1,0.8,0,1.1-0.1s0.5-0.4,0.7-0.7c2.4-4.2,4.4-9.8,4.3-16.4
				C72.5,61,62.2,57.9,63.3,47.8L63.3,47.8z"/>
			<path class="st0" d="M65.4,100.3c-0.7,0-1.3-0.1-1.7-0.2c-0.1,0-0.2-0.1-0.2-0.2v-0.7c0-0.1,0.1-0.2,0.2-0.2c0,0,0,0,0,0
				c0.4,0.1,1.4,0.1,1.7,0.1c0.9,0,1.1-0.3,1.1-0.9c0-0.4-0.2-0.6-0.8-0.9l-1.3-0.8c-0.9-0.5-1.2-1.1-1.2-1.8c0-1.1,0.6-1.8,2.4-1.8
				c0.6,0,1.5,0.1,1.9,0.2c0.1,0,0.2,0.1,0.2,0.2V94c0,0.1-0.1,0.2-0.2,0.2c0,0,0,0,0,0c-0.6-0.1-1.3-0.1-1.9-0.1
				c-0.7,0-1,0.3-1,0.7c0,0.3,0.2,0.5,0.8,0.9l1.2,0.7c1.1,0.6,1.3,1.2,1.3,2C68,99.2,67.3,100.3,65.4,100.3L65.4,100.3z"/>
			<path class="st0" d="M74.3,93.2l-1.6,6.1c-0.2,0.9-0.9,1-1.3,1s-1.1-0.1-1.3-1l-1.6-6.1c0,0,0,0,0-0.1c0-0.1,0.1-0.2,0.2-0.2h1
				c0.1,0,0.2,0.1,0.2,0.2l1.4,5.8c0,0.1,0.1,0.2,0.2,0.2c0.1,0,0.1,0,0.2-0.2l1.4-5.8c0-0.1,0.1-0.2,0.2-0.2h1
				C74.2,93,74.3,93,74.3,93.2C74.3,93.1,74.3,93.2,74.3,93.2L74.3,93.2z"/>
			<path class="st0" d="M78.8,100.1c-0.3,0.1-0.7,0.1-1.8,0.1c-1.3,0-2.2-0.3-2.2-2v-3.4c0-1.7,1-2,2.2-2c1.2,0,1.5,0.1,1.8,0.1
				c0.2,0,0.2,0.1,0.2,0.2v0.6c0,0.1-0.1,0.2-0.2,0.2h-2c-0.6,0-0.8,0.2-0.8,0.8v1.1h2.6c0.1,0,0.2,0.1,0.2,0.2v0.7
				c0,0.1-0.1,0.2-0.2,0.2h-2.6v1.3c0,0.6,0.2,0.8,0.8,0.8h2c0.1,0,0.2,0.1,0.2,0.2v0.6C79,100,79,100.1,78.8,100.1L78.8,100.1z"/>
			<path class="st0" d="M84.9,100.2h-1c-0.2,0-0.4,0-0.6-0.3l-2.2-4.7c0-0.1-0.1-0.1-0.1-0.1S81,95,81,95.1v4.9
				c0,0.1-0.1,0.2-0.2,0.2H80c-0.1,0-0.2-0.1-0.2-0.2v-6.6c0-0.2,0.2-0.4,0.4-0.4h1.1c0.2,0,0.3,0.1,0.4,0.3l2.3,5
				c0,0.1,0.1,0.1,0.1,0.1c0,0,0.1,0,0.1-0.1v-5.1c0-0.1,0.1-0.2,0.2-0.2h0.8c0.1,0,0.2,0.1,0.2,0.2v6.6
				C85.3,100,85.1,100.2,84.9,100.2L84.9,100.2z"/>
			<path class="st0" d="M88.1,100.3c-0.7,0-1.3-0.1-1.7-0.2c-0.1,0-0.2-0.1-0.2-0.2v-0.7c0-0.1,0.1-0.2,0.2-0.2c0,0,0,0,0,0
				c0.4,0.1,1.4,0.1,1.7,0.1c0.9,0,1.1-0.3,1.1-0.9c0-0.4-0.2-0.6-0.8-0.9l-1.3-0.8C86.3,96,86,95.4,86,94.7c0-1.1,0.6-1.8,2.4-1.8
				c0.6,0,1.5,0.1,1.9,0.2c0.1,0,0.2,0.1,0.2,0.2V94c0,0.1-0.1,0.2-0.2,0.2c0,0,0,0,0,0c-0.6-0.1-1.3-0.1-1.9-0.1
				c-0.7,0-1,0.3-1,0.7c0,0.3,0.2,0.5,0.8,0.9l1.2,0.7c1.1,0.6,1.3,1.2,1.3,2C90.7,99.2,90.1,100.3,88.1,100.3L88.1,100.3z"/>
			<path class="st0" d="M96.5,100.2h-1.3c-0.1,0-0.2,0-0.2-0.1l-2.2-3.3v3.2c0,0.1-0.1,0.2-0.2,0.2h-1c-0.1,0-0.2-0.1-0.2-0.2v-6.8
				c0-0.1,0.1-0.2,0.2-0.2h1c0.1,0,0.2,0.1,0.2,0.2v3.1l2.4-3.2c0.1-0.1,0.1-0.1,0.2-0.1h1.1c0.1,0,0.2,0.1,0.2,0.1
				c0,0.1,0,0.1-0.1,0.2l-2.5,3.2l2.5,3.5c0,0.1,0.1,0.1,0.1,0.1C96.7,100.1,96.6,100.2,96.5,100.2L96.5,100.2z"/>
			<path class="st0" d="M59.4,103.6l-1.6,6.1c-0.2,0.9-0.9,1-1.3,1s-1.1-0.1-1.3-1l-1.6-6.1c0,0,0,0,0-0.1c0-0.1,0.1-0.2,0.2-0.2h1
				c0.1,0,0.2,0.1,0.2,0.2l1.4,5.8c0,0.1,0.1,0.2,0.2,0.2s0.1,0,0.2-0.2l1.4-5.8c0-0.1,0.1-0.2,0.2-0.2h1
				C59.4,103.4,59.4,103.4,59.4,103.6C59.4,103.6,59.4,103.6,59.4,103.6L59.4,103.6z"/>
			<path class="st0" d="M63.9,106.3c0-1.3-0.5-1.8-1.4-1.8s-1.4,0.6-1.4,1.8v1.3c0,1.3,0.5,1.8,1.4,1.8s1.4-0.6,1.4-1.8V106.3
				L63.9,106.3z M62.5,110.7c-1.6,0-2.8-0.9-2.8-3v-1.3c0-2.1,1.2-3,2.8-3c1.6,0,2.8,0.9,2.8,3v1.3
				C65.3,109.8,64.1,110.7,62.5,110.7L62.5,110.7z"/>
			<path class="st0" d="M70,110.5c-0.3,0.1-1.1,0.1-1.7,0.1c-1.3,0-2.2-0.3-2.2-2v-5.1c0-0.1,0.1-0.2,0.2-0.2h1
				c0.1,0,0.2,0.1,0.2,0.2v5.1c0,0.6,0.2,0.8,0.8,0.8H70c0.1,0,0.2,0.1,0.2,0.2v0.6C70.2,110.5,70.2,110.5,70,110.5L70,110.5z"/>
			<path class="st0" d="M74.7,110.5c-0.3,0.1-1.1,0.1-1.7,0.1c-1.3,0-2.2-0.3-2.2-2v-5.1c0-0.1,0.1-0.2,0.2-0.2h1
				c0.1,0,0.2,0.1,0.2,0.2v5.1c0,0.6,0.2,0.8,0.8,0.8h1.8c0.1,0,0.2,0.1,0.2,0.2v0.6C74.8,110.5,74.8,110.5,74.7,110.5L74.7,110.5z"
				/>
			<path class="st0" d="M79.5,110.5c-0.3,0.1-0.7,0.1-1.8,0.1c-1.3,0-2.2-0.3-2.2-2v-3.4c0-1.7,1-2,2.2-2c1.2,0,1.5,0.1,1.8,0.1
				c0.2,0,0.2,0.1,0.2,0.2v0.6c0,0.1-0.1,0.2-0.2,0.2h-2c-0.6,0-0.8,0.2-0.8,0.8v1.1h2.6c0.1,0,0.2,0.1,0.2,0.2v0.7
				c0,0.1-0.1,0.2-0.2,0.2h-2.6v1.3c0,0.6,0.2,0.8,0.8,0.8h2c0.1,0,0.2,0.1,0.2,0.2v0.6C79.7,110.5,79.6,110.5,79.5,110.5
				L79.5,110.5z"/>
			<path class="st0" d="M85.8,103.6l-1.8,3.9c-0.2,0.4-0.3,0.6-0.3,0.8c0,0.3,0,2.1,0,2.1c0,0.1-0.1,0.2-0.2,0.2h-1
				c-0.1,0-0.2-0.1-0.2-0.2c0,0,0-1.9,0-2.1c0-0.3-0.1-0.4-0.3-0.8l-1.8-3.9c0,0,0-0.1,0-0.1c0-0.1,0.1-0.2,0.2-0.2h1.1
				c0.1,0,0.2,0.1,0.2,0.2l1.2,2.9c0.1,0.2,0.1,0.2,0.2,0.2c0.1,0,0.1,0,0.2-0.2l1.2-2.9c0-0.1,0.1-0.2,0.2-0.2h1.1
				C85.7,103.4,85.8,103.5,85.8,103.6C85.8,103.6,85.8,103.6,85.8,103.6L85.8,103.6z"/>
			<path class="st0" d="M90.2,108.4c0-0.5-0.3-1-1.2-1h-1.2v2.1c0.2,0,0.6,0,0.8,0c1.2,0,1.6-0.3,1.6-1L90.2,108.4L90.2,108.4z
				 M90.1,105.3c0-0.7-0.4-0.9-1.7-0.9c-0.2,0-0.5,0-0.7,0v2H89c0.9,0,1.2-0.4,1.2-0.9L90.1,105.3L90.1,105.3z M88.6,110.7
				c-0.8,0-1.4-0.1-1.7-0.1c-0.3-0.1-0.5-0.2-0.5-0.5v-6.1c0-0.3,0.1-0.5,0.4-0.5c0.3,0,0.9-0.1,1.6-0.1c1.8,0,3,0.5,3,2v0.2
				c0,0.6-0.3,1.2-0.9,1.5c0.6,0.3,0.9,0.8,0.9,1.5v0.2C91.5,110.1,90.4,110.7,88.6,110.7L88.6,110.7z"/>
			<path class="st0" d="M96.3,106.3c0-1.3-0.5-1.8-1.4-1.8s-1.4,0.6-1.4,1.8v1.3c0,1.3,0.5,1.8,1.4,1.8s1.4-0.6,1.4-1.8V106.3
				L96.3,106.3z M94.9,110.7c-1.6,0-2.8-0.9-2.8-3v-1.3c0-2.1,1.2-3,2.8-3s2.8,0.9,2.8,3v1.3C97.7,109.8,96.5,110.7,94.9,110.7
				L94.9,110.7z"/>
			<path class="st0" d="M102.4,110.5c-0.3,0.1-1.1,0.1-1.7,0.1c-1.3,0-2.2-0.3-2.2-2v-5.1c0-0.1,0.1-0.2,0.2-0.2h1
				c0.1,0,0.2,0.1,0.2,0.2v5.1c0,0.6,0.2,0.8,0.8,0.8h1.8c0.1,0,0.2,0.1,0.2,0.2v0.6C102.6,110.5,102.6,110.5,102.4,110.5
				L102.4,110.5z"/>
			<path class="st0" d="M107.1,110.5c-0.3,0.1-1.1,0.1-1.7,0.1c-1.3,0-2.2-0.3-2.2-2v-5.1c0-0.1,0.1-0.2,0.2-0.2h1
				c0.1,0,0.2,0.1,0.2,0.2v5.1c0,0.6,0.2,0.8,0.8,0.8h1.8c0.1,0,0.2,0.1,0.2,0.2v0.6C107.3,110.5,107.2,110.5,107.1,110.5
				L107.1,110.5z"/>
		</g>
	</g>
	<g id="Layer_12">
		<path class="st4" d="M602,0c0,0,3,36,4,42c2-5,9.3-32.1,11-42C612,0,602,0,602,0z"/>
		<path class="st4" d="M646.8,150c-1.5-7-7.9-33.6-9.8-44c-1.8,9-10.1,38.3-11.7,44H646.8z"/>
		<path class="st5" d="M616.3,150c2.5-7.8,18.9-60.6,33.7-150c-9,0-24,0-24,0s-17.7,77-41.2,150H616.3z"/>
	</g>
	<g id="SVENSK_VOLLEYBOLL">
		<path class="st1" d="M253.4,86.6c-2.4,0-4.1-0.2-5.7-0.6c-0.3-0.1-0.6-0.3-0.6-0.6v-2.3c0-0.3,0.3-0.6,0.6-0.6c0,0,0,0,0.1,0
			c1.3,0.2,4.5,0.3,5.7,0.3c2.9,0,3.7-1,3.7-2.9c0-1.3-0.6-1.9-2.7-3.1l-4.2-2.5c-3-1.8-3.8-3.6-3.8-5.9c0-3.5,2.1-6.1,8-6.1
			c2.1,0,5.1,0.3,6.1,0.6c0.3,0.1,0.6,0.3,0.6,0.6v2.4c0,0.3-0.2,0.6-0.5,0.6c0,0,0,0-0.1,0c-2.1-0.2-4.2-0.3-6.3-0.3
			c-2.4,0-3.4,0.8-3.4,2.3c0,1.1,0.5,1.7,2.6,2.8l3.8,2.1c3.5,1.9,4.5,4,4.5,6.5C261.8,83.2,259.8,86.6,253.4,86.6z"/>
		<path class="st1" d="M282.9,63.3l-5.3,20.1c-0.8,3-3.1,3.3-4.5,3.3s-3.7-0.3-4.5-3.3l-5.3-20.1c0-0.1,0-0.1,0-0.2
			c0-0.3,0.3-0.5,0.6-0.5h3.4c0.3,0,0.5,0.3,0.6,0.5l4.6,19.2c0.1,0.4,0.2,0.5,0.5,0.5s0.4-0.1,0.5-0.5l4.6-19.2
			c0.1-0.3,0.3-0.5,0.6-0.5h3.4c0.3,0,0.6,0.2,0.6,0.5C283,63.2,282.9,63.2,282.9,63.3z"/>
		<path class="st1" d="M298.4,86.2c-1,0.2-2.3,0.4-6.1,0.4c-4.2,0-7.4-1.1-7.4-6.6V68.9c0-5.4,3.2-6.6,7.4-6.6
			c3.8,0,5.1,0.3,6.1,0.5c0.5,0.1,0.6,0.2,0.6,0.7v2.1c0,0.3-0.3,0.6-0.6,0.6h-6.5c-1.9,0-2.5,0.6-2.5,2.8v3.5h8.7
			c0.4,0,0.6,0.3,0.6,0.6v2.3c0,0.3-0.3,0.6-0.6,0.6h-8.7V80c0,2.1,0.7,2.8,2.5,2.8h6.5c0.4,0,0.6,0.3,0.6,0.6v2.1
			C299,85.9,298.9,86.1,298.4,86.2z"/>
		<path class="st1" d="M320.1,86.3h-3.2c-0.8,0-1.4,0-2-1.2l-7.1-15.6c-0.1-0.2-0.2-0.3-0.3-0.3s-0.2,0.1-0.2,0.3v16.1
			c0,0.3-0.3,0.6-0.6,0.6H304c-0.4,0-0.6-0.3-0.6-0.6V63.9c0-0.7,0.6-1.3,1.3-1.3h3.5c0.7,0,1,0.2,1.4,1l7.5,16.5
			c0.1,0.2,0.2,0.3,0.3,0.3c0.1,0,0.2-0.1,0.2-0.3V63.2c0-0.3,0.3-0.6,0.6-0.6h2.8c0.4,0,0.6,0.3,0.6,0.6v21.9
			C321.4,85.8,320.8,86.3,320.1,86.3z"/>
		<path class="st1" d="M332.1,86.6c-2.4,0-4.1-0.2-5.7-0.6c-0.3-0.1-0.6-0.3-0.6-0.6v-2.3c0-0.3,0.3-0.6,0.6-0.6c0,0,0,0,0.1,0
			c1.3,0.2,4.5,0.3,5.7,0.3c2.9,0,3.7-1,3.7-2.9c0-1.3-0.6-1.9-2.7-3.1l-4.2-2.5c-3-1.8-3.8-3.6-3.8-5.9c0-3.5,2-6.1,8-6.1
			c2.1,0,5.1,0.3,6.1,0.6c0.3,0.1,0.6,0.3,0.6,0.6v2.4c0,0.3-0.2,0.6-0.5,0.6c0,0,0,0-0.1,0c-2.1-0.2-4.2-0.3-6.3-0.3
			c-2.4,0-3.4,0.8-3.4,2.3c0,1.1,0.5,1.7,2.6,2.8l3.8,2.1c3.5,1.9,4.5,4,4.5,6.5C340.5,83.2,338.5,86.6,332.1,86.6z"/>
		<path class="st1" d="M361.2,86.3h-4.3c-0.4,0-0.6-0.1-0.7-0.3l-7.3-10.9v10.6c0,0.3-0.3,0.6-0.6,0.6H345c-0.4,0-0.6-0.3-0.6-0.6
			V63.2c0-0.3,0.3-0.6,0.6-0.6h3.2c0.4,0,0.6,0.3,0.6,0.6v10.2l7.8-10.5c0.2-0.2,0.4-0.3,0.7-0.3h3.6c0.4,0,0.6,0.2,0.6,0.4
			c0,0.2-0.1,0.3-0.2,0.5l-8.2,10.6l8.3,11.6c0.1,0.2,0.2,0.3,0.2,0.4C361.7,86.3,361.5,86.3,361.2,86.3z"/>
		<path class="st1" d="M390.8,63.3l-5.3,20.1c-0.8,3-3.1,3.3-4.5,3.3s-3.7-0.3-4.5-3.3l-5.3-20.1c0-0.1,0-0.1,0-0.2
			c0-0.3,0.3-0.5,0.6-0.5h3.4c0.3,0,0.5,0.3,0.6,0.5l4.6,19.2c0.1,0.4,0.2,0.5,0.5,0.5s0.4-0.1,0.5-0.5l4.6-19.2
			c0.1-0.3,0.3-0.5,0.6-0.5h3.4c0.3,0,0.6,0.2,0.6,0.5C390.8,63.2,390.8,63.2,390.8,63.3z"/>
		<path class="st1" d="M401.6,86.6c-5.3,0-9.1-2.9-9.1-10v-4.3c0-7,3.8-10,9.1-10s9.1,2.9,9.1,10v4.3
			C410.7,83.7,406.9,86.6,401.6,86.6z M406.3,72.3c0-4.2-1.5-6.1-4.6-6.1s-4.6,1.9-4.6,6.1v4.3c0,4.2,1.5,6.1,4.6,6.1
			s4.6-1.9,4.6-6.1V72.3z"/>
		<path class="st1" d="M427.7,86.2c-1,0.2-3.7,0.4-5.4,0.4c-4.2,0-7.4-1.1-7.4-6.6V63.2c0-0.3,0.3-0.6,0.6-0.6h3.2
			c0.4,0,0.6,0.3,0.6,0.6v16.8c0,2.1,0.6,2.8,2.5,2.8h5.9c0.4,0,0.6,0.3,0.6,0.6v2.1C428.4,85.9,428.2,86.1,427.7,86.2z"/>
		<path class="st1" d="M443.5,86.2c-1,0.2-3.7,0.4-5.4,0.4c-4.2,0-7.4-1.1-7.4-6.6V63.2c0-0.3,0.3-0.6,0.6-0.6h3.2
			c0.4,0,0.6,0.3,0.6,0.6v16.8c0,2.1,0.6,2.8,2.5,2.8h5.9c0.4,0,0.6,0.3,0.6,0.6v2.1C444.1,85.9,443.9,86.1,443.5,86.2z"/>
		<path class="st1" d="M460,86.2c-1,0.2-2.3,0.4-6.1,0.4c-4.2,0-7.4-1.1-7.4-6.6V68.9c0-5.4,3.2-6.6,7.4-6.6c3.8,0,5.1,0.3,6.1,0.5
			c0.5,0.1,0.6,0.2,0.6,0.7v2.1c0,0.3-0.3,0.6-0.6,0.6h-6.5c-1.9,0-2.5,0.6-2.5,2.8v3.5h8.7c0.4,0,0.6,0.3,0.6,0.6v2.3
			c0,0.3-0.3,0.6-0.6,0.6h-8.7V80c0,2.1,0.7,2.8,2.5,2.8h6.5c0.4,0,0.6,0.3,0.6,0.6v2.1C460.6,85.9,460.5,86.1,460,86.2z"/>
		<path class="st1" d="M481.4,63.3l-4.9,11.1c-0.6,1.4-1.3,2.1-2,2.3v9c0,0.3-0.3,0.6-0.6,0.6h-3.2c-0.4,0-0.6-0.3-0.6-0.6v-9
			c-0.7-0.3-1.3-0.9-2-2.3l-4.8-11.1c0-0.1-0.1-0.2-0.1-0.3c0-0.3,0.2-0.5,0.5-0.5h3.5c0.3,0,0.5,0.3,0.6,0.5l3.8,9.5
			c0.2,0.5,0.4,0.6,0.5,0.6c0.2,0,0.4-0.1,0.6-0.6l3.8-9.5c0.1-0.3,0.3-0.5,0.6-0.5h3.5c0.3,0,0.5,0.2,0.5,0.5
			C481.4,63.2,481.4,63.2,481.4,63.3z"/>
		<path class="st1" d="M491.7,86.6c-2.6,0-4.5-0.2-5.5-0.3c-1.1-0.2-1.5-0.5-1.5-1.7V64.4c0-1.2,0.4-1.6,1.4-1.7
			c0.8-0.1,2.9-0.3,5.3-0.3c5.8,0,9.9,1.7,9.9,6.5v0.6c0,2.1-1,4-2.9,4.8c2,0.8,3.1,2.5,3.1,4.9v0.5
			C501.4,84.8,497.6,86.6,491.7,86.6z M496.9,69.1c0-2.2-1.4-3.1-5.5-3.1c-0.8,0-1.7,0-2.3,0.1v6.5h4.1c3,0,3.8-1.4,3.8-3
			L496.9,69.1L496.9,69.1z M497.1,79.2c0-1.8-0.9-3.4-3.9-3.4h-4.1v7c0.8,0,2,0.1,2.6,0.1c4.1,0,5.4-1.1,5.4-3.3V79.2z"/>
		<path class="st1" d="M513.9,86.6c-5.3,0-9.1-2.9-9.1-10v-4.3c0-7,3.8-10,9.1-10c5.3,0,9.1,2.9,9.1,10v4.3
			C523,83.7,519.2,86.6,513.9,86.6z M518.5,72.3c0-4.2-1.5-6.1-4.6-6.1s-4.6,1.9-4.6,6.1v4.3c0,4.2,1.5,6.1,4.6,6.1s4.6-1.9,4.6-6.1
			V72.3z"/>
		<path class="st1" d="M540,86.2c-1,0.2-3.7,0.4-5.4,0.4c-4.2,0-7.4-1.1-7.4-6.6V63.2c0-0.3,0.3-0.6,0.6-0.6h3.2
			c0.3,0,0.6,0.3,0.6,0.6v16.8c0,2.1,0.6,2.8,2.5,2.8h5.9c0.3,0,0.6,0.3,0.6,0.6v2.1C540.7,85.9,540.5,86.1,540,86.2z"/>
		<path class="st1" d="M555.8,86.2c-1,0.2-3.7,0.4-5.4,0.4c-4.2,0-7.4-1.1-7.4-6.6V63.2c0-0.3,0.3-0.6,0.6-0.6h3.2
			c0.3,0,0.6,0.3,0.6,0.6v16.8c0,2.1,0.6,2.8,2.5,2.8h5.9c0.3,0,0.6,0.3,0.6,0.6v2.1C556.4,85.9,556.2,86.1,555.8,86.2z"/>
	</g>
</g>
<g id="Layer_16">
	<g id="G_x2B_B_2_">
		<path class="st0" d="M235.4,0h-73.1c-0.5,35.3,1.9,71.1,3.1,77.8c-18.1,37.7-32.7,64.2-37.2,72.2h92
			c-7.8-31.4-13.1-60.5-13.7-65.3C222.7,41.8,233.4,6.9,235.4,0z"/>
		<path class="st6" d="M208.4,150c-6.8-28.3-9.3-42.8-9.9-46.7c-5.6,14.9-15.6,38-15.6,38l1.2,8.7L208.4,150L208.4,150z"/>
		<path class="st6" d="M173,0c0,7.4,0,35.5,1.9,56.6c3.7-9.3,14.9-36.7,14.9-36.7V0H173z"/>
		<path class="st7" d="M171.1,150c9.1-15.8,36.9-88.3,56.7-150h-23.1c-5.9,15.7-34.3,87.6-67.8,150H171.1z"/>
	</g>
</g>
</svg>
