<?xml version="1.0" encoding="UTF-8"?>
<svg id="Layer_1" data-name="Layer 1" xmlns="http://www.w3.org/2000/svg" viewBox="0 0 400 230">
  <defs>
    <style>
      .cls-1 {
        fill: #d8ff77;
      }
    </style>
  </defs>
  <g>
    <path class="cls-1" d="M131.44,179.39l-2.36-21.84h2.96l.98,10.59c.28,3.01.63,6.35.65,8.5h.06c.82-1.94,2.73-5.45,4.3-8.46l5.62-10.63h3.16l-11.86,21.84h-3.52Z"/>
    <path class="cls-1" d="M158.48,169.1c0,4.67-2.39,10.57-8.43,10.57-4.12,0-5.91-2.7-5.91-6.36,0-4.32,2.5-10.33,8.54-10.33,3.89,0,5.8,2.54,5.8,6.12ZM147.11,173.25c0,2.41.89,4.06,3.23,4.06,3.72,0,5.22-4.89,5.22-8.12,0-2.46-.99-3.83-3.21-3.83-3.64,0-5.25,4.63-5.25,7.9Z"/>
    <path class="cls-1" d="M160.07,179.39l4.86-23.06h2.85l-4.86,23.06h-2.85Z"/>
    <path class="cls-1" d="M167.45,179.39l4.86-23.06h2.85l-4.86,23.06h-2.85Z"/>
    <path class="cls-1" d="M178.26,171.9c-.1.46-.18,1.07-.18,1.69,0,2.15.82,3.77,3.1,3.77,2.48,0,3.28-1.67,3.84-2.69h2.87c-.88,2.25-2.65,5.02-6.99,5.02-4.06,0-5.67-2.61-5.67-6.2,0-4.25,2.38-10.51,8.29-10.51,3.83,0,5.48,2.54,5.48,5.62,0,.96-.16,2.06-.47,3.31h-10.28ZM186.09,169.89c.09-.47.14-.83.14-1.34,0-1.98-.88-3.31-3.03-3.31-2.52,0-3.95,2.37-4.51,4.65h7.39Z"/>
    <path class="cls-1" d="M194.58,163.27c.68,6.55,1.29,11.76,1.37,13.4h.03c.79-1.74,3.04-6.65,6.46-13.4h3.02l-8.89,17.25c-2.48,4.82-3.93,5.48-6.99,5.48-.32,0-1.42-.1-1.79-.18l.52-2.47c.34.06.9.13,1.47.13,1.82,0,2.68-1.04,4.03-3.72l-2.1-16.49h2.88Z"/>
    <path class="cls-1" d="M231.02,173.29c-1.21,3.36-3.61,6.42-8.95,6.42-5.04,0-7.48-3.27-7.48-8.54,0-5.7,3.2-13.92,10.78-13.92,4.99,0,7.08,3.19,7.05,7h-2.86c-.18-2.53-1.28-4.55-4.49-4.55-5.03,0-7.4,6.56-7.4,11.27,0,3.84,1.45,6.31,4.71,6.31,2.88,0,4.45-1.42,5.64-3.99h2.99Z"/>
    <path class="cls-1" d="M233.12,179.39l4.86-23.06h2.85l-4.86,23.06h-2.85Z"/>
    <path class="cls-1" d="M253.36,174.79c-.44,2.08-.77,3.78-.91,4.6h-2.78c.06-.47.23-1.6.38-2.31-1.07,1.62-2.59,2.59-4.9,2.59-2.63,0-4.62-1.75-3.73-5.9l2.23-10.51h2.84l-2.15,10.11c-.45,2.2-.17,3.87,2.06,3.87s3.83-1.38,4.65-5.16l1.89-8.82h2.89l-2.45,11.53Z"/>
    <path class="cls-1" d="M261.69,156.33h2.85l-1.95,9.26c.95-1.36,2.37-2.61,4.94-2.61,2.97,0,4.74,2.2,4.74,5.6,0,4.36-2.15,11.1-8.15,11.1-2.47,0-3.61-1.16-4.02-2.52-.11.55-.39,1.71-.55,2.24h-2.79c.18-.83.6-2.7,1.02-4.62l3.91-18.45ZM269.29,169.08c0-2.52-1.11-3.69-2.93-3.69-2.93,0-4.54,2.92-5.15,5.83-.65,3.08-.42,6.09,2.76,6.09,3.73,0,5.31-5.19,5.31-8.22Z"/>
  </g>
  <path class="cls-1" d="M251.33,141.2c-10.94,0-23.97-4.13-23.97-23.8,0-2.48.21-5.02.63-7.55.11-.65.23-1.32.37-1.97.69-.61,5.28-3.48,9-5.79,9.37-5.84,9.36-5.87,9.2-6.44l-.11-.38h-.43c-.13-.01-.28.02-.67.19-1.1.47-2.85,1.23-4.83,2.08-3.58,1.55-7.91,3.43-10.52,4.51,3.07-8.64,10.9-21.85,30.1-21.85,8.63,0,15.1,2.16,19.23,6.43,4.54,4.68,5.1,10.83,5.01,14.18h-20.4c.23-2.77.1-4.88-1.07-6.16-.75-.83-1.86-1.23-3.38-1.23-7.16,0-10.76,17.26-10.76,26.92,0,6.52,2.97,7.49,4.74,7.49,4.08,0,5.55-2.89,6.73-6.19h20.79l7.47-35.1c6.74-1.57,13.94-2.9,21.42-3.95l-4.2,19.54h10.19l4.4-20.43c1.99-.29,12.35-1.64,31.84-1.79-11.1,3.1-12.92,10.58-13.76,14.03l-.07.29-9.67,45.43h-20.67l4.81-22.86h-10.19l-4.81,22.86h-20.58l2.94-13.82-1-.33c-4.77,10.27-14.38,15.7-27.78,15.7Z"/>
  <path class="cls-1" d="M84.33,134.11c-5.95,0-11.89-.2-17.65-.6-.85-.04-1.71-.12-2.54-.19-.58-.05-1.16-.1-1.74-.14-4.89-.42-9.76-1-14.51-1.71,13.99-1.8,21.71-8.99,23.22-15.85l7.21-33.88h26.31c12.26,0,19.59,5.17,19.59,13.83,0,7.86-5.23,11.41-9.62,13l-1.16.42,1.1.55c1.19.59,7.1,3.94,7.1,11.65,0,4.16-1.39,7.96-4.04,10.99-11.33,1.29-22.52,1.94-33.26,1.94h0ZM87.98,128.5h4.35c5.07,0,8.09-2.93,8.09-7.83,0-3.67-2.05-5.69-5.77-5.69h-3.78l-2.89,13.52ZM93.13,104.52h3.92c4.56,0,6.97-2.35,6.97-6.8,0-3.11-1.87-4.83-5.26-4.83h-3.18l-2.46,11.63Z"/>
  <path class="cls-1" d="M134.68,81.74h43.1l-2.87,13.56h-23.55l-1.77,8.53h22.6l-2.95,13.56h-22.61l-2.25,10.65c-6.82,1.32-13.63,2.44-20.26,3.33l10.56-49.62Z"/>
  <path class="cls-1" d="M126.52,141.2c40.06-8.52,61.91-16.86,66.01-18.5,11.23-4.57,21.99-9.01,30.31-13.11l.94,30.07h-20.39l.43-9.8h-12.78l-4.28,11.35h-60.23Z"/>
  <path class="cls-1" d="M192.68,81.74h29.32l.71,23.21c-6.08,2.37-12.19,4.61-18.16,6.69l.1-1.95c.26-5.07.57-11.37.94-16.23l.04-.57h-1.82l-.11.38c-1.95,6.52-4.07,12.65-6.13,18.58l-.84,2.43c-7.25,2.38-14.5,4.57-21.58,6.53l17.54-39.06Z"/>
  <polygon class="cls-1" points="183.83 64.67 187.32 48.33 182.15 48.33 183.07 44 200.21 44 199.29 48.33 194.19 48.33 190.71 64.67 183.83 64.67"/>
  <polygon class="cls-1" points="210.5 64.67 212.28 56.25 207.84 56.25 206.07 64.67 199.17 64.67 203.57 44 210.47 44 208.85 51.51 213.29 51.51 214.9 44 221.84 44 217.44 64.67 210.5 64.67"/>
  <polygon class="cls-1" points="221.82 64.67 226.22 44 241.42 44 240.5 48.33 231.82 48.33 231.03 52.14 239.36 52.14 238.41 56.47 230.08 56.47 229.25 60.38 238.97 60.38 237.6 64.67 221.82 64.67"/>
</svg>