<?xml version="1.0" encoding="UTF-8"?>
<svg id="Layer_1" data-name="Layer 1" xmlns="http://www.w3.org/2000/svg" viewBox="0 0 400 230">
  <defs>
    <style>
      .cls-1 {
        fill: #131510;
      }
    </style>
  </defs>
  <g>
    <path class="cls-1" d="M319.23,81.47l-4.39,20.38h-9.11l4.23-19.64c-7.31,1-14.92,2.35-22.55,4.14l-3.17,14.88c.3-9.32-4.4-21.3-24.77-21.3-17.66,0-27.05,11.19-30.99,23.32,3.46-1.4,13.03-5.59,16.44-7.04,4.02-1.71-17.55,11.05-17.69,11.71-.15.71-.28,1.42-.4,2.12-.43,2.63-.64,5.21-.64,7.64,0,13.93,6.62,24.33,24.51,24.33,14.45,0,23.69-6.13,28.27-16.01l-3.08,14.46h21.67l2.57-12.21,2.24-10.66h9.11l-4.81,22.87h21.75l9.76-45.85c.9-3.63,2.8-13.14,18.96-14.99-25.89-.12-37.92,1.85-37.92,1.85ZM259.21,121.37c-1.2,3.44-2.49,6.19-6.36,6.19-2.92,0-4.21-2.75-4.21-6.96,0-9.63,3.52-26.4,10.23-26.4,3.96,0,4.3,2.92,3.87,7.39h21.43l-4.21,19.78h-20.75Z"/>
    <path class="cls-1" d="M114.08,109.33c4.99-1.81,9.97-5.76,9.97-13.5,0-9.29-7.91-14.36-20.12-14.36h-26.74l-7.3,34.31s0,0,0,0c-1.51,6.87-9.99,15.03-27.03,15.81,6.21,1.06,12.48,1.85,18.8,2.4,1.45.1,2.87.26,4.29.33,16.89,1.16,34.05.59,51.23-1.37,2.76-3.1,4.3-7.02,4.3-11.49,0-6.96-4.64-10.75-7.4-12.12ZM91.63,128.25h-3.7l2.67-12.47h3.35c3.44,0,5.24,1.81,5.24,5.16,0,5.5-3.87,7.31-7.57,7.31ZM96.36,104.26h-3.27l2.24-10.58h2.75c2.92,0,4.73,1.29,4.73,4.3,0,3.96-1.98,6.28-6.45,6.28Z"/>
    <path class="cls-1" d="M144.15,128.76l2.23-10.57h22.61l3.18-14.62h-22.61l1.55-7.48h23.56l3.1-14.62h-44.2l-10.81,50.79c7.14-.94,14.27-2.11,21.39-3.5Z"/>
    <path class="cls-1" d="M191.67,122.48c-3.58,1.43-27.31,10.57-70.95,19.53h65.73l4.28-11.35h11.87l-.43,9.8h21.5l-.98-31.45c-8.17,4.09-18.81,8.5-31.02,13.47Z"/>
    <path class="cls-1" d="M196.62,114.92h-.12c2.41-6.96,4.81-13.76,7.05-21.24h.86c-.44,5.82-.82,13.91-1.08,18.98,6.5-2.24,12.93-4.62,19.28-7.09l-.74-24.1h-30.18l-18.14,40.41c7.76-2.12,15.46-4.45,23.08-6.96Z"/>
  </g>
  <g>
    <path class="cls-1" d="M186.01,49.11h-5.16l1.14-5.39h18.22l-1.14,5.39h-5.1l-3.49,16.35h-7.95l3.49-16.35Z"/>
    <path class="cls-1" d="M202.48,43.73h7.98l-1.62,7.51h3.36l1.62-7.51h8.02l-4.63,21.74h-8.02l1.77-8.43h-3.36l-1.77,8.43h-7.98l4.63-21.74Z"/>
    <path class="cls-1" d="M238.19,57.26h-8.33l-.6,2.85h9.79l-1.71,5.35h-16.83l4.63-21.74h16.29l-1.14,5.39h-8.68l-.57,2.76h8.33l-1.17,5.39Z"/>
  </g>
  <g>
    <path class="cls-1" d="M129.73,179.69l-2.27-21.77h3.73l.82,10.18c.24,2.94.56,5.92.54,8.2h.06c.85-2.08,2.54-5.28,3.99-8.12l5.27-10.26h3.98l-11.7,21.77h-4.44Z"/>
    <path class="cls-1" d="M157.97,169.38c0,4.75-2.47,10.61-8.75,10.61-4.38,0-6.23-2.75-6.23-6.49,0-4.27,2.5-10.39,8.85-10.39,4.18,0,6.13,2.68,6.13,6.27ZM146.76,173.45c0,2.24.8,3.6,2.81,3.6,3.4,0,4.73-4.74,4.73-7.62,0-2.26-.87-3.4-2.83-3.4-3.31,0-4.71,4.42-4.71,7.42Z"/>
    <path class="cls-1" d="M159.39,179.69l4.86-23.05h3.63l-4.86,23.05h-3.62Z"/>
    <path class="cls-1" d="M167.25,179.69l4.86-23.05h3.63l-4.86,23.05h-3.62Z"/>
    <path class="cls-1" d="M179.41,172.35c-.07.35-.16.87-.16,1.44,0,1.81.65,3.33,2.71,3.33s2.84-1.37,3.37-2.35h3.63c-1.02,2.74-2.97,5.21-7.31,5.21s-6-2.62-6-6.42,2.28-10.46,8.58-10.46c4.01,0,5.81,2.58,5.81,5.74,0,.92-.15,2.05-.51,3.5h-10.13ZM186.44,169.94c.09-.43.14-.79.14-1.22,0-1.64-.73-2.86-2.68-2.86-2.33,0-3.5,2.23-3.95,4.08h6.49Z"/>
    <path class="cls-1" d="M196.28,163.4c.52,6.4.98,11.2,1.01,12.89h.03c.81-1.83,3.12-7.16,5.97-12.89h3.82l-8.95,17.48c-2.51,4.88-4.03,5.4-7.24,5.4-.3,0-1.45-.08-1.88-.17l.64-3.06c.37.06.94.11,1.41.11,1.67,0,2.43-.99,3.48-3.13l-1.95-16.63h3.67Z"/>
    <path class="cls-1" d="M232.97,173.42c-1.17,3.44-3.6,6.58-9.22,6.58-5.21,0-7.7-3.32-7.7-8.55,0-5.69,3.2-13.83,10.98-13.83,5.25,0,7.32,3.41,7.23,7.1h-3.59c-.16-2.04-.93-4.09-4.04-4.09-4.65,0-6.7,6.19-6.7,10.53,0,3.65,1.3,5.84,4.24,5.84,2.71,0,4.03-1.38,5.03-3.59h3.76Z"/>
    <path class="cls-1" d="M234.74,179.69l4.86-23.05h3.63l-4.86,23.05h-3.62Z"/>
    <path class="cls-1" d="M256.24,174.95c-.47,2.24-.8,3.89-.94,4.74h-3.53c.06-.5.2-1.43.31-1.99-1.19,1.62-2.64,2.28-4.78,2.28-2.9,0-4.58-2.13-3.75-6.01l2.24-10.56h3.6l-2.15,10.15c-.41,1.95-.11,3.42,1.81,3.42s3.34-1.2,4.08-4.59l1.93-8.99h3.64l-2.46,11.55Z"/>
    <path class="cls-1" d="M264.31,156.63h3.63l-1.87,8.86c.88-1.2,2.22-2.39,4.8-2.39,3.09,0,4.8,2.39,4.8,5.65,0,4.6-2.25,11.22-8.29,11.22-2.47,0-3.53-1.12-3.95-2.25-.1.5-.33,1.48-.49,1.97h-3.56c.22-.97.69-3.07,1.07-4.84l3.86-18.22ZM271.9,169.44c0-2.25-.95-3.35-2.69-3.35-2.67,0-4.06,2.72-4.63,5.41-.64,3.02-.36,5.54,2.46,5.54,3.43,0,4.86-4.87,4.86-7.6Z"/>
  </g>
</svg>