<?xml version="1.0" encoding="UTF-8"?>
<svg id="Layer_1" data-name="Layer 1" xmlns="http://www.w3.org/2000/svg" viewBox="0 0 400 150">
  <defs>
    <style>
      .cls-1 {
        fill: #d8ff77;
      }
    </style>
  </defs>
  <path class="cls-1" d="M253.13,106.54c-11.25,0-24.67-4.25-24.67-24.49,0-2.55.22-5.17.65-7.77.11-.67.24-1.36.38-2.03.71-.63,5.44-3.58,9.26-5.96,9.64-6.01,9.63-6.04,9.47-6.63l-.11-.39h-.44c-.13-.01-.29.02-.69.19-1.14.48-2.94,1.26-4.98,2.15-3.68,1.59-8.13,3.52-10.82,4.64,3.16-8.89,11.22-22.49,30.98-22.49,8.88,0,15.53,2.23,19.79,6.62,4.67,4.82,5.25,11.15,5.16,14.59h-20.99c.24-2.85.1-5.02-1.1-6.34-.77-.85-1.91-1.26-3.47-1.26-7.37,0-11.07,17.76-11.07,27.7,0,6.71,3.06,7.71,4.88,7.71,4.19,0,5.71-2.97,6.93-6.37h21.4l4.56-21.43,3.13-14.69c6.94-1.62,14.35-2.99,22.04-4.06l-4.33,20.11h10.49l4.52-21.03c2.05-.3,12.71-1.69,32.76-1.84-11.42,3.18-13.3,10.89-14.16,14.44l-.07.3-9.95,46.75h-21.27l4.95-23.53h-10.49l-4.95,23.53h-21.18l3.03-14.22-1.02-.34c-4.91,10.57-14.79,16.16-28.59,16.16Z"/>
  <polygon class="cls-1" points="46.48 70.76 47.55 65.74 53.02 68.19 53.8 64.54 48.32 62.09 49.39 57.04 64.24 63.65 63.17 68.7 57.02 65.97 56.24 69.63 62.4 72.35 61.33 77.37 46.48 70.76"/>
  <polygon class="cls-1" points="50.16 53.44 51.87 45.36 55.06 45.36 54.08 50.01 57.11 51.34 58.38 45.36 61.57 45.36 60.02 52.66 63.12 54.03 64.96 45.36 68.13 45.36 65.01 60.05 50.16 53.44"/>
  <path class="cls-1" d="M43.16,86.43l2.73-12.84,2.92,1.3-.83,3.9,10.57,4.71c-.97.99-2.42,2.25-4.45,3.48l-7.18-3.2-.84,3.95-2.92-1.3Z"/>
  <path class="cls-1" d="M81.27,99.25c-6.13,0-12.24-.21-18.17-.61-.87-.04-1.76-.12-2.61-.19-.6-.05-1.19-.1-1.8-.15-5.04-.44-10.04-1.03-14.93-1.76,14.4-1.85,22.35-9.26,23.89-16.31l7.42-34.87h27.07c12.62,0,20.16,5.32,20.16,14.23,0,8.09-5.39,11.74-9.9,13.38l-1.19.43,1.13.57c1.22.61,7.31,4.05,7.31,11.99,0,4.28-1.44,8.19-4.15,11.31-11.66,1.33-23.18,2-34.22,2h0ZM85.03,93.48h4.48c5.21,0,8.33-3.01,8.33-8.06,0-3.77-2.11-5.85-5.94-5.85h-3.89l-2.97,13.91ZM90.34,68.8h4.03c4.7,0,7.18-2.42,7.18-7,0-3.2-1.92-4.97-5.41-4.97h-3.27l-2.53,11.97Z"/>
  <path class="cls-1" d="M133.09,45.36h44.36l-2.95,13.95h-24.24l-1.82,8.78h23.26l-3.04,13.95h-23.27l-2.31,10.96c-7.02,1.36-14.03,2.51-20.85,3.42l10.87-51.06Z"/>
  <path class="cls-1" d="M124.69,106.54c41.23-8.77,63.71-17.35,67.93-19.04,11.55-4.7,22.63-9.26,31.19-13.49l.96,30.94h-20.99l.44-10.08h-13.15l-4.4,11.68h-61.98Z"/>
  <path class="cls-1" d="M192.78,45.36h30.17l.73,23.88c-6.26,2.44-12.54,4.75-18.69,6.88l.1-2.02c.26-5.21.59-11.69.97-16.69l.04-.58h-1.88l-.12.39c-2.01,6.72-4.2,13.03-6.31,19.13l-.86,2.49c-7.45,2.45-14.91,4.7-22.21,6.71l18.05-40.2Z"/>
</svg>