<?xml version="1.0" encoding="UTF-8"?>
<svg id="Layer_1" data-name="Layer 1" xmlns="http://www.w3.org/2000/svg" viewBox="0 0 400 150">
  <defs>
    <style>
      .cls-1 {
        fill: #131510;
      }
    </style>
  </defs>
  <path class="cls-1" d="M319.13,45.94l-4.38,20.36h-9.11l4.22-19.63c-7.3,1-14.91,2.35-22.53,4.14l-3.16,14.87c.3-9.32-4.4-21.28-24.75-21.28-17.64,0-27.03,11.18-30.96,23.3,3.46-1.39,13.02-5.58,16.42-7.03,4.01-1.71-17.53,11.04-17.67,11.7-.15.71-.28,1.42-.4,2.12-.43,2.62-.64,5.2-.64,7.63,0,13.92,6.61,24.31,24.48,24.31,14.44,0,23.67-6.13,28.25-16l-3.08,14.45h21.65l2.57-12.2,2.24-10.65h9.11l-4.81,22.85h21.74l9.75-45.81c.89-3.62,2.79-13.13,18.94-14.98-25.87-.12-37.88,1.85-37.88,1.85ZM259.16,85.81c-1.2,3.44-2.49,6.19-6.36,6.19-2.92,0-4.21-2.75-4.21-6.96,0-9.62,3.52-26.37,10.22-26.37,3.95,0,4.3,2.92,3.87,7.39h21.41l-4.21,19.76h-20.73Z"/>
  <polygon class="cls-1" points="66.02 72.38 60.04 69.74 60.57 67.24 66.55 69.89 67.81 63.93 52.4 57.07 51.13 63.03 56.46 65.41 55.93 67.9 50.61 65.52 49.35 71.45 64.76 78.31 66.02 72.38"/>
  <polygon class="cls-1" points="71.63 45.94 67.47 45.94 65.73 54.15 63.71 53.26 65.26 45.94 61.08 45.94 59.89 51.54 57.94 50.68 58.94 45.94 54.76 45.94 52.92 54.63 68.33 61.49 71.63 45.94"/>
  <path class="cls-1" d="M50.75,84.53l6.63,2.95c2.28-1.35,3.99-2.84,5.18-4.16l-10.56-4.7.8-3.79-3.82-1.7-2.87,13.53,3.82,1.7.81-3.83Z"/>
  <path class="cls-1" d="M114.16,73.78c4.98-1.8,9.97-5.76,9.97-13.49,0-9.28-7.9-14.35-20.1-14.35h-26.72l-7.3,34.28s0,0,0,0c-1.51,6.87-9.98,15.02-27.01,15.79,6.21,1.06,12.47,1.85,18.78,2.4,1.44.1,2.87.26,4.28.33,16.88,1.16,34.02.59,51.18-1.37,2.76-3.1,4.3-7.01,4.3-11.48,0-6.96-4.64-10.74-7.39-12.11ZM91.74,92.68h-3.69l2.66-12.46h3.35c3.44,0,5.24,1.8,5.24,5.15,0,5.5-3.87,7.3-7.56,7.3ZM96.46,68.71h-3.26l2.23-10.57h2.75c2.92,0,4.73,1.29,4.73,4.3,0,3.95-1.98,6.27-6.44,6.27Z"/>
  <path class="cls-1" d="M144.21,93.19l2.23-10.56h22.59l3.18-14.6h-22.59l1.55-7.47h23.54l3.09-14.6h-44.16l-10.8,50.74c7.13-.94,14.26-2.11,21.37-3.49Z"/>
  <path class="cls-1" d="M191.69,86.92c-3.58,1.43-27.29,10.57-70.88,19.51h65.67l4.28-11.34h11.86l-.43,9.79h21.48l-.98-31.42c-8.17,4.09-18.79,8.5-30.99,13.46Z"/>
  <path class="cls-1" d="M196.63,79.36h-.12c2.41-6.96,4.81-13.75,7.04-21.22h.86c-.44,5.82-.82,13.9-1.08,18.96,6.49-2.24,12.92-4.61,19.26-7.08l-.74-24.08h-30.15l-18.13,40.37c7.75-2.12,15.45-4.44,23.06-6.95Z"/>
</svg>